<svg xmlns="http://www.w3.org/2000/svg" xmlns:xlink="http://www.w3.org/1999/xlink" xmlns:inkscape="http://www.inkscape.org/namespaces/inkscape" version="1.1" width="682.045" height="117.416" viewBox="0 0 682.045 117.416">
<style>
   @media (prefers-color-scheme: light) { :root { --color: #000000; } }
   @media (prefers-color-scheme: dark) { :root { --color: #DDDDDD; } }
</style>
<defs>
<path id="font_1_4" d="M.59599307 .51504519C.59498599 .6582031 .49699403 .74121096 .32899476 .74121096 .16899109 .74121096 .069992069 .65919497 .069992069 .52705386 .069992069 .43795777 .116989139 .38189698 .21299744 .35687257L.3939972 .30882264C.48599244 .2848053 .5279999 .24775696 .5279999 .19070435 .5279999 .1516571 .5069885 .11161804 .47599793 .08958435 .44699098 .06956482 .40098573 .058547975 .34199525 .058547975 .2630005 .058547975 .20899964 .07757568 .17399597 .11961365 .14698792 .1516571 .1349945 .18669129 .13598633 .23173523H.04798889C.04899597 .16467285 .06199646 .12062073 .09098816 .080581668 .14099121 .012557983 .22499085-.0234375 .33599855-.0234375 .4229889-.0234375 .49398805-.0034484864 .54100039 .032562257 .58999636 .07156372 .62098696 .13664246 .62098696 .19970703 .62098696 .28981019 .5649872 .35588075 .46598817 .38290406L.2829895 .43196107C.19499207 .4559784 .16299439 .4840088 .16299439 .5400696 .16299439 .614151 .22799683 .663208 .32598878 .663208 .44198609 .663208 .5069885 .6101532 .5079956 .51504519H.59599307Z"/>
<path id="font_1_18" d="M.2539978 .52441409H.16799927V.66841128H.084991458V.52441409H.01399231V.45640565H.084991458V.059570314C.084991458 .0065612795 .12098694-.0234375 .18598938-.0234375 .20599365-.0234375 .22599793-.021438599 .2539978-.016448975V.05355835C.24299622 .05055237 .22999573 .049560548 .21398926 .049560548 .17799378 .049560548 .16799927 .059570314 .16799927 .09664917V.45640565H.2539978V.52441409Z"/>
<path id="font_1_5" d="M.5349884 .048553468C.526001 .046554567 .5219879 .046554567 .5169983 .046554567 .48799134 .046554567 .47200013 .061569215 .47200013 .08760071V.39598084C.47200013 .48905946 .4039917 .5390625 .2749939 .5390625 .19898987 .5390625 .13598633 .5170593 .100997928 .47805787 .07699585 .45103456 .066986087 .42100526 .06498718 .36894227H.14898682C.1559906 .43301393 .19400025 .4620514 .27198792 .4620514 .34700013 .4620514 .3889923 .434021 .3889923 .3839569V.36193849C.3889923 .32688905 .36799623 .3118744 .3019867 .30386354 .18399048 .28884889 .1659851 .28483583 .13398743 .27182008 .07299805 .24679566 .041992189 .19973755 .041992189 .13165283 .041992189 .03656006 .10798645-.0234375 .21398926-.0234375 .27999879-.0234375 .33299256-.00044250489 .3919983 .05355835 .397995 .0005493164 .42399598-.0234375 .47799684-.0234375 .49499513-.0234375 .5079956-.021438599 .5349884-.014450073V.048553468M.3889923 .16468811C.3889923 .13665772 .3809967 .119644168 .35598756 .09661865 .32199098 .06556702 .2809906 .049560548 .23199463 .049560548 .16699219 .049560548 .1289978 .080596927 .1289978 .13365174 .1289978 .1887207 .1659851 .2167511 .25498963 .22976685 .34298707 .24179077 .36099244 .24578858 .3889923 .25880433V.16468811Z"/>
<path id="font_1_16" d="M.068984989 .52441409V0H.15299988V.27220155C.15299988 .34727479 .17199707 .39631654 .21199036 .42533876 .23799134 .4443512 .2630005 .45036317 .32099916 .45135499V.5364075C.30699159 .5380554 .2999878 .5390625 .2889862 .5390625 .23498535 .5390625 .19400025 .50704959 .1459961 .42904664V.52441409H.068984989Z"/>
<path id="font_1_1" d="M.07899475 0H.4079895C.47698976 0 .5279999 .018997193 .5669861 .06098938 .6029968 .09899902 .6230011 .15100098 .6230011 .20799256 .6230011 .29600526 .58299258 .34899903 .48999024 .3849945 .55599978 .41600038 .59098818 .46987916 .59098818 .5437317 .59098818 .59661868 .57099917 .6435089 .5329895 .6775055 .49499513 .71250918 .44499208 .7285156 .375 .7285156H.07899475V0M.17199707 .4149933V.6465149H.35198976C.4039917 .6465149 .43299867 .63952639 .45799256 .6205597 .48399354 .6006012 .49798585 .57066348 .49798585 .53074648 .49798585 .49183656 .48399354 .46090699 .45799256 .4409485 .43299867 .4219818 .4039917 .4149933 .35198976 .4149933H.17199707M.17199707 .08198547V.3330078H.39898683C.44400025 .3330078 .47399903 .32200624 .49598695 .29800416 .5179901 .2749939 .5299988 .24299622 .5299988 .20700073 .5299988 .17199707 .5179901 .13999939 .49598695 .116989139 .47399903 .09298706 .44400025 .08198547 .39898683 .08198547H.17199707Z"/>
<path id="font_1_17" d="M.43798829 .37794496C.43699647 .48104859 .36898805 .5390625 .24798584 .5390625 .12599182 .5390625 .04699707 .47605897 .04699707 .37895204 .04699707 .29685975 .08898926 .25779725 .21299744 .22776795L.29100038 .20874024C.34899903 .19473267 .37199403 .17370606 .37199403 .13565064 .37199403 .08659363 .32299806 .05355835 .25 .05355835 .20498657 .05355835 .16699219 .0665741 .1459961 .08859253 .1329956 .10362244 .1269989 .118637088 .12199402 .15568543H.033996583C.037994386 .034561159 .10598755-.0234375 .24299622-.0234375 .375-.0234375 .45899964 .041549684 .45899964 .14266968 .45899964 .22076416 .4149933 .2638092 .31098939 .28884889L.23098755 .30786134C.16299439 .32388307 .13398743 .34591676 .13398743 .3829651 .13398743 .431015 .1769867 .4620514 .24499512 .4620514 .31199647 .4620514 .34799195 .43301393 .34999085 .37794496H.43798829Z"/>
<path id="font_1_10" d="M.1499939 .5235901H.066986087V0H.1499939V.5235901M.1499939 .7285156H.06599426V.62350466H.1499939V.7285156Z"/>
<path id="font_1_7" d="M.47099305 .34791566C.46699525 .39897157 .45599366 .4320221 .43598939 .46105958 .3999939 .51005557 .33699037 .5390625 .2639923 .5390625 .12298584 .5390625 .0309906 .4270172 .0309906 .25279237 .0309906 .08358765 .12098694-.0234375 .2630005-.0234375 .3880005-.0234375 .46699525 .05155945 .47698976 .17970276H.3929901C.3789978 .09561157 .33599855 .05355835 .2649994 .05355835 .17298889 .05355835 .117996219 .12864685 .117996219 .25279237 .117996219 .3839569 .17199707 .4620514 .2630005 .4620514 .33299256 .4620514 .3769989 .42100526 .3869934 .34791566H.47099305Z"/>
<path id="font_1_6" d="M.053985597 .7285156V-.00044250489H.1289978V.0665741C.16899109 .005554199 .22200012-.0234375 .29499818-.0234375 .43299867-.0234375 .522995 .08959961 .522995 .2638092 .522995 .434021 .43699647 .5390625 .29899598 .5390625 .22698975 .5390625 .17599488 .51205447 .13699341 .4530487V.7285156H.053985597M.2829895 .46105958C.37599183 .46105958 .43598939 .3799591 .43598939 .25480653 .43598939 .13565064 .37399293 .05455017 .2829895 .05455017 .19499207 .05455017 .13699341 .13465882 .13699341 .25779725 .13699341 .38095094 .19499207 .46105958 .2829895 .46105958Z"/>
<path id="font_1_12" d="M.1519928 .7285156H.067993167V0H.1519928V.7285156Z"/>
<path id="font_1_14" d="M.27198792 .5390625C.125 .5390625 .035995485 .434021 .035995485 .25779725 .035995485 .081588748 .12399292-.0234375 .272995-.0234375 .41999818-.0234375 .5099945 .081588748 .5099945 .25379945 .5099945 .43502809 .4229889 .5390625 .27198792 .5390625M.272995 .4620514C.36698915 .4620514 .4229889 .384964 .4229889 .25480653 .4229889 .13165283 .36499024 .05355835 .272995 .05355835 .17999268 .05355835 .12298584 .13064575 .12298584 .25779725 .12298584 .3839569 .17999268 .4620514 .272995 .4620514Z"/>
<path id="font_1_11" d="M.14099121 .7285156H.057998659V0H.14099121V.20385742L.22200012 .28381349 .39898683 0H.5019989L.28799439 .34277345 .46998597 .52363589H.36299134L.14099121 .30178834V.7285156Z"/>
<path id="font_1_3" d="M.70899966 .38476563H.40499879V.3027649H.6269989V.28274537C.6269989 .15263367 .5309906 .058547975 .397995 .058547975 .32398988 .058547975 .25698854 .08557129 .21398926 .13261414 .1659851 .18466187 .13699341 .27172853 .13699341 .36175538 .13699341 .5410156 .23899842 .6592102 .3929901 .6592102 .5039978 .6592102 .58399966 .6021118 .60398867 .5079651H.69898989C.6729889 .6562042 .5609894 .74121096 .3939972 .74121096 .30499269 .74121096 .23298645 .7182007 .17599488 .6712036 .09199524 .60110476 .04399109 .4879303 .04399109 .3567505 .04399109 .13261414 .18099976-.0234375 .37799073-.0234375 .47698976-.0234375 .55599978 .013549805 .6269989 .09259033L.6499939-.0044403078H.70899966V.38476563Z"/>
<path id="font_1_19" d="M.48199464-.00044250489V.52441409H.39898683V.22688294C.39898683 .11968994 .34298707 .049560548 .2559967 .049560548 .18998719 .049560548 .147995 .08963013 .147995 .15275574V.52441409H.06498718V.11968994C.06498718 .032562257 .12998963-.0234375 .23199463-.0234375 .30899049-.0234375 .35798646 .0035552979 .40699769 .07260132V-.00044250489H.48199464Z"/>
<path id="font_1_15" d="M.053985597-.21824646H.13798523V.05455017C.18199158 .0005493164 .23098755-.0234375 .29899598-.0234375 .43399049-.0234375 .522995 .08558655 .522995 .25279237 .522995 .4290161 .43699647 .5390625 .2979889 .5390625 .22698975 .5390625 .16999817 .50704959 .1309967 .44503785V.52404788H.053985597V-.21824646M.28399659 .46105958C.37599183 .46105958 .43598939 .3799591 .43598939 .25480653 .43598939 .13565064 .375 .05455017 .28399659 .05455017 .19599915 .05455017 .13798523 .13465882 .13798523 .25779725 .13798523 .38095094 .19599915 .46105958 .28399659 .46105958Z"/>
<path id="font_1_9" d="M.5130005 .23374939C.5130005 .31376649 .5069885 .36186219 .49198915 .40093995 .45799256 .48706056 .37799073 .5390625 .27999879 .5390625 .13398743 .5390625 .039993287 .4269867 .039993287 .25474549 .039993287 .08258057 .1309967-.0234375 .27799989-.0234375 .397995-.0234375 .48098756 .044555665 .5019989 .15867615H.41799928C.394989 .08959961 .34799195 .05355835 .2809906 .05355835 .22799683 .05355835 .18299866 .07757568 .15499878 .12162781 .1349945 .1516571 .12799073 .18170166 .1269989 .23374939H.5130005M.1289978 .3017578C.13598633 .39894105 .19499207 .4620514 .2789917 .4620514 .36099244 .4620514 .42399598 .3939209 .42399598 .30775453 .42399598 .30575563 .42399598 .3037567 .4229889 .3017578H.1289978Z"/>
<path id="font_1_2" d="M.18299866 .33203126H.5799866V.41401673H.18299866V.6465149H.59498599V.7285156H.08999634V0H.61299136V.08198547H.18299866V.33203126Z"/>
<path id="font_1_13" d="M.069992069 .52441409V0H.1539917V.2892151C.1539917 .39604188 .20999146 .4660492 .29599 .4660492 .3619995 .4660492 .4039917 .42604066 .4039917 .3630371V0H.4869995V.39604188C.4869995 .4830475 .42199708 .5390625 .32099916 .5390625 .24299622 .5390625 .19299317 .50904849 .14698792 .43605042V.52441409H.069992069Z"/>
<path id="font_1_8" d="M.49499513 .7285156H.4119873V.4580536C.3769989 .51104739 .32099916 .5390625 .25099183 .5390625 .114990238 .5390625 .025985718 .43000794 .025985718 .26280213 .025985718 .08558655 .11299133-.0234375 .2539978-.0234375 .32598878-.0234375 .37599183 .0035552979 .42099 .068573V-.00044250489H.49499513V.7285156M.2649994 .46105958C.35499574 .46105958 .4119873 .38095094 .4119873 .25579835 .4119873 .13465882 .35398866 .05455017 .2659912 .05455017 .17399597 .05455017 .11299133 .13565064 .11299133 .25779725 .11299133 .3799591 .17399597 .46105958 .2649994 .46105958Z"/>
</defs>
<path transform="matrix(1,0,0,-1,.199,65.795)" stroke-width=".79701" stroke-linecap="butt" stroke-miterlimit="10" stroke-linejoin="miter" fill="none" stroke="#ff8000" d="M40.74832-51.2234V51.2234H186.90573V-51.2234ZM186.90573 51.2234"/>
<path transform="matrix(1,0,0,-1,.199,65.795)" stroke-width=".79701" stroke-linecap="butt" stroke-miterlimit="10" stroke-linejoin="miter" fill="none" stroke="#ff0000" d="M191.15778-34.21536V34.21536H341.36799V-34.21536ZM341.36799 34.21536"/>
<path transform="matrix(1,0,0,-1,.199,65.795)" stroke-width=".79701" stroke-linecap="butt" stroke-miterlimit="10" stroke-linejoin="miter" fill="none" stroke="#4169e1" d="M345.62-51.2234V51.2234H644.62319V-51.2234ZM644.62319 51.2234"/>
<path transform="matrix(1,0,0,-1,.199,65.795)" d="M28.55919 14.17339H.85039C.38072 14.17339 0 13.79266 0 13.323V-13.323C0-13.79266 .38072-14.17339 .85039-14.17339H28.55919C29.02885-14.17339 29.40959-13.79266 29.40959-13.323V13.323C29.40959 13.79266 29.02885 14.17339 28.55919 14.17339ZM0-14.17339" fill="#b3b3ff"/>
<path transform="matrix(1,0,0,-1,.199,65.795)" stroke-width=".3985" stroke-linecap="butt" stroke-miterlimit="10" stroke-linejoin="miter" fill="none" stroke="#262626" d="M28.55919 14.17339H.85039C.38072 14.17339 0 13.79266 0 13.323V-13.323C0-13.79266 .38072-14.17339 .85039-14.17339H28.55919C29.02885-14.17339 29.40959-13.79266 29.40959-13.323V13.323C29.40959 13.79266 29.02885 14.17339 28.55919 14.17339ZM0-14.17339"/>
<use data-text="S" xlink:href="#font_1_4" transform="matrix(9.96264,0,0,-9.96264,4.184,69.356)"/>
<use data-text="t" xlink:href="#font_1_18" transform="matrix(9.96264,0,0,-9.96264,10.829082,69.356)"/>
<use data-text="a" xlink:href="#font_1_5" transform="matrix(9.96264,0,0,-9.96264,13.598696,69.356)"/>
<use data-text="r" xlink:href="#font_1_16" transform="matrix(9.96264,0,0,-9.96264,19.137925,69.356)"/>
<use data-text="t" xlink:href="#font_1_18" transform="matrix(9.96264,0,0,-9.96264,22.853989,69.356)"/>
<path transform="matrix(1,0,0,-1,52.883,31.779)" d="M57.10266 14.17339H.85039C.38072 14.17339 0 13.79266 0 13.323V-13.323C0-13.79266 .38072-14.17339 .85039-14.17339H57.10266C57.57233-14.17339 57.95306-13.79266 57.95306-13.323V13.323C57.95306 13.79266 57.57233 14.17339 57.10266 14.17339ZM0-14.17339" fill="#7f807f"/>
<path transform="matrix(1,0,0,-1,52.883,31.779)" stroke-width=".3985" stroke-linecap="butt" stroke-miterlimit="10" stroke-linejoin="miter" fill="none" stroke="#262626" d="M57.10266 14.17339H.85039C.38072 14.17339 0 13.79266 0 13.323V-13.323C0-13.79266 .38072-14.17339 .85039-14.17339H57.10266C57.57233-14.17339 57.95306-13.79266 57.95306-13.323V13.323C57.95306 13.79266 57.57233 14.17339 57.10266 14.17339ZM0-14.17339"/>
<use data-text="B" xlink:href="#font_1_1" transform="matrix(9.96264,0,0,-9.96264,56.868,35.271005)"/>
<use data-text="a" xlink:href="#font_1_5" transform="matrix(9.96264,0,0,-9.96264,63.51308,35.271005)"/>
<use data-text="s" xlink:href="#font_1_17" transform="matrix(9.96264,0,0,-9.96264,69.05231,35.271005)"/>
<use data-text="i" xlink:href="#font_1_10" transform="matrix(9.96264,0,0,-9.96264,74.03363,35.271005)"/>
<use data-text="c" xlink:href="#font_1_7" transform="matrix(9.96264,0,0,-9.96264,76.24534,35.271005)"/>
<use data-text="b" xlink:href="#font_1_6" transform="matrix(9.96264,0,0,-9.96264,83.99628,35.271005)"/>
<use data-text="l" xlink:href="#font_1_12" transform="matrix(9.96264,0,0,-9.96264,89.33626,35.271005)"/>
<use data-text="o" xlink:href="#font_1_14" transform="matrix(9.96264,0,0,-9.96264,91.547969,35.271005)"/>
<use data-text="c" xlink:href="#font_1_7" transform="matrix(9.96264,0,0,-9.96264,97.0872,35.271005)"/>
<use data-text="k" xlink:href="#font_1_11" transform="matrix(9.96264,0,0,-9.96264,101.86927,35.271005)"/>
<path transform="matrix(1,0,0,-1,52.883,31.779)" d="M123.55986 14.17339H67.30759C66.83792 14.17339 66.45718 13.79266 66.45718 13.323V-13.323C66.45718-13.79266 66.83792-14.17339 67.30759-14.17339H123.55986C124.02953-14.17339 124.41026-13.79266 124.41026-13.323V13.323C124.41026 13.79266 124.02953 14.17339 123.55986 14.17339ZM66.45718-14.17339" fill="#7f807f"/>
<path transform="matrix(1,0,0,-1,52.883,31.779)" stroke-width=".3985" stroke-linecap="butt" stroke-miterlimit="10" stroke-linejoin="miter" fill="none" stroke="#262626" d="M123.55986 14.17339H67.30759C66.83792 14.17339 66.45718 13.79266 66.45718 13.323V-13.323C66.45718-13.79266 66.83792-14.17339 67.30759-14.17339H123.55986C124.02953-14.17339 124.41026-13.79266 124.41026-13.323V13.323C124.41026 13.79266 124.02953 14.17339 123.55986 14.17339ZM66.45718-14.17339"/>
<use data-text="B" xlink:href="#font_1_1" transform="matrix(9.96264,0,0,-9.96264,123.325,35.271005)"/>
<use data-text="a" xlink:href="#font_1_5" transform="matrix(9.96264,0,0,-9.96264,129.97008,35.271005)"/>
<use data-text="s" xlink:href="#font_1_17" transform="matrix(9.96264,0,0,-9.96264,135.50931,35.271005)"/>
<use data-text="i" xlink:href="#font_1_10" transform="matrix(9.96264,0,0,-9.96264,140.49063,35.271005)"/>
<use data-text="c" xlink:href="#font_1_7" transform="matrix(9.96264,0,0,-9.96264,142.70233,35.271005)"/>
<use data-text="b" xlink:href="#font_1_6" transform="matrix(9.96264,0,0,-9.96264,150.45326,35.271005)"/>
<use data-text="l" xlink:href="#font_1_12" transform="matrix(9.96264,0,0,-9.96264,155.79325,35.271005)"/>
<use data-text="o" xlink:href="#font_1_14" transform="matrix(9.96264,0,0,-9.96264,158.00495,35.271005)"/>
<use data-text="c" xlink:href="#font_1_7" transform="matrix(9.96264,0,0,-9.96264,163.54418,35.271005)"/>
<use data-text="k" xlink:href="#font_1_11" transform="matrix(9.96264,0,0,-9.96264,168.32625,35.271005)"/>
<path transform="matrix(1,0,0,-1,52.883,31.779)" stroke-width=".79701" stroke-linecap="butt" stroke-miterlimit="10" stroke-linejoin="miter" fill="none" stroke="var(--color)" d="M57.95306 0V0H61.79471"/>
<path transform="matrix(1,0,0,-1,114.677707,31.779)" d="M4.66248 0C3.28098 .25902 1.0361 1.0361-.51805 1.94269V-1.94269C1.0361-1.0361 3.28098-.25902 4.66248 0" fill="var(--color)"/>
<path transform="matrix(1,0,0,-1,44.18,31.779)" stroke-width=".79701" stroke-linecap="butt" stroke-miterlimit="10" stroke-linejoin="miter" fill="none" stroke="var(--color)" d="M0 0V0H3.84164"/>
<path transform="matrix(1,0,0,-1,48.02164,31.779)" d="M4.66248 0C3.28098 .25902 1.0361 1.0361-.51805 1.94269V-1.94269C1.0361-1.0361 3.28098-.25902 4.66248 0" fill="var(--color)"/>
<path transform="matrix(1,0,0,-1,52.883,65.795)" d="M57.10266 14.17339H.85039C.38072 14.17339 0 13.79266 0 13.323V-13.323C0-13.79266 .38072-14.17339 .85039-14.17339H57.10266C57.57233-14.17339 57.95306-13.79266 57.95306-13.323V13.323C57.95306 13.79266 57.57233 14.17339 57.10266 14.17339ZM0-14.17339" fill="#7f807f"/>
<path transform="matrix(1,0,0,-1,52.883,65.795)" stroke-width=".3985" stroke-linecap="butt" stroke-miterlimit="10" stroke-linejoin="miter" fill="none" stroke="#262626" d="M57.10266 14.17339H.85039C.38072 14.17339 0 13.79266 0 13.323V-13.323C0-13.79266 .38072-14.17339 .85039-14.17339H57.10266C57.57233-14.17339 57.95306-13.79266 57.95306-13.323V13.323C57.95306 13.79266 57.57233 14.17339 57.10266 14.17339ZM0-14.17339"/>
<use data-text="B" xlink:href="#font_1_1" transform="matrix(9.96264,0,0,-9.96264,56.868,69.287)"/>
<use data-text="a" xlink:href="#font_1_5" transform="matrix(9.96264,0,0,-9.96264,63.51308,69.287)"/>
<use data-text="s" xlink:href="#font_1_17" transform="matrix(9.96264,0,0,-9.96264,69.05231,69.287)"/>
<use data-text="i" xlink:href="#font_1_10" transform="matrix(9.96264,0,0,-9.96264,74.03363,69.287)"/>
<use data-text="c" xlink:href="#font_1_7" transform="matrix(9.96264,0,0,-9.96264,76.24534,69.287)"/>
<use data-text="b" xlink:href="#font_1_6" transform="matrix(9.96264,0,0,-9.96264,83.99628,69.287)"/>
<use data-text="l" xlink:href="#font_1_12" transform="matrix(9.96264,0,0,-9.96264,89.33626,69.287)"/>
<use data-text="o" xlink:href="#font_1_14" transform="matrix(9.96264,0,0,-9.96264,91.547969,69.287)"/>
<use data-text="c" xlink:href="#font_1_7" transform="matrix(9.96264,0,0,-9.96264,97.0872,69.287)"/>
<use data-text="k" xlink:href="#font_1_11" transform="matrix(9.96264,0,0,-9.96264,101.86927,69.287)"/>
<path transform="matrix(1,0,0,-1,52.883,65.795)" d="M123.55986 14.17339H67.30759C66.83792 14.17339 66.45718 13.79266 66.45718 13.323V-13.323C66.45718-13.79266 66.83792-14.17339 67.30759-14.17339H123.55986C124.02953-14.17339 124.41026-13.79266 124.41026-13.323V13.323C124.41026 13.79266 124.02953 14.17339 123.55986 14.17339ZM66.45718-14.17339" fill="#7f807f"/>
<path transform="matrix(1,0,0,-1,52.883,65.795)" stroke-width=".3985" stroke-linecap="butt" stroke-miterlimit="10" stroke-linejoin="miter" fill="none" stroke="#262626" d="M123.55986 14.17339H67.30759C66.83792 14.17339 66.45718 13.79266 66.45718 13.323V-13.323C66.45718-13.79266 66.83792-14.17339 67.30759-14.17339H123.55986C124.02953-14.17339 124.41026-13.79266 124.41026-13.323V13.323C124.41026 13.79266 124.02953 14.17339 123.55986 14.17339ZM66.45718-14.17339"/>
<use data-text="B" xlink:href="#font_1_1" transform="matrix(9.96264,0,0,-9.96264,123.325,69.287)"/>
<use data-text="a" xlink:href="#font_1_5" transform="matrix(9.96264,0,0,-9.96264,129.97008,69.287)"/>
<use data-text="s" xlink:href="#font_1_17" transform="matrix(9.96264,0,0,-9.96264,135.50931,69.287)"/>
<use data-text="i" xlink:href="#font_1_10" transform="matrix(9.96264,0,0,-9.96264,140.49063,69.287)"/>
<use data-text="c" xlink:href="#font_1_7" transform="matrix(9.96264,0,0,-9.96264,142.70233,69.287)"/>
<use data-text="b" xlink:href="#font_1_6" transform="matrix(9.96264,0,0,-9.96264,150.45326,69.287)"/>
<use data-text="l" xlink:href="#font_1_12" transform="matrix(9.96264,0,0,-9.96264,155.79325,69.287)"/>
<use data-text="o" xlink:href="#font_1_14" transform="matrix(9.96264,0,0,-9.96264,158.00495,69.287)"/>
<use data-text="c" xlink:href="#font_1_7" transform="matrix(9.96264,0,0,-9.96264,163.54418,69.287)"/>
<use data-text="k" xlink:href="#font_1_11" transform="matrix(9.96264,0,0,-9.96264,168.32625,69.287)"/>
<path transform="matrix(1,0,0,-1,52.883,65.795)" stroke-width=".79701" stroke-linecap="butt" stroke-miterlimit="10" stroke-linejoin="miter" fill="none" stroke="var(--color)" d="M57.95306 0V0H61.79471"/>
<path transform="matrix(1,0,0,-1,114.677707,65.795)" d="M4.66248 0C3.28098 .25902 1.0361 1.0361-.51805 1.94269V-1.94269C1.0361-1.0361 3.28098-.25902 4.66248 0" fill="var(--color)"/>
<path transform="matrix(1,0,0,-1,44.18,31.779)" stroke-width=".79701" stroke-linecap="butt" stroke-miterlimit="10" stroke-linejoin="miter" fill="none" stroke="var(--color)" d="M0 0V0-34.0161H3.84164"/>
<path transform="matrix(1,0,0,-1,48.02164,65.795108)" d="M4.66248 0C3.28098 .25902 1.0361 1.0361-.51805 1.94269V-1.94269C1.0361-1.0361 3.28098-.25902 4.66248 0" fill="var(--color)"/>
<path transform="matrix(1,0,0,-1,52.883,99.81)" d="M57.10266 14.17339H.85039C.38072 14.17339 0 13.79266 0 13.323V-13.323C0-13.79266 .38072-14.17339 .85039-14.17339H57.10266C57.57233-14.17339 57.95306-13.79266 57.95306-13.323V13.323C57.95306 13.79266 57.57233 14.17339 57.10266 14.17339ZM0-14.17339" fill="#7f807f"/>
<path transform="matrix(1,0,0,-1,52.883,99.81)" stroke-width=".3985" stroke-linecap="butt" stroke-miterlimit="10" stroke-linejoin="miter" fill="none" stroke="#262626" d="M57.10266 14.17339H.85039C.38072 14.17339 0 13.79266 0 13.323V-13.323C0-13.79266 .38072-14.17339 .85039-14.17339H57.10266C57.57233-14.17339 57.95306-13.79266 57.95306-13.323V13.323C57.95306 13.79266 57.57233 14.17339 57.10266 14.17339ZM0-14.17339"/>
<use data-text="B" xlink:href="#font_1_1" transform="matrix(9.96264,0,0,-9.96264,56.868,103.301998)"/>
<use data-text="a" xlink:href="#font_1_5" transform="matrix(9.96264,0,0,-9.96264,63.51308,103.301998)"/>
<use data-text="s" xlink:href="#font_1_17" transform="matrix(9.96264,0,0,-9.96264,69.05231,103.301998)"/>
<use data-text="i" xlink:href="#font_1_10" transform="matrix(9.96264,0,0,-9.96264,74.03363,103.301998)"/>
<use data-text="c" xlink:href="#font_1_7" transform="matrix(9.96264,0,0,-9.96264,76.24534,103.301998)"/>
<use data-text="b" xlink:href="#font_1_6" transform="matrix(9.96264,0,0,-9.96264,83.99628,103.301998)"/>
<use data-text="l" xlink:href="#font_1_12" transform="matrix(9.96264,0,0,-9.96264,89.33626,103.301998)"/>
<use data-text="o" xlink:href="#font_1_14" transform="matrix(9.96264,0,0,-9.96264,91.547969,103.301998)"/>
<use data-text="c" xlink:href="#font_1_7" transform="matrix(9.96264,0,0,-9.96264,97.0872,103.301998)"/>
<use data-text="k" xlink:href="#font_1_11" transform="matrix(9.96264,0,0,-9.96264,101.86927,103.301998)"/>
<path transform="matrix(1,0,0,-1,52.883,99.81)" d="M123.55986 14.17339H67.30759C66.83792 14.17339 66.45718 13.79266 66.45718 13.323V-13.323C66.45718-13.79266 66.83792-14.17339 67.30759-14.17339H123.55986C124.02953-14.17339 124.41026-13.79266 124.41026-13.323V13.323C124.41026 13.79266 124.02953 14.17339 123.55986 14.17339ZM66.45718-14.17339" fill="#7f807f"/>
<path transform="matrix(1,0,0,-1,52.883,99.81)" stroke-width=".3985" stroke-linecap="butt" stroke-miterlimit="10" stroke-linejoin="miter" fill="none" stroke="#262626" d="M123.55986 14.17339H67.30759C66.83792 14.17339 66.45718 13.79266 66.45718 13.323V-13.323C66.45718-13.79266 66.83792-14.17339 67.30759-14.17339H123.55986C124.02953-14.17339 124.41026-13.79266 124.41026-13.323V13.323C124.41026 13.79266 124.02953 14.17339 123.55986 14.17339ZM66.45718-14.17339"/>
<use data-text="B" xlink:href="#font_1_1" transform="matrix(9.96264,0,0,-9.96264,123.325,103.301998)"/>
<use data-text="a" xlink:href="#font_1_5" transform="matrix(9.96264,0,0,-9.96264,129.97008,103.301998)"/>
<use data-text="s" xlink:href="#font_1_17" transform="matrix(9.96264,0,0,-9.96264,135.50931,103.301998)"/>
<use data-text="i" xlink:href="#font_1_10" transform="matrix(9.96264,0,0,-9.96264,140.49063,103.301998)"/>
<use data-text="c" xlink:href="#font_1_7" transform="matrix(9.96264,0,0,-9.96264,142.70233,103.301998)"/>
<use data-text="b" xlink:href="#font_1_6" transform="matrix(9.96264,0,0,-9.96264,150.45326,103.301998)"/>
<use data-text="l" xlink:href="#font_1_12" transform="matrix(9.96264,0,0,-9.96264,155.79325,103.301998)"/>
<use data-text="o" xlink:href="#font_1_14" transform="matrix(9.96264,0,0,-9.96264,158.00495,103.301998)"/>
<use data-text="c" xlink:href="#font_1_7" transform="matrix(9.96264,0,0,-9.96264,163.54418,103.301998)"/>
<use data-text="k" xlink:href="#font_1_11" transform="matrix(9.96264,0,0,-9.96264,168.32625,103.301998)"/>
<path transform="matrix(1,0,0,-1,52.883,99.81)" stroke-width=".79701" stroke-linecap="butt" stroke-miterlimit="10" stroke-linejoin="miter" fill="none" stroke="var(--color)" d="M57.95306 0V0H61.79471"/>
<path transform="matrix(1,0,0,-1,114.677707,99.81)" d="M4.66248 0C3.28098 .25902 1.0361 1.0361-.51805 1.94269V-1.94269C1.0361-1.0361 3.28098-.25902 4.66248 0" fill="var(--color)"/>
<path transform="matrix(1,0,0,-1,44.18,31.779)" stroke-width=".79701" stroke-linecap="butt" stroke-miterlimit="10" stroke-linejoin="miter" fill="none" stroke="var(--color)" d="M0 0V0-68.0322H3.84164"/>
<path transform="matrix(1,0,0,-1,48.02164,99.8112)" d="M4.66248 0C3.28098 .25902 1.0361 1.0361-.51805 1.94269V-1.94269C1.0361-1.0361 3.28098-.25902 4.66248 0" fill="var(--color)"/>
<path transform="matrix(1,0,0,-1,44.18,31.779)" stroke-width=".79701" stroke-linecap="butt" stroke-miterlimit="10" stroke-linejoin="miter" fill="none" stroke="var(--color)" d="M133.31288 0H139.69107V-34.0161H133.31288"/>
<path transform="matrix(1,0,0,-1,44.18,31.779)" stroke-width=".79701" stroke-linecap="butt" stroke-miterlimit="10" stroke-linejoin="miter" fill="none" stroke="var(--color)" d="M133.31288 0H139.69107V-68.0322H133.31288"/>
<path transform="matrix(1,0,0,-1,44.18,31.779)" stroke-width=".79701" stroke-linecap="butt" stroke-miterlimit="10" stroke-linejoin="miter" fill="none" stroke="var(--color)" d="M133.31288-34.0161H139.69107V-68.0322H133.31288"/>
<path transform="matrix(1,0,0,-1,.199,65.795)" stroke-width=".79701" stroke-linecap="butt" stroke-miterlimit="10" stroke-linejoin="miter" fill="none" stroke="var(--color)" d="M29.40959 0H43.583"/>
<path transform="matrix(1,0,0,-1,.199,65.795)" d="M40.74832 51.2234V65.3968H186.90573V51.2234ZM186.90573 65.3968" fill="#ffbf80"/>
<path transform="matrix(1,0,0,-1,.199,65.795)" stroke-width=".79701" stroke-linecap="butt" stroke-miterlimit="10" stroke-linejoin="miter" fill="none" stroke="#ff8000" d="M40.74832 51.2234V65.3968H186.90573V51.2234ZM186.90573 65.3968"/>
<use data-text="G" xlink:href="#font_1_3" transform="matrix(9.96264,0,0,-9.96264,100.182,10.100998)"/>
<use data-text="r" xlink:href="#font_1_16" transform="matrix(9.96264,0,0,-9.96264,107.93293,10.100998)"/>
<use data-text="o" xlink:href="#font_1_14" transform="matrix(9.96264,0,0,-9.96264,111.25049,10.100998)"/>
<use data-text="u" xlink:href="#font_1_19" transform="matrix(9.96264,0,0,-9.96264,116.78972,10.100998)"/>
<use data-text="p" xlink:href="#font_1_15" transform="matrix(9.96264,0,0,-9.96264,122.32895,10.100998)"/>
<path transform="matrix(1,0,0,-1,198.64002,65.795)" d="M57.10266 14.17339H.85039C.38072 14.17339 0 13.79266 0 13.323V-13.323C0-13.79266 .38072-14.17339 .85039-14.17339H57.10266C57.57233-14.17339 57.95306-13.79266 57.95306-13.323V13.323C57.95306 13.79266 57.57233 14.17339 57.10266 14.17339ZM0-14.17339" fill="#7f807f"/>
<path transform="matrix(1,0,0,-1,198.64002,65.795)" stroke-width=".3985" stroke-linecap="butt" stroke-miterlimit="10" stroke-linejoin="miter" fill="none" stroke="#262626" d="M57.10266 14.17339H.85039C.38072 14.17339 0 13.79266 0 13.323V-13.323C0-13.79266 .38072-14.17339 .85039-14.17339H57.10266C57.57233-14.17339 57.95306-13.79266 57.95306-13.323V13.323C57.95306 13.79266 57.57233 14.17339 57.10266 14.17339ZM0-14.17339"/>
<use data-text="B" xlink:href="#font_1_1" transform="matrix(9.96264,0,0,-9.96264,202.62502,69.287)"/>
<use data-text="a" xlink:href="#font_1_5" transform="matrix(9.96264,0,0,-9.96264,209.2701,69.287)"/>
<use data-text="s" xlink:href="#font_1_17" transform="matrix(9.96264,0,0,-9.96264,214.80933,69.287)"/>
<use data-text="i" xlink:href="#font_1_10" transform="matrix(9.96264,0,0,-9.96264,219.79065,69.287)"/>
<use data-text="c" xlink:href="#font_1_7" transform="matrix(9.96264,0,0,-9.96264,222.00235,69.287)"/>
<use data-text="b" xlink:href="#font_1_6" transform="matrix(9.96264,0,0,-9.96264,229.75328,69.287)"/>
<use data-text="l" xlink:href="#font_1_12" transform="matrix(9.96264,0,0,-9.96264,235.09326,69.287)"/>
<use data-text="o" xlink:href="#font_1_14" transform="matrix(9.96264,0,0,-9.96264,237.30496,69.287)"/>
<use data-text="c" xlink:href="#font_1_7" transform="matrix(9.96264,0,0,-9.96264,242.8442,69.287)"/>
<use data-text="k" xlink:href="#font_1_11" transform="matrix(9.96264,0,0,-9.96264,247.62627,69.287)"/>
<path transform="matrix(1,0,0,-1,265.49504,48.786996)" d="M65.6068 14.17339H9.3545C8.88484 14.17339 8.50412 13.79266 8.50412 13.323V-13.323C8.50412-13.79266 8.88484-14.17339 9.3545-14.17339H65.6068C66.07646-14.17339 66.45718-13.79266 66.45718-13.323V13.323C66.45718 13.79266 66.07646 14.17339 65.6068 14.17339ZM8.50412-14.17339" fill="#7f807f"/>
<path transform="matrix(1,0,0,-1,265.49504,48.786996)" stroke-width=".3985" stroke-linecap="butt" stroke-miterlimit="10" stroke-linejoin="miter" fill="none" stroke="#262626" d="M65.6068 14.17339H9.3545C8.88484 14.17339 8.50412 13.79266 8.50412 13.323V-13.323C8.50412-13.79266 8.88484-14.17339 9.3545-14.17339H65.6068C66.07646-14.17339 66.45718-13.79266 66.45718-13.323V13.323C66.45718 13.79266 66.07646 14.17339 65.6068 14.17339ZM8.50412-14.17339"/>
<use data-text="B" xlink:href="#font_1_1" transform="matrix(9.96264,0,0,-9.96264,277.98405,52.279)"/>
<use data-text="a" xlink:href="#font_1_5" transform="matrix(9.96264,0,0,-9.96264,284.62913,52.279)"/>
<use data-text="s" xlink:href="#font_1_17" transform="matrix(9.96264,0,0,-9.96264,290.16835,52.279)"/>
<use data-text="i" xlink:href="#font_1_10" transform="matrix(9.96264,0,0,-9.96264,295.14967,52.279)"/>
<use data-text="c" xlink:href="#font_1_7" transform="matrix(9.96264,0,0,-9.96264,297.36137,52.279)"/>
<use data-text="b" xlink:href="#font_1_6" transform="matrix(9.96264,0,0,-9.96264,305.1123,52.279)"/>
<use data-text="l" xlink:href="#font_1_12" transform="matrix(9.96264,0,0,-9.96264,310.45228,52.279)"/>
<use data-text="o" xlink:href="#font_1_14" transform="matrix(9.96264,0,0,-9.96264,312.66398,52.279)"/>
<use data-text="c" xlink:href="#font_1_7" transform="matrix(9.96264,0,0,-9.96264,318.2032,52.279)"/>
<use data-text="k" xlink:href="#font_1_11" transform="matrix(9.96264,0,0,-9.96264,322.98527,52.279)"/>
<path transform="matrix(1,0,0,-1,265.49504,48.786996)" stroke-width=".79701" stroke-linecap="butt" stroke-miterlimit="10" stroke-linejoin="miter" fill="none" stroke="var(--color)" d="M0 0V0H3.84164"/>
<path transform="matrix(1,0,0,-1,269.33668,48.786996)" d="M4.66248 0C3.28098 .25902 1.0361 1.0361-.51805 1.94269V-1.94269C1.0361-1.0361 3.28098-.25902 4.66248 0" fill="var(--color)"/>
<path transform="matrix(1,0,0,-1,265.49504,48.786996)" d="M65.6068-19.8427H9.3545C8.88484-19.8427 8.50412-20.22343 8.50412-20.6931V-47.3391C8.50412-47.80876 8.88484-48.18948 9.3545-48.18948H65.6068C66.07646-48.18948 66.45718-47.80876 66.45718-47.3391V-20.6931C66.45718-20.22343 66.07646-19.8427 65.6068-19.8427ZM8.50412-48.18948" fill="#7f807f"/>
<path transform="matrix(1,0,0,-1,265.49504,48.786996)" stroke-width=".3985" stroke-linecap="butt" stroke-miterlimit="10" stroke-linejoin="miter" fill="none" stroke="#262626" d="M65.6068-19.8427H9.3545C8.88484-19.8427 8.50412-20.22343 8.50412-20.6931V-47.3391C8.50412-47.80876 8.88484-48.18948 9.3545-48.18948H65.6068C66.07646-48.18948 66.45718-47.80876 66.45718-47.3391V-20.6931C66.45718-20.22343 66.07646-19.8427 65.6068-19.8427ZM8.50412-48.18948"/>
<use data-text="B" xlink:href="#font_1_1" transform="matrix(9.96264,0,0,-9.96264,277.98405,86.29399)"/>
<use data-text="a" xlink:href="#font_1_5" transform="matrix(9.96264,0,0,-9.96264,284.62913,86.29399)"/>
<use data-text="s" xlink:href="#font_1_17" transform="matrix(9.96264,0,0,-9.96264,290.16835,86.29399)"/>
<use data-text="i" xlink:href="#font_1_10" transform="matrix(9.96264,0,0,-9.96264,295.14967,86.29399)"/>
<use data-text="c" xlink:href="#font_1_7" transform="matrix(9.96264,0,0,-9.96264,297.36137,86.29399)"/>
<use data-text="b" xlink:href="#font_1_6" transform="matrix(9.96264,0,0,-9.96264,305.1123,86.29399)"/>
<use data-text="l" xlink:href="#font_1_12" transform="matrix(9.96264,0,0,-9.96264,310.45228,86.29399)"/>
<use data-text="o" xlink:href="#font_1_14" transform="matrix(9.96264,0,0,-9.96264,312.66398,86.29399)"/>
<use data-text="c" xlink:href="#font_1_7" transform="matrix(9.96264,0,0,-9.96264,318.2032,86.29399)"/>
<use data-text="k" xlink:href="#font_1_11" transform="matrix(9.96264,0,0,-9.96264,322.98527,86.29399)"/>
<path transform="matrix(1,0,0,-1,265.49504,48.786996)" stroke-width=".79701" stroke-linecap="butt" stroke-miterlimit="10" stroke-linejoin="miter" fill="none" stroke="var(--color)" d="M0 0V0-34.0161H3.84164"/>
<path transform="matrix(1,0,0,-1,269.33668,82.8031)" d="M4.66248 0C3.28098 .25902 1.0361 1.0361-.51805 1.94269V-1.94269C1.0361-1.0361 3.28098-.25902 4.66248 0" fill="var(--color)"/>
<path transform="matrix(1,0,0,-1,265.49504,48.786996)" stroke-width=".79701" stroke-linecap="butt" stroke-miterlimit="10" stroke-linejoin="miter" fill="none" stroke="var(--color)" d="M66.45718 0H72.83539V-34.0161H66.45718"/>
<path transform="matrix(1,0,0,-1,198.64002,65.795)" stroke-width=".79701" stroke-linecap="butt" stroke-miterlimit="10" stroke-linejoin="miter" fill="none" stroke="var(--color)" d="M57.95306 0H66.45718"/>
<path transform="matrix(1,0,0,-1,.199,65.795)" stroke-width=".79701" stroke-linecap="butt" stroke-miterlimit="10" stroke-linejoin="miter" fill="none" stroke="var(--color)" d="M184.07106 0H191.15776 193.58199"/>
<path transform="matrix(1,0,0,-1,193.78099,65.795)" d="M4.66248 0C3.28098 .25902 1.0361 1.0361-.51805 1.94269V-1.94269C1.0361-1.0361 3.28098-.25902 4.66248 0" fill="var(--color)"/>
<path transform="matrix(1,0,0,-1,.199,65.795)" d="M191.15778 34.21536V48.38876H341.36799V34.21536ZM341.36799 48.38876" fill="#ff8080"/>
<path transform="matrix(1,0,0,-1,.199,65.795)" stroke-width=".79701" stroke-linecap="butt" stroke-miterlimit="10" stroke-linejoin="miter" fill="none" stroke="#ff0000" d="M191.15778 34.21536V48.38876H341.36799V34.21536ZM341.36799 48.38876"/>
<use data-text="S" xlink:href="#font_1_4" transform="matrix(9.96264,0,0,-9.96264,254.393,28.055)"/>
<use data-text="e" xlink:href="#font_1_9" transform="matrix(9.96264,0,0,-9.96264,261.0381,28.055)"/>
<use data-text="r" xlink:href="#font_1_16" transform="matrix(9.96264,0,0,-9.96264,266.5773,28.055)"/>
<use data-text="i" xlink:href="#font_1_10" transform="matrix(9.96264,0,0,-9.96264,270.0443,28.055)"/>
<use data-text="e" xlink:href="#font_1_9" transform="matrix(9.96264,0,0,-9.96264,272.256,28.055)"/>
<use data-text="s" xlink:href="#font_1_17" transform="matrix(9.96264,0,0,-9.96264,277.79524,28.055)"/>
<path transform="matrix(1,0,0,-1,353.3,48.786996)" d="M65.6068 14.17339H9.3545C8.88484 14.17339 8.50412 13.79266 8.50412 13.323V-13.323C8.50412-13.79266 8.88484-14.17339 9.3545-14.17339H65.6068C66.07646-14.17339 66.45718-13.79266 66.45718-13.323V13.323C66.45718 13.79266 66.07646 14.17339 65.6068 14.17339ZM8.50412-14.17339" fill="#7f807f"/>
<path transform="matrix(1,0,0,-1,353.3,48.786996)" stroke-width=".3985" stroke-linecap="butt" stroke-miterlimit="10" stroke-linejoin="miter" fill="none" stroke="#262626" d="M65.6068 14.17339H9.3545C8.88484 14.17339 8.50412 13.79266 8.50412 13.323V-13.323C8.50412-13.79266 8.88484-14.17339 9.3545-14.17339H65.6068C66.07646-14.17339 66.45718-13.79266 66.45718-13.323V13.323C66.45718 13.79266 66.07646 14.17339 65.6068 14.17339ZM8.50412-14.17339"/>
<use data-text="B" xlink:href="#font_1_1" transform="matrix(9.96264,0,0,-9.96264,365.789,52.279)"/>
<use data-text="a" xlink:href="#font_1_5" transform="matrix(9.96264,0,0,-9.96264,372.43409,52.279)"/>
<use data-text="s" xlink:href="#font_1_17" transform="matrix(9.96264,0,0,-9.96264,377.9733,52.279)"/>
<use data-text="i" xlink:href="#font_1_10" transform="matrix(9.96264,0,0,-9.96264,382.95463,52.279)"/>
<use data-text="c" xlink:href="#font_1_7" transform="matrix(9.96264,0,0,-9.96264,385.16633,52.279)"/>
<use data-text="b" xlink:href="#font_1_6" transform="matrix(9.96264,0,0,-9.96264,392.91728,52.279)"/>
<use data-text="l" xlink:href="#font_1_12" transform="matrix(9.96264,0,0,-9.96264,398.25724,52.279)"/>
<use data-text="o" xlink:href="#font_1_14" transform="matrix(9.96264,0,0,-9.96264,400.46894,52.279)"/>
<use data-text="c" xlink:href="#font_1_7" transform="matrix(9.96264,0,0,-9.96264,406.00816,52.279)"/>
<use data-text="k" xlink:href="#font_1_11" transform="matrix(9.96264,0,0,-9.96264,410.79023,52.279)"/>
<path transform="matrix(1,0,0,-1,353.3,48.786996)" stroke-width=".79701" stroke-linecap="butt" stroke-miterlimit="10" stroke-linejoin="miter" fill="none" stroke="var(--color)" d="M0 0V0H3.84164"/>
<path transform="matrix(1,0,0,-1,357.14164,48.786996)" d="M4.66248 0C3.28098 .25902 1.0361 1.0361-.51805 1.94269V-1.94269C1.0361-1.0361 3.28098-.25902 4.66248 0" fill="var(--color)"/>
<path transform="matrix(1,0,0,-1,353.3,48.786996)" d="M65.6068-19.8427H9.3545C8.88484-19.8427 8.50412-20.22343 8.50412-20.6931V-47.3391C8.50412-47.80876 8.88484-48.18948 9.3545-48.18948H65.6068C66.07646-48.18948 66.45718-47.80876 66.45718-47.3391V-20.6931C66.45718-20.22343 66.07646-19.8427 65.6068-19.8427ZM8.50412-48.18948" fill="#7f807f"/>
<path transform="matrix(1,0,0,-1,353.3,48.786996)" stroke-width=".3985" stroke-linecap="butt" stroke-miterlimit="10" stroke-linejoin="miter" fill="none" stroke="#262626" d="M65.6068-19.8427H9.3545C8.88484-19.8427 8.50412-20.22343 8.50412-20.6931V-47.3391C8.50412-47.80876 8.88484-48.18948 9.3545-48.18948H65.6068C66.07646-48.18948 66.45718-47.80876 66.45718-47.3391V-20.6931C66.45718-20.22343 66.07646-19.8427 65.6068-19.8427ZM8.50412-48.18948"/>
<use data-text="B" xlink:href="#font_1_1" transform="matrix(9.96264,0,0,-9.96264,365.789,86.29399)"/>
<use data-text="a" xlink:href="#font_1_5" transform="matrix(9.96264,0,0,-9.96264,372.43409,86.29399)"/>
<use data-text="s" xlink:href="#font_1_17" transform="matrix(9.96264,0,0,-9.96264,377.9733,86.29399)"/>
<use data-text="i" xlink:href="#font_1_10" transform="matrix(9.96264,0,0,-9.96264,382.95463,86.29399)"/>
<use data-text="c" xlink:href="#font_1_7" transform="matrix(9.96264,0,0,-9.96264,385.16633,86.29399)"/>
<use data-text="b" xlink:href="#font_1_6" transform="matrix(9.96264,0,0,-9.96264,392.91728,86.29399)"/>
<use data-text="l" xlink:href="#font_1_12" transform="matrix(9.96264,0,0,-9.96264,398.25724,86.29399)"/>
<use data-text="o" xlink:href="#font_1_14" transform="matrix(9.96264,0,0,-9.96264,400.46894,86.29399)"/>
<use data-text="c" xlink:href="#font_1_7" transform="matrix(9.96264,0,0,-9.96264,406.00816,86.29399)"/>
<use data-text="k" xlink:href="#font_1_11" transform="matrix(9.96264,0,0,-9.96264,410.79023,86.29399)"/>
<path transform="matrix(1,0,0,-1,353.3,48.786996)" stroke-width=".79701" stroke-linecap="butt" stroke-miterlimit="10" stroke-linejoin="miter" fill="none" stroke="var(--color)" d="M0 0V0-34.0161H3.84164"/>
<path transform="matrix(1,0,0,-1,357.14164,82.8031)" d="M4.66248 0C3.28098 .25902 1.0361 1.0361-.51805 1.94269V-1.94269C1.0361-1.0361 3.28098-.25902 4.66248 0" fill="var(--color)"/>
<path transform="matrix(1,0,0,-1,353.3,48.786996)" stroke-width=".79701" stroke-linecap="butt" stroke-miterlimit="10" stroke-linejoin="miter" fill="none" stroke="var(--color)" d="M66.45718 0H72.83539V-34.0161H66.45718"/>
<path transform="matrix(1,0,0,-1,352.901,65.795)" d="M139.23918 14.17339H82.98691C82.51724 14.17339 82.1365 13.79266 82.1365 13.323V-13.323C82.1365-13.79266 82.51724-14.17339 82.98691-14.17339H139.23918C139.70885-14.17339 140.08959-13.79266 140.08959-13.323V13.323C140.08959 13.79266 139.70885 14.17339 139.23918 14.17339ZM82.1365-14.17339" fill="#7f807f"/>
<path transform="matrix(1,0,0,-1,352.901,65.795)" stroke-width=".3985" stroke-linecap="butt" stroke-miterlimit="10" stroke-linejoin="miter" fill="none" stroke="#262626" d="M139.23918 14.17339H82.98691C82.51724 14.17339 82.1365 13.79266 82.1365 13.323V-13.323C82.1365-13.79266 82.51724-14.17339 82.98691-14.17339H139.23918C139.70885-14.17339 140.08959-13.79266 140.08959-13.323V13.323C140.08959 13.79266 139.70885 14.17339 139.23918 14.17339ZM82.1365-14.17339"/>
<use data-text="B" xlink:href="#font_1_1" transform="matrix(9.96264,0,0,-9.96264,439.022,69.287)"/>
<use data-text="a" xlink:href="#font_1_5" transform="matrix(9.96264,0,0,-9.96264,445.66709,69.287)"/>
<use data-text="s" xlink:href="#font_1_17" transform="matrix(9.96264,0,0,-9.96264,451.2063,69.287)"/>
<use data-text="i" xlink:href="#font_1_10" transform="matrix(9.96264,0,0,-9.96264,456.18763,69.287)"/>
<use data-text="c" xlink:href="#font_1_7" transform="matrix(9.96264,0,0,-9.96264,458.39933,69.287)"/>
<use data-text="b" xlink:href="#font_1_6" transform="matrix(9.96264,0,0,-9.96264,466.15028,69.287)"/>
<use data-text="l" xlink:href="#font_1_12" transform="matrix(9.96264,0,0,-9.96264,471.49024,69.287)"/>
<use data-text="o" xlink:href="#font_1_14" transform="matrix(9.96264,0,0,-9.96264,473.70195,69.287)"/>
<use data-text="c" xlink:href="#font_1_7" transform="matrix(9.96264,0,0,-9.96264,479.24116,69.287)"/>
<use data-text="k" xlink:href="#font_1_11" transform="matrix(9.96264,0,0,-9.96264,484.02323,69.287)"/>
<path transform="matrix(1,0,0,-1,352.901,65.795)" stroke-width=".79701" stroke-linecap="butt" stroke-miterlimit="10" stroke-linejoin="miter" fill="none" stroke="var(--color)" d="M73.63239 0H80.71907 77.47403"/>
<path transform="matrix(1,0,0,-1,430.37504,65.795)" d="M4.66248 0C3.28098 .25902 1.0361 1.0361-.51805 1.94269V-1.94269C1.0361-1.0361 3.28098-.25902 4.66248 0" fill="var(--color)"/>
<path transform="matrix(1,0,0,-1,510.59498,31.779)" d="M57.10266 14.17339H.85039C.38072 14.17339 0 13.79266 0 13.323V-13.323C0-13.79266 .38072-14.17339 .85039-14.17339H57.10266C57.57233-14.17339 57.95306-13.79266 57.95306-13.323V13.323C57.95306 13.79266 57.57233 14.17339 57.10266 14.17339ZM0-14.17339" fill="#7f807f"/>
<path transform="matrix(1,0,0,-1,510.59498,31.779)" stroke-width=".3985" stroke-linecap="butt" stroke-miterlimit="10" stroke-linejoin="miter" fill="none" stroke="#262626" d="M57.10266 14.17339H.85039C.38072 14.17339 0 13.79266 0 13.323V-13.323C0-13.79266 .38072-14.17339 .85039-14.17339H57.10266C57.57233-14.17339 57.95306-13.79266 57.95306-13.323V13.323C57.95306 13.79266 57.57233 14.17339 57.10266 14.17339ZM0-14.17339"/>
<use data-text="B" xlink:href="#font_1_1" transform="matrix(9.96264,0,0,-9.96264,514.57998,35.271005)"/>
<use data-text="a" xlink:href="#font_1_5" transform="matrix(9.96264,0,0,-9.96264,521.22506,35.271005)"/>
<use data-text="s" xlink:href="#font_1_17" transform="matrix(9.96264,0,0,-9.96264,526.7643,35.271005)"/>
<use data-text="i" xlink:href="#font_1_10" transform="matrix(9.96264,0,0,-9.96264,531.7456,35.271005)"/>
<use data-text="c" xlink:href="#font_1_7" transform="matrix(9.96264,0,0,-9.96264,533.95736,35.271005)"/>
<use data-text="b" xlink:href="#font_1_6" transform="matrix(9.96264,0,0,-9.96264,541.70828,35.271005)"/>
<use data-text="l" xlink:href="#font_1_12" transform="matrix(9.96264,0,0,-9.96264,547.0482,35.271005)"/>
<use data-text="o" xlink:href="#font_1_14" transform="matrix(9.96264,0,0,-9.96264,549.25997,35.271005)"/>
<use data-text="c" xlink:href="#font_1_7" transform="matrix(9.96264,0,0,-9.96264,554.7992,35.271005)"/>
<use data-text="k" xlink:href="#font_1_11" transform="matrix(9.96264,0,0,-9.96264,559.58126,35.271005)"/>
<path transform="matrix(1,0,0,-1,510.59498,31.779)" d="M123.55986 14.17339H67.30759C66.83792 14.17339 66.45718 13.79266 66.45718 13.323V-13.323C66.45718-13.79266 66.83792-14.17339 67.30759-14.17339H123.55986C124.02953-14.17339 124.41026-13.79266 124.41026-13.323V13.323C124.41026 13.79266 124.02953 14.17339 123.55986 14.17339ZM66.45718-14.17339" fill="#7f807f"/>
<path transform="matrix(1,0,0,-1,510.59498,31.779)" stroke-width=".3985" stroke-linecap="butt" stroke-miterlimit="10" stroke-linejoin="miter" fill="none" stroke="#262626" d="M123.55986 14.17339H67.30759C66.83792 14.17339 66.45718 13.79266 66.45718 13.323V-13.323C66.45718-13.79266 66.83792-14.17339 67.30759-14.17339H123.55986C124.02953-14.17339 124.41026-13.79266 124.41026-13.323V13.323C124.41026 13.79266 124.02953 14.17339 123.55986 14.17339ZM66.45718-14.17339"/>
<use data-text="B" xlink:href="#font_1_1" transform="matrix(9.96264,0,0,-9.96264,581.03598,35.271005)"/>
<use data-text="a" xlink:href="#font_1_5" transform="matrix(9.96264,0,0,-9.96264,587.681,35.271005)"/>
<use data-text="s" xlink:href="#font_1_17" transform="matrix(9.96264,0,0,-9.96264,593.2203,35.271005)"/>
<use data-text="i" xlink:href="#font_1_10" transform="matrix(9.96264,0,0,-9.96264,598.2016,35.271005)"/>
<use data-text="c" xlink:href="#font_1_7" transform="matrix(9.96264,0,0,-9.96264,600.4133,35.271005)"/>
<use data-text="b" xlink:href="#font_1_6" transform="matrix(9.96264,0,0,-9.96264,608.16427,35.271005)"/>
<use data-text="l" xlink:href="#font_1_12" transform="matrix(9.96264,0,0,-9.96264,613.5042,35.271005)"/>
<use data-text="o" xlink:href="#font_1_14" transform="matrix(9.96264,0,0,-9.96264,615.71597,35.271005)"/>
<use data-text="c" xlink:href="#font_1_7" transform="matrix(9.96264,0,0,-9.96264,621.2552,35.271005)"/>
<use data-text="k" xlink:href="#font_1_11" transform="matrix(9.96264,0,0,-9.96264,626.03726,35.271005)"/>
<path transform="matrix(1,0,0,-1,510.59498,31.779)" stroke-width=".79701" stroke-linecap="butt" stroke-miterlimit="10" stroke-linejoin="miter" fill="none" stroke="var(--color)" d="M57.95306 0V0H61.79471"/>
<path transform="matrix(1,0,0,-1,572.38967,31.779)" d="M4.66248 0C3.28098 .25902 1.0361 1.0361-.51805 1.94269V-1.94269C1.0361-1.0361 3.28098-.25902 4.66248 0" fill="var(--color)"/>
<path transform="matrix(1,0,0,-1,501.89198,31.779)" stroke-width=".79701" stroke-linecap="butt" stroke-miterlimit="10" stroke-linejoin="miter" fill="none" stroke="var(--color)" d="M0 0V0H3.84164"/>
<path transform="matrix(1,0,0,-1,505.7336,31.779)" d="M4.66248 0C3.28098 .25902 1.0361 1.0361-.51805 1.94269V-1.94269C1.0361-1.0361 3.28098-.25902 4.66248 0" fill="var(--color)"/>
<path transform="matrix(1,0,0,-1,510.59498,65.795)" d="M57.10266 14.17339H.85039C.38072 14.17339 0 13.79266 0 13.323V-13.323C0-13.79266 .38072-14.17339 .85039-14.17339H57.10266C57.57233-14.17339 57.95306-13.79266 57.95306-13.323V13.323C57.95306 13.79266 57.57233 14.17339 57.10266 14.17339ZM0-14.17339" fill="#7f807f"/>
<path transform="matrix(1,0,0,-1,510.59498,65.795)" stroke-width=".3985" stroke-linecap="butt" stroke-miterlimit="10" stroke-linejoin="miter" fill="none" stroke="#262626" d="M57.10266 14.17339H.85039C.38072 14.17339 0 13.79266 0 13.323V-13.323C0-13.79266 .38072-14.17339 .85039-14.17339H57.10266C57.57233-14.17339 57.95306-13.79266 57.95306-13.323V13.323C57.95306 13.79266 57.57233 14.17339 57.10266 14.17339ZM0-14.17339"/>
<use data-text="B" xlink:href="#font_1_1" transform="matrix(9.96264,0,0,-9.96264,514.57998,69.287)"/>
<use data-text="a" xlink:href="#font_1_5" transform="matrix(9.96264,0,0,-9.96264,521.22506,69.287)"/>
<use data-text="s" xlink:href="#font_1_17" transform="matrix(9.96264,0,0,-9.96264,526.7643,69.287)"/>
<use data-text="i" xlink:href="#font_1_10" transform="matrix(9.96264,0,0,-9.96264,531.7456,69.287)"/>
<use data-text="c" xlink:href="#font_1_7" transform="matrix(9.96264,0,0,-9.96264,533.95736,69.287)"/>
<use data-text="b" xlink:href="#font_1_6" transform="matrix(9.96264,0,0,-9.96264,541.70828,69.287)"/>
<use data-text="l" xlink:href="#font_1_12" transform="matrix(9.96264,0,0,-9.96264,547.0482,69.287)"/>
<use data-text="o" xlink:href="#font_1_14" transform="matrix(9.96264,0,0,-9.96264,549.25997,69.287)"/>
<use data-text="c" xlink:href="#font_1_7" transform="matrix(9.96264,0,0,-9.96264,554.7992,69.287)"/>
<use data-text="k" xlink:href="#font_1_11" transform="matrix(9.96264,0,0,-9.96264,559.58126,69.287)"/>
<path transform="matrix(1,0,0,-1,510.59498,65.795)" d="M123.55986 14.17339H67.30759C66.83792 14.17339 66.45718 13.79266 66.45718 13.323V-13.323C66.45718-13.79266 66.83792-14.17339 67.30759-14.17339H123.55986C124.02953-14.17339 124.41026-13.79266 124.41026-13.323V13.323C124.41026 13.79266 124.02953 14.17339 123.55986 14.17339ZM66.45718-14.17339" fill="#7f807f"/>
<path transform="matrix(1,0,0,-1,510.59498,65.795)" stroke-width=".3985" stroke-linecap="butt" stroke-miterlimit="10" stroke-linejoin="miter" fill="none" stroke="#262626" d="M123.55986 14.17339H67.30759C66.83792 14.17339 66.45718 13.79266 66.45718 13.323V-13.323C66.45718-13.79266 66.83792-14.17339 67.30759-14.17339H123.55986C124.02953-14.17339 124.41026-13.79266 124.41026-13.323V13.323C124.41026 13.79266 124.02953 14.17339 123.55986 14.17339ZM66.45718-14.17339"/>
<use data-text="B" xlink:href="#font_1_1" transform="matrix(9.96264,0,0,-9.96264,581.03598,69.287)"/>
<use data-text="a" xlink:href="#font_1_5" transform="matrix(9.96264,0,0,-9.96264,587.681,69.287)"/>
<use data-text="s" xlink:href="#font_1_17" transform="matrix(9.96264,0,0,-9.96264,593.2203,69.287)"/>
<use data-text="i" xlink:href="#font_1_10" transform="matrix(9.96264,0,0,-9.96264,598.2016,69.287)"/>
<use data-text="c" xlink:href="#font_1_7" transform="matrix(9.96264,0,0,-9.96264,600.4133,69.287)"/>
<use data-text="b" xlink:href="#font_1_6" transform="matrix(9.96264,0,0,-9.96264,608.16427,69.287)"/>
<use data-text="l" xlink:href="#font_1_12" transform="matrix(9.96264,0,0,-9.96264,613.5042,69.287)"/>
<use data-text="o" xlink:href="#font_1_14" transform="matrix(9.96264,0,0,-9.96264,615.71597,69.287)"/>
<use data-text="c" xlink:href="#font_1_7" transform="matrix(9.96264,0,0,-9.96264,621.2552,69.287)"/>
<use data-text="k" xlink:href="#font_1_11" transform="matrix(9.96264,0,0,-9.96264,626.03726,69.287)"/>
<path transform="matrix(1,0,0,-1,510.59498,65.795)" stroke-width=".79701" stroke-linecap="butt" stroke-miterlimit="10" stroke-linejoin="miter" fill="none" stroke="var(--color)" d="M57.95306 0V0H61.79471"/>
<path transform="matrix(1,0,0,-1,572.38967,65.795)" d="M4.66248 0C3.28098 .25902 1.0361 1.0361-.51805 1.94269V-1.94269C1.0361-1.0361 3.28098-.25902 4.66248 0" fill="var(--color)"/>
<path transform="matrix(1,0,0,-1,501.89198,31.779)" stroke-width=".79701" stroke-linecap="butt" stroke-miterlimit="10" stroke-linejoin="miter" fill="none" stroke="var(--color)" d="M0 0V0-34.0161H3.84164"/>
<path transform="matrix(1,0,0,-1,505.7336,65.795108)" d="M4.66248 0C3.28098 .25902 1.0361 1.0361-.51805 1.94269V-1.94269C1.0361-1.0361 3.28098-.25902 4.66248 0" fill="var(--color)"/>
<path transform="matrix(1,0,0,-1,510.59498,99.81)" d="M57.10266 14.17339H.85039C.38072 14.17339 0 13.79266 0 13.323V-13.323C0-13.79266 .38072-14.17339 .85039-14.17339H57.10266C57.57233-14.17339 57.95306-13.79266 57.95306-13.323V13.323C57.95306 13.79266 57.57233 14.17339 57.10266 14.17339ZM0-14.17339" fill="#7f807f"/>
<path transform="matrix(1,0,0,-1,510.59498,99.81)" stroke-width=".3985" stroke-linecap="butt" stroke-miterlimit="10" stroke-linejoin="miter" fill="none" stroke="#262626" d="M57.10266 14.17339H.85039C.38072 14.17339 0 13.79266 0 13.323V-13.323C0-13.79266 .38072-14.17339 .85039-14.17339H57.10266C57.57233-14.17339 57.95306-13.79266 57.95306-13.323V13.323C57.95306 13.79266 57.57233 14.17339 57.10266 14.17339ZM0-14.17339"/>
<use data-text="B" xlink:href="#font_1_1" transform="matrix(9.96264,0,0,-9.96264,514.57998,103.301998)"/>
<use data-text="a" xlink:href="#font_1_5" transform="matrix(9.96264,0,0,-9.96264,521.22506,103.301998)"/>
<use data-text="s" xlink:href="#font_1_17" transform="matrix(9.96264,0,0,-9.96264,526.7643,103.301998)"/>
<use data-text="i" xlink:href="#font_1_10" transform="matrix(9.96264,0,0,-9.96264,531.7456,103.301998)"/>
<use data-text="c" xlink:href="#font_1_7" transform="matrix(9.96264,0,0,-9.96264,533.95736,103.301998)"/>
<use data-text="b" xlink:href="#font_1_6" transform="matrix(9.96264,0,0,-9.96264,541.70828,103.301998)"/>
<use data-text="l" xlink:href="#font_1_12" transform="matrix(9.96264,0,0,-9.96264,547.0482,103.301998)"/>
<use data-text="o" xlink:href="#font_1_14" transform="matrix(9.96264,0,0,-9.96264,549.25997,103.301998)"/>
<use data-text="c" xlink:href="#font_1_7" transform="matrix(9.96264,0,0,-9.96264,554.7992,103.301998)"/>
<use data-text="k" xlink:href="#font_1_11" transform="matrix(9.96264,0,0,-9.96264,559.58126,103.301998)"/>
<path transform="matrix(1,0,0,-1,510.59498,99.81)" d="M123.55986 14.17339H67.30759C66.83792 14.17339 66.45718 13.79266 66.45718 13.323V-13.323C66.45718-13.79266 66.83792-14.17339 67.30759-14.17339H123.55986C124.02953-14.17339 124.41026-13.79266 124.41026-13.323V13.323C124.41026 13.79266 124.02953 14.17339 123.55986 14.17339ZM66.45718-14.17339" fill="#7f807f"/>
<path transform="matrix(1,0,0,-1,510.59498,99.81)" stroke-width=".3985" stroke-linecap="butt" stroke-miterlimit="10" stroke-linejoin="miter" fill="none" stroke="#262626" d="M123.55986 14.17339H67.30759C66.83792 14.17339 66.45718 13.79266 66.45718 13.323V-13.323C66.45718-13.79266 66.83792-14.17339 67.30759-14.17339H123.55986C124.02953-14.17339 124.41026-13.79266 124.41026-13.323V13.323C124.41026 13.79266 124.02953 14.17339 123.55986 14.17339ZM66.45718-14.17339"/>
<use data-text="B" xlink:href="#font_1_1" transform="matrix(9.96264,0,0,-9.96264,581.03598,103.301998)"/>
<use data-text="a" xlink:href="#font_1_5" transform="matrix(9.96264,0,0,-9.96264,587.681,103.301998)"/>
<use data-text="s" xlink:href="#font_1_17" transform="matrix(9.96264,0,0,-9.96264,593.2203,103.301998)"/>
<use data-text="i" xlink:href="#font_1_10" transform="matrix(9.96264,0,0,-9.96264,598.2016,103.301998)"/>
<use data-text="c" xlink:href="#font_1_7" transform="matrix(9.96264,0,0,-9.96264,600.4133,103.301998)"/>
<use data-text="b" xlink:href="#font_1_6" transform="matrix(9.96264,0,0,-9.96264,608.16427,103.301998)"/>
<use data-text="l" xlink:href="#font_1_12" transform="matrix(9.96264,0,0,-9.96264,613.5042,103.301998)"/>
<use data-text="o" xlink:href="#font_1_14" transform="matrix(9.96264,0,0,-9.96264,615.71597,103.301998)"/>
<use data-text="c" xlink:href="#font_1_7" transform="matrix(9.96264,0,0,-9.96264,621.2552,103.301998)"/>
<use data-text="k" xlink:href="#font_1_11" transform="matrix(9.96264,0,0,-9.96264,626.03726,103.301998)"/>
<path transform="matrix(1,0,0,-1,510.59498,99.81)" stroke-width=".79701" stroke-linecap="butt" stroke-miterlimit="10" stroke-linejoin="miter" fill="none" stroke="var(--color)" d="M57.95306 0V0H61.79471"/>
<path transform="matrix(1,0,0,-1,572.38967,99.81)" d="M4.66248 0C3.28098 .25902 1.0361 1.0361-.51805 1.94269V-1.94269C1.0361-1.0361 3.28098-.25902 4.66248 0" fill="var(--color)"/>
<path transform="matrix(1,0,0,-1,501.89198,31.779)" stroke-width=".79701" stroke-linecap="butt" stroke-miterlimit="10" stroke-linejoin="miter" fill="none" stroke="var(--color)" d="M0 0V0-68.0322H3.84164"/>
<path transform="matrix(1,0,0,-1,505.7336,99.8112)" d="M4.66248 0C3.28098 .25902 1.0361 1.0361-.51805 1.94269V-1.94269C1.0361-1.0361 3.28098-.25902 4.66248 0" fill="var(--color)"/>
<path transform="matrix(1,0,0,-1,501.89198,31.779)" stroke-width=".79701" stroke-linecap="butt" stroke-miterlimit="10" stroke-linejoin="miter" fill="none" stroke="var(--color)" d="M133.31288 0H139.69107V-34.0161H133.31288"/>
<path transform="matrix(1,0,0,-1,501.89198,31.779)" stroke-width=".79701" stroke-linecap="butt" stroke-miterlimit="10" stroke-linejoin="miter" fill="none" stroke="var(--color)" d="M133.31288 0H139.69107V-68.0322H133.31288"/>
<path transform="matrix(1,0,0,-1,501.89198,31.779)" stroke-width=".79701" stroke-linecap="butt" stroke-miterlimit="10" stroke-linejoin="miter" fill="none" stroke="var(--color)" d="M133.31288-34.0161H139.69107V-68.0322H133.31288"/>
<path transform="matrix(1,0,0,-1,352.901,65.795)" stroke-width=".79701" stroke-linecap="butt" stroke-miterlimit="10" stroke-linejoin="miter" fill="none" stroke="var(--color)" d="M140.08959 0H148.5937"/>
<path transform="matrix(1,0,0,-1,.199,65.795)" stroke-width=".79701" stroke-linecap="butt" stroke-miterlimit="10" stroke-linejoin="miter" fill="none" stroke="var(--color)" d="M338.53334 0H345.62 348.04423"/>
<path transform="matrix(1,0,0,-1,348.24324,65.795)" d="M4.66248 0C3.28098 .25902 1.0361 1.0361-.51805 1.94269V-1.94269C1.0361-1.0361 3.28098-.25902 4.66248 0" fill="var(--color)"/>
<path transform="matrix(1,0,0,-1,.199,65.795)" d="M345.62 51.2234V65.3968H644.62319V51.2234ZM644.62319 65.3968" fill="#a0b4f0"/>
<path transform="matrix(1,0,0,-1,.199,65.795)" stroke-width=".79701" stroke-linecap="butt" stroke-miterlimit="10" stroke-linejoin="miter" fill="none" stroke="#4169e1" d="M345.62 51.2234V65.3968H644.62319V51.2234ZM644.62319 65.3968"/>
<use data-text="S" xlink:href="#font_1_4" transform="matrix(9.96264,0,0,-9.96264,483.249,11.046997)"/>
<use data-text="e" xlink:href="#font_1_9" transform="matrix(9.96264,0,0,-9.96264,489.89408,11.046997)"/>
<use data-text="r" xlink:href="#font_1_16" transform="matrix(9.96264,0,0,-9.96264,495.4333,11.046997)"/>
<use data-text="i" xlink:href="#font_1_10" transform="matrix(9.96264,0,0,-9.96264,498.9003,11.046997)"/>
<use data-text="e" xlink:href="#font_1_9" transform="matrix(9.96264,0,0,-9.96264,501.112,11.046997)"/>
<use data-text="s" xlink:href="#font_1_17" transform="matrix(9.96264,0,0,-9.96264,506.6512,11.046997)"/>
<path transform="matrix(1,0,0,-1,.199,65.795)" d="M680.8053 14.17339H656.8123C656.3426 14.17339 655.9619 13.79266 655.9619 13.323V-13.323C655.9619-13.79266 656.3426-14.17339 656.8123-14.17339H680.8053C681.2749-14.17339 681.65567-13.79266 681.65567-13.323V13.323C681.65567 13.79266 681.2749 14.17339 680.8053 14.17339ZM655.9619-14.17339" fill="#80ff80"/>
<path transform="matrix(1,0,0,-1,.199,65.795)" stroke-width=".3985" stroke-linecap="butt" stroke-miterlimit="10" stroke-linejoin="miter" fill="none" stroke="#262626" d="M680.8053 14.17339H656.8123C656.3426 14.17339 655.9619 13.79266 655.9619 13.323V-13.323C655.9619-13.79266 656.3426-14.17339 656.8123-14.17339H680.8053C681.2749-14.17339 681.65567-13.79266 681.65567-13.323V13.323C681.65567 13.79266 681.2749 14.17339 680.8053 14.17339ZM655.9619-14.17339"/>
<use data-text="E" xlink:href="#font_1_2" transform="matrix(9.96264,0,0,-9.96264,660.138,69.287)"/>
<use data-text="n" xlink:href="#font_1_13" transform="matrix(9.96264,0,0,-9.96264,666.7831,69.287)"/>
<use data-text="d" xlink:href="#font_1_8" transform="matrix(9.96264,0,0,-9.96264,672.3223,69.287)"/>
<path transform="matrix(1,0,0,-1,.199,65.795)" stroke-width=".79701" stroke-linecap="butt" stroke-miterlimit="10" stroke-linejoin="miter" fill="none" stroke="var(--color)" d="M641.7885 0H648.8752 651.29946"/>
<path transform="matrix(1,0,0,-1,651.4984,65.795)" d="M4.66248 0C3.28098 .25902 1.0361 1.0361-.51805 1.94269V-1.94269C1.0361-1.0361 3.28098-.25902 4.66248 0" fill="var(--color)"/>
</svg>
