<?xml version="1.0" encoding="UTF-8" standalone="no"?>
<!-- Created with Inkscape (http://www.inkscape.org/) -->

<svg
   version="1.1"
   id="svg2"
   xml:space="preserve"
   width="292.76306"
   height="176.32782"
   viewBox="0 0 292.76306 176.32782"
   sodipodi:docname="Orientations.svg"
   inkscape:version="1.1.2 (0a00cf5339, 2022-02-04)"
   inkscape:export-filename="/home/ed/lab_documents/digital_image_analysis/orientationpy/images/Orientations.png"
   inkscape:export-xdpi="299.98669"
   inkscape:export-ydpi="299.98669"
   xmlns:inkscape="http://www.inkscape.org/namespaces/inkscape"
   xmlns:sodipodi="http://sodipodi.sourceforge.net/DTD/sodipodi-0.dtd"
   xmlns="http://www.w3.org/2000/svg"
   xmlns:svg="http://www.w3.org/2000/svg"><defs
     id="defs6" /><sodipodi:namedview
     id="namedview4"
     pagecolor="#ffffff"
     bordercolor="#666666"
     borderopacity="1.0"
     inkscape:pageshadow="2"
     inkscape:pageopacity="0.0"
     inkscape:pagecheckerboard="0"
     showgrid="false"
     fit-margin-top="0"
     fit-margin-left="0"
     fit-margin-right="0"
     fit-margin-bottom="0"
     inkscape:zoom="3.3711483"
     inkscape:cx="117.31907"
     inkscape:cy="147.57583"
     inkscape:window-width="2560"
     inkscape:window-height="1499"
     inkscape:window-x="0"
     inkscape:window-y="52"
     inkscape:window-maximized="1"
     inkscape:current-layer="g8" /><g
     id="g8"
     inkscape:groupmode="layer"
     inkscape:label="Orientations"
     transform="matrix(1.3333333,0,0,-1.3333333,-62.993507,764.88467)"><g
       id="g12"
       transform="matrix(0.31718062,0,0,-0.31718062,0,594)"><g
         id="g14" /></g><g
       id="g28"
       transform="translate(0,-6.9541124e-5)"><g
         id="g30"><g
           id="g32"><path
             d="m 216.96507,441.46393 c 0,0 0,0 0,0 0.39109,0.17889 0.8091,0.30786 1.17324,0.53665 0.18299,0.11499 0.38722,0.267 0.43951,0.47668 0.1037,0.41593 0.1611,0.88874 0,1.28595 -0.21799,0.53739 -0.50357,1.27472 -1.0761,1.36701 -0.83892,0.13525 -1.66383,-0.41458 -2.41937,-0.80353 -0.36329,-0.18704 -0.66899,-0.51578 -0.85257,-0.88086 -0.12637,-0.25128 -0.15016,-0.59723 -0.0147,-0.84372 0.1735,-0.31564 0.53678,-0.488 0.84716,-0.67077 0.36552,-0.21521 0.75238,-0.41245 1.16433,-0.51362 m 0.66571,1.23197 c 0,0 0,0 0,0 -0.43003,0.0139 -0.87555,-0.0734 -1.29011,0.0417 -0.1892,0.0525 -0.40367,0.23242 -0.4039,0.42877 -2.3e-4,0.19537 0.2337,0.32797 0.40291,0.42566 0.0999,0.0577 0.2368,0.0439 0.346,0.007 0.47295,-0.16098 0.96413,-0.31091 1.37647,-0.59299 0.0804,-0.055 -0.0415,-0.20932 -0.12056,-0.26611 m -3.19283,4.71069 c 0,0 0,0 0,0 0.2183,0.0152 0.47091,-0.0728 0.65491,0.0457 0.41879,0.26959 0.85201,0.60226 1.05687,1.05624 0.1763,0.39072 0.16449,0.89011 0,1.28592 -0.2437,0.58646 -0.71413,1.05951 -1.16182,1.50992 -0.22903,0.23044 -0.51485,0.45374 -0.83636,0.50055 -0.9471,0.13788 -1.9204,0.15045 -2.87101,0.0392 -0.52944,-0.062 -1.03305,-0.29618 -1.50126,-0.55097 -0.22013,-0.11981 -0.41673,-0.31671 -0.5159,-0.54684 -0.0859,-0.19934 -0.0534,-0.44071 -2.3e-4,-0.65113 0.0481,-0.19021 0.14523,-0.3818 0.29367,-0.5101 0.56708,-0.49005 1.19289,-0.91009 1.82166,-1.31799 0.4702,-0.30502 0.92996,-0.66531 1.46948,-0.81705 m 0.55783,1.00495 c 0,0 0,0 0,0 -1.04695,0.62866 -2.32671,0.97576 -3.14085,1.88598 -0.24878,0.27817 0.62568,0.46021 0.99513,0.51297 0.84652,0.12091 1.71919,0.11899 2.56534,-0.004 0.19427,-0.0283 0.3497,-0.23996 0.40396,-0.42862 0.034,-0.11832 -0.25386,-0.21204 -0.1895,-0.31699 0.19713,-0.3215 0.59439,-0.47049 0.84509,-0.75223 0.0437,-0.0491 0.0404,-0.14553 -1.5e-4,-0.19729 -0.21695,-0.27652 -0.42447,-0.59867 -0.7422,-0.7489 m 1.57177,4.72223 c 0,0 0,0 0,0 0.35469,0.37075 0.95433,0.61105 1.06404,1.11227 0.11136,0.50879 -0.20449,1.05017 -0.49629,1.48157 -0.18844,0.27862 -0.55711,0.38217 -0.86134,0.52563 -0.10208,0.0482 -0.22348,0.0381 -0.33634,0.0392 -0.27798,0.003 -0.58711,0.10073 -0.83355,-0.0279 -0.24422,-0.1275 -0.39217,-0.40735 -0.49199,-0.66412 -0.0894,-0.22995 -0.0834,-0.49341 -0.0532,-0.73828 0.0111,-0.0903 0.25973,-0.19501 0.17056,-0.21311 -1.73599,-0.35235 -3.51253,-0.47723 -5.25079,-0.81799 -0.0722,-0.0141 -0.0457,-0.14539 -0.034,-0.21799 0.0244,-0.15167 0.033,-0.32867 0.13974,-0.43924 0.0765,-0.0793 0.21783,-0.0564 0.32738,-0.0449 0.74318,0.078 1.47392,0.26972 2.21998,0.31229 1.05562,0.0602 2.11731,0.0702 3.17198,-0.005 0.22641,-0.0161 0.40639,-0.2125 0.62716,-0.26538 m 1.06468,1.26495 c 0,0 0,0 0,0 -0.0312,-0.10345 0.006,-0.26862 -0.0937,-0.31036 -0.20065,-0.0841 -0.47966,-0.13428 -0.65267,-0.002 -0.34031,0.25946 -0.62313,0.64184 -0.72966,1.05633 -0.0368,0.14328 0.29647,0.1818 0.42859,0.11524 m -2.08653,4.64489 c 0,0 0,0 0,0 0.0899,0.10733 0.2527,0.18305 0.26982,0.32206 0.0151,0.12292 -0.1934,0.195 -0.19084,0.31881 0.003,0.12326 0.16655,0.19113 0.20378,0.30866 0.0337,0.10632 0.0365,0.22928 -9e-5,0.33465 -0.0407,0.11731 -0.20006,0.17786 -0.22044,0.30039 -0.0699,0.41989 -0.0918,0.85357 -0.0421,1.27637 0.0265,0.22558 0.21284,0.40658 0.26559,0.6275 0.051,0.21347 0.14456,0.46356 0.0412,0.65713 -0.1667,0.31211 -0.46526,0.55658 -0.77792,0.72223 -0.089,0.0471 -0.1989,-0.091 -0.24067,-0.18265 -0.21774,-0.47772 -0.4167,-0.97189 -0.5202,-1.48657 -0.0846,-0.42062 -0.14734,-0.87189 -0.0375,-1.28665 0.17058,-0.64374 0.534,-1.22229 0.85658,-1.8049 0.0515,-0.093 0.14891,-0.16824 0.2515,-0.1962 m -137.87761,8.33298 c 0,0 0,0 0,0 0.01845,0.32446 -0.0734,0.67499 0.05538,0.97336 0.05957,0.13803 0.27694,0.13913 0.427185,0.14468 1.161889,0.043 2.328156,0.0805 3.488068,1.8e-4 0.333389,-0.0231 0.620804,-0.28421 0.954163,-0.30767 1.160225,-0.0816 2.326233,-0.0151 3.489273,-0.005 0.426101,0.004 0.856994,-0.022 1.277488,0.047 0.224114,0.0367 0.401139,0.24655 0.62745,0.26556 0.842453,0.0707 1.694107,0.0742 2.536247,-3e-5 0.332886,-0.0293 0.62191,-0.27179 0.954147,-0.30764 0.629875,-0.068 1.27031,-0.0645 1.900597,-4.6e-4 1.27362,0.12945 2.521347,0.46716 3.7966,0.57947 0.128838,0.0113 0.192497,-0.215 0.321831,-0.21674 0.224914,-0.003 0.418518,0.2117 0.643318,0.2038 0.227417,-0.008 0.409584,-0.22339 0.635712,-0.24878 0.524475,-0.0589 1.059562,-0.0655 1.583305,-4.3e-4 1.061813,0.1319 2.097679,0.42761 3.155396,0.58911 0.32048,0.0489 0.64755,0.0382 0.97174,0.0411 1.05729,0.009 2.11698,0.0655 3.17197,-0.005 0.22706,-0.0151 0.40859,-0.23477 0.63572,-0.24881 0.12304,-0.008 0.1941,0.19323 0.31733,0.18991 0.12391,-0.003 0.18922,-0.17499 0.309,-0.20682 0.20764,-0.0552 0.42806,-0.0461 0.64292,-0.0461 0.21486,0 0.4358,-0.0109 0.64294,0.0462 0.12528,0.0345 0.19275,0.23178 0.32211,0.21954 1.17052,-0.11077 2.3036,-0.57934 3.47936,-0.57928 9.51588,4.6e-4 19.02644,0.47559 28.54175,0.58078 0.23262,0.003 0.4158,-0.25919 0.64845,-0.25809 0.33589,0.002 0.63644,0.28055 0.97201,0.26572 2.11644,-0.0935 4.21511,-0.43729 6.32821,-0.58841 0.63156,-0.0452 1.26693,-0.0275 1.8995,-3e-5 3.96376,0.17221 7.92803,0.34546 11.88739,0.59909 2.60069,0.1666 5.19051,0.47748 7.79006,0.66141 0.31886,0.0226 0.64437,0.0192 0.95802,-0.0424 0.12161,-0.0239 0.18509,-0.20615 0.30904,-0.20673 0.12329,-6.1e-4 0.19111,0.16654 0.30863,0.20377 0.10633,0.0337 0.22687,0.0288 0.33458,-1.2e-4 0.21769,-0.0585 0.40271,-0.29438 0.62517,-0.25785 0.50594,0.0831 0.98604,0.31891 1.41901,0.59354 0.26202,0.16617 0.72534,0.40692 0.61639,0.69742 -0.14299,0.38128 -0.6801,0.57397 -1.08696,0.55743 -4.76384,-0.19372 -9.49475,-0.90372 -14.25442,-1.18127 -0.43869,-0.0256 -0.85125,0.24026 -1.28929,0.27493 -0.53019,0.042 -1.06818,0.0274 -1.59484,-0.0466 -0.22491,-0.0316 -0.40045,-0.25909 -0.62748,-0.26556 -2.95997,-0.0842 -5.92235,-0.0171 -8.88347,-0.005 -0.42614,0.002 -0.85677,-0.0204 -1.27754,0.0468 -0.1224,0.0196 -0.18509,0.20349 -0.309,0.20681 -0.12323,0.003 -0.19409,-0.19265 -0.31733,-0.18994 -0.12326,0.003 -0.19112,0.1666 -0.30866,0.20383 -0.10634,0.0337 -0.22828,0.0337 -0.33462,0 -0.11753,-0.0372 -0.18549,-0.20966 -0.30863,-0.20377 -0.22731,0.0108 -0.40852,0.2367 -0.63575,0.24878 -1.3727,0.073 -2.74933,0.0166 -4.12391,0.004 -0.21486,-0.002 -0.43527,0.009 -0.64291,-0.0465 -0.11977,-0.0319 -0.18507,-0.20349 -0.30898,-0.20685 -0.12323,-0.003 -0.19407,0.19269 -0.31732,0.18998 -0.12326,-0.003 -0.19111,-0.1666 -0.30864,-0.20383 -0.10634,-0.0337 -0.2283,-0.0337 -0.33465,0 -0.11751,0.0372 -0.18546,0.20898 -0.30861,0.20376 -0.22641,-0.01 -0.40802,-0.24679 -0.63461,-0.24377 -0.22614,0.003 -0.40238,0.22961 -0.62639,0.26059 -0.52683,0.0729 -1.06299,0.0466 -1.59482,0.0466 -0.21486,0 -0.43422,0.005 -0.64287,-0.0466 -0.22055,-0.0542 -0.40044,-0.25842 -0.62743,-0.2656 -2.64256,-0.0834 -5.28889,-0.0821 -7.93163,-0.004 -0.43926,0.0129 -0.85005,0.28931 -1.28928,0.27533 -2.8551,-0.0909 -5.69693,-0.4361 -8.54941,-0.58859 -0.84424,-0.0451 -1.69493,-0.0864 -2.53637,-0.004 -1.28039,0.12527 -2.5268,0.51501 -3.80861,0.62487 -0.2255,0.0193 -0.40725,-0.24496 -0.63358,-0.24414 -0.22756,8.3e-4 -0.40835,0.23969 -0.63573,0.24878 -1.90199,0.0759 -3.8114,0.13358 -5.71052,0.005 -1.180203,-0.0802 -2.318493,-0.48431 -3.492421,-0.62991 -0.523758,-0.065 -1.058845,-0.0585 -1.58332,3.6e-4 -0.226128,0.0254 -0.408585,0.23481 -0.635697,0.24884 -0.123039,0.008 -0.19429,-0.19751 -0.317329,-0.18991 -0.227127,0.014 -0.410057,0.21955 -0.635719,0.24878 -0.317116,0.0411 -0.643853,0.0155 -0.958382,-0.0421 -0.09826,-0.018 -0.159683,-0.23523 -0.241325,-0.17768 -0.230599,0.16263 -0.413193,0.41971 -0.487839,0.69181 -0.03361,0.12252 0.171905,0.19653 0.21096,0.31741 0.0343,0.10617 0.05293,0.23663 -2.9e-4,0.33472 -0.129417,0.23852 -0.433555,0.36877 -0.520805,0.62576 -0.0396,0.11661 0.166229,0.19095 0.203644,0.30829 0.0348,0.10919 0.04034,0.23501 0.0042,0.34378 -0.07661,0.23083 -0.26146,0.41659 -0.333695,0.6488 -0.846237,2.72049 -1.514763,5.49594 -2.41819,8.19794 -0.250725,0.74991 -0.634025,1.45306 -1.036239,2.13385 -0.120858,0.20456 -0.398209,0.28567 -0.515358,0.49237 -0.03729,0.0658 0.165527,0.11719 0.131591,0.18472 -0.09493,0.18906 -0.35482,0.25885 -0.449417,0.44806 -0.03407,0.0682 0.166321,0.11847 0.132111,0.18656 -0.09504,0.18924 -0.372704,0.25082 -0.450699,0.44769 -0.03831,0.0967 0.198341,0.16199 0.169571,0.26193 -0.08986,0.31226 -0.294975,0.58243 -0.487846,0.84393 -0.454758,0.61652 -0.992386,1.1688 -1.449952,1.78324 -0.193939,0.26047 -0.374641,0.53647 -0.500366,0.83587 -0.06987,0.16642 0.02987,0.38978 -0.07575,0.53614 -0.172409,0.23892 -0.516853,0.3088 -0.700317,0.53937 -0.418084,0.52545 -0.691811,1.15264 -1.081246,1.69967 -0.135338,0.19013 -0.373016,0.29935 -0.486885,0.50302 -0.289986,0.51877 -0.443504,1.10419 -0.708816,1.63596 -0.156571,0.31381 -0.409989,0.57474 -0.553719,0.89462 -0.206184,0.45886 -0.256722,0.98163 -0.489662,1.42749 -0.255593,0.48917 -0.729035,0.84763 -0.960747,1.34854 -0.0518,0.112 0.247231,0.20838 0.18998,0.31769 -0.123505,0.23584 -0.439362,0.30783 -0.619988,0.50339 -0.151756,0.16431 -0.289894,0.35232 -0.365028,0.56299 -0.311333,0.87292 -0.492775,1.78778 -0.786843,2.66665 -0.20813,0.62204 -0.326744,1.30582 -0.718383,1.83197 -0.243363,0.32697 -0.690613,0.44883 -1.076622,0.57962 -0.249962,0.0847 -0.677468,-0.18582 -0.789986,0.0529 -0.437203,0.92755 -0.507134,1.99121 -0.652001,3.00635 -0.06048,0.42383 -0.07076,0.87015 0.03977,1.28378 0.05873,0.21976 0.216957,0.48807 0.442207,0.51975 0.208084,0.0293 0.37545,-0.21628 0.4972,-0.38755 0.761002,-1.07052 1.516312,-2.15335 2.133332,-3.31283 0.05962,-0.11206 -0.172738,-0.2013 -0.197007,-0.32587 -0.01211,-0.0622 0.05194,-0.12173 0.102333,-0.16009 0.299332,-0.22788 0.657555,-0.37757 0.936097,-0.63041 0.275795,-0.25036 0.545089,-0.52911 0.709434,-0.8634 0.04393,-0.0893 -0.202026,-0.16046 -0.161362,-0.25134 0.192788,-0.43085 0.481163,-0.81973 0.797425,-1.17008 0.316955,-0.35113 0.7518,-0.57894 1.084709,-0.915 0.259453,-0.26188 0.500961,-0.5492 0.683243,-0.86963 1.150543,-2.02237 2.144088,-4.13193 3.30825,-6.14652 0.507393,-0.87802 1.073929,-1.72537 1.701172,-2.52225 0.183609,-0.23324 0.511368,-0.3175 0.708702,-0.53927 0.550888,-0.61902 1.101677,-1.25162 1.521042,-1.96634 0.480339,-0.8186 0.73233,-1.75302 1.158867,-2.60092 0.168899,-0.33573 0.380859,-0.65222 0.62249,-0.9401 0.342331,-0.40783 0.855171,-0.67651 1.121452,-1.13763 0.483833,-0.83786 0.694244,-1.80722 1.089157,-2.69046 0.448456,-1.00299 1.057579,-1.93497 1.43953,-2.96512 0.37973,-1.0242 0.511398,-2.12549 0.834716,-3.16888 0.15696,-0.5065 0.342354,-1.01038 0.603379,-1.47193 0.257774,-0.45581 0.594314,-0.86545 0.940597,-1.25827 0.366982,-0.41632 0.690117,-0.92621 1.192635,-1.16174 0.38813,-0.18192 0.869743,-0.10257 1.285919,0 0.192444,0.0474 0.348306,0.2359 0.420336,0.42056 0.0797,0.2042 0.15453,0.50186 2.2e-4,0.65753 -0.11215,0.11313 -0.260888,-0.29232 -0.412072,-0.24209 -0.21917,0.0728 -0.368065,0.31161 -0.448548,0.5281 -0.07652,0.20588 -0.0755,0.45542 0.0074,0.65882 0.03244,0.0796 0.183022,0.0346 0.257882,-0.008 0.184845,-0.1045 0.273124,-0.41568 0.485438,-0.41248 0.14489,0.002 0.14755,0.28238 0.10677,0.42142 -0.0494,0.16861 -0.275344,0.23642 -0.346771,0.39694 -0.287239,0.64551 -0.514702,1.31769 -0.717376,1.99454 -0.47622,1.5903 -0.805802,3.22354 -1.318039,4.80258 -0.352402,1.08636 -0.812096,2.13602 -1.271904,3.18146 -0.297844,0.67715 -0.756379,1.28283 -0.999024,1.98169 -0.04181,0.12039 0.260117,0.21682 0.197144,0.32763 -0.05788,0.10187 -0.25753,-0.14566 -0.34491,-0.0676 -0.374542,0.33456 -0.647118,0.77182 -0.917358,1.19513 -0.939659,1.47192 -1.724602,3.04165 -2.708443,4.48443 -0.30294,0.44425 -0.804016,0.72299 -1.132683,1.14856 -0.244072,0.31604 -0.319282,0.74246 -0.568626,1.05435 -0.183052,0.22898 -0.553627,0.27845 -0.699959,0.5325 -0.360374,0.62565 -0.385658,1.41391 -0.7724,2.02362 -0.186882,0.29465 -0.652847,0.30521 -0.875297,0.57401 -0.08841,0.10684 0.117111,0.28561 0.05949,0.41177 -0.08805,0.19278 -0.37082,0.25153 -0.451867,0.44736 -0.03836,0.0927 0.19178,0.1582 0.161675,0.25394 -0.03499,0.11123 -0.220741,0.0954 -0.29879,0.18207 -0.166992,0.18545 -0.29496,0.40359 -0.421997,0.6184 -0.567886,0.96027 -1.049751,1.97242 -1.661789,2.90519 -0.301003,0.45871 -0.680336,0.86404 -1.066948,1.25335 -0.416641,0.41953 -0.944572,0.72357 -1.336235,1.16651 -0.79937,0.90399 -1.52713,1.87146 -2.222344,2.85781 -0.304328,0.43177 -0.442413,0.97037 -0.768684,1.38578 -0.256348,0.32635 -0.701935,0.47162 -0.950943,0.80362 -0.05949,0.0793 0.244927,0.19882 0.160332,0.25052 -0.120308,0.0735 -0.270783,-0.0964 -0.411797,-0.0968 -0.05921,-1.8e-4 -0.108185,0.0532 -0.150055,0.0951 -0.09695,0.0969 -0.246544,0.18078 -0.262039,0.31701 -0.01398,0.12287 0.161583,0.19837 0.189705,0.31879 0.01002,0.0429 -0.05054,0.10342 -0.09343,0.0934 -0.120407,-0.0281 -0.210624,-0.24963 -0.318779,-0.18969 -0.380912,0.21112 -0.686805,0.54919 -0.952499,0.89425 -0.09945,0.12918 -0.209648,0.35373 -0.103996,0.47788 0.09411,0.11059 0.285759,-0.14905 0.423347,-0.10266 0.07737,0.0261 0.04196,0.17584 -0.0015,0.24499 -0.07291,0.11609 -0.18074,0.24658 -0.316947,0.26203 -0.122605,0.0139 -0.19732,-0.21704 -0.317704,-0.18994 -0.168663,0.0379 -0.385696,0.1751 -0.384514,0.34802 0.0015,0.21203 0.43509,0.2951 0.390328,0.50244 -0.0956,0.44281 -0.572159,0.71802 -0.744324,1.13708 -0.03939,0.0958 0.224655,0.17194 0.170235,0.26014 -0.136925,0.22186 -0.519074,0.23407 -0.622803,0.47326 -0.289024,0.66657 -0.439003,1.39722 -0.50209,2.12097 -0.02023,0.23206 0.24456,0.41602 0.260688,0.64838 0.07322,1.05481 0.01617,2.11475 0.0045,3.172 -0.0024,0.21484 0.0047,0.4342 -0.04661,0.64288 -0.05419,0.22052 -0.25853,0.40045 -0.265579,0.62744 -0.08199,2.64221 -0.07674,5.28809 0,7.93048 0.0066,0.22742 0.234772,0.40857 0.248802,0.63568 0.0076,0.12305 -0.193222,0.1941 -0.189903,0.31739 0.0033,0.12384 0.182548,0.18744 0.206802,0.30896 0.06271,0.31427 0.04649,0.63983 0.04647,0.96026 -2.3e-5,0.21485 0.0047,0.43421 -0.04659,0.64283 -0.0542,0.22058 -0.233543,0.40264 -0.265579,0.6275 -0.05962,0.41845 -0.01379,0.84552 -0.0045,1.26813 0.0047,0.21478 -0.0047,0.4342 0.04661,0.64282 0.0542,0.22058 0.241806,0.40161 0.265564,0.6275 0.06629,0.63007 0.08301,1.27252 4.12e-4,1.90063 -0.113281,0.86139 -0.566719,1.67139 -0.584381,2.53998 -0.01269,0.62433 -0.07718,1.55872 0.495995,1.8064 1.543327,0.66699 3.337196,0.41663 5.011139,0.57367 0.217216,0.0204 0.443229,0.0172 0.653137,-0.0423 0.537575,-0.15228 1.012367,-0.55054 1.56987,-0.58752 2.426002,-0.16083 4.865547,-0.11896 7.293953,-1.3e-4 4.027489,0.19709 8.033127,0.73365 12.059768,0.94727 1.90084,0.10083 3.80909,0.0845 5.71052,-0.005 0.3338,-0.0156 0.62457,-0.2525 0.9542,-0.30737 0.21145,-0.0352 0.43339,-0.009 0.64172,0.0418 0.22074,0.0535 0.4019,0.23907 0.62747,0.26556 0.42278,0.0496 0.85614,0.0258 1.27636,-0.0421 0.22421,-0.0363 0.40118,-0.24622 0.62747,-0.26556 0.84272,-0.072 1.69164,-0.015 2.53735,-0.005 0.32043,0.004 0.64578,-0.0149 0.9602,0.0469 0.22283,0.0439 0.40082,0.25067 0.62745,0.26556 1.16059,0.0762 2.32623,0.0151 3.48929,0.005 0.4261,-0.004 0.85698,0.022 1.27747,-0.0469 0.22413,-0.0367 0.40037,-0.26233 0.62746,-0.26556 6.02715,-0.0857 12.05865,-0.19495 18.08326,-4.3e-4 3.71475,0.11987 7.4043,0.65875 11.11011,0.94281 0.21341,0.0164 0.43368,0.0121 0.64075,-0.0421 0.11988,-0.0314 0.18509,-0.20618 0.30903,-0.20679 0.12326,-6.1e-4 0.19109,0.16656 0.30863,0.20373 0.10632,0.0337 0.22909,0.0361 0.33461,-1.2e-4 0.1166,-0.04 0.18289,-0.17663 0.29928,-0.21722 0.10916,-0.0381 0.23183,-0.0205 0.34679,-0.008 1.57481,0.16864 3.13849,0.45526 4.71942,0.55072 0.2347,0.0142 0.43341,-0.23462 0.66835,-0.22553 2.85568,0.11115 5.69923,0.4433 8.55357,0.58448 1.05608,0.0522 2.11774,0.0753 3.17208,-0.005 0.33322,-0.0252 0.62105,-0.28064 0.95413,-0.30768 0.992,-0.0806 2.30237,0.71124 2.98582,-0.0123 0.85262,-0.90265 0.4003,-2.45306 0.51107,-3.68975 0.3201,-3.57447 0.75155,-7.14936 0.78097,-10.73798 0.0257,-3.13873 -0.31935,-6.27155 -0.61587,-9.39636 -0.11432,-1.20465 -0.0171,-2.52588 -0.61534,-3.57776 -0.25953,-0.45636 -0.35608,0.99011 -0.58858,1.46081 -0.0774,0.15674 -0.29906,0.23359 -0.33304,0.40503 -0.024,0.12116 0.20889,0.19635 0.18958,0.3183 -0.0165,0.10462 -0.21848,0.0779 -0.26717,0.172 -0.54547,1.05383 -0.93689,2.18347 -1.49429,3.23108 -0.37084,0.6969 -0.94576,1.27679 -1.28388,1.99017 -0.0529,0.11151 0.21332,0.19653 0.19,0.31769 -0.0325,0.16882 -0.25111,0.24432 -0.32783,0.39819 -0.2151,0.43134 -0.30307,0.92163 -0.53976,1.34149 -0.72352,1.28345 -1.59363,2.47968 -2.33283,3.75409 -0.93028,1.60382 -1.75128,3.26917 -2.67378,4.87744 -0.35013,0.61036 -0.84043,1.13965 -1.14226,1.77533 -0.65781,1.38526 -1.10492,2.86243 -1.7258,4.26465 -0.0421,0.095 -0.14874,0.22486 -0.24686,0.19055 -0.28778,-0.10076 -0.52429,-0.32189 -0.74096,-0.53643 -0.0467,-0.0463 -0.033,-0.14038 4e-5,-0.19727 0.0879,-0.15143 0.28676,-0.23114 0.34445,-0.39642 0.63854,-1.82929 1.05959,-3.73139 1.73081,-5.54889 0.62849,-1.70191 1.38211,-3.35681 2.1629,-4.99439 0.55777,-1.16992 1.30634,-2.2434 1.84908,-3.42035 1.17836,-2.55529 2.1369,-5.20794 3.30942,-7.76593 0.0952,-0.20764 0.35658,-0.29827 0.47619,-0.49292 0.22562,-0.36712 0.32434,-0.8023 0.54663,-1.17144 0.25234,-0.41907 0.54508,-0.81617 0.87033,-1.18152 0.54697,-0.61444 1.46244,-0.97589 1.73961,-1.75043 0.53134,-1.48456 0.46988,-3.12241 0.56761,-4.69617 0.0917,-1.47683 0.076,-2.96133 -4.4e-4,-4.43905 -0.0121,-0.23325 -0.26842,-0.41599 -0.26298,-0.64948 0.20672,-8.88339 0.65397,-17.75982 0.89804,-26.64227 0.0552,-2.00775 0.0881,-4.01898 -4.6e-4,-6.02554 -0.0148,-0.33387 -0.2675,-0.62241 -0.30771,-0.95414 -0.0635,-0.52429 -0.0392,-1.0577 2e-5,-1.58435 0.0123,-0.16458 0.0659,-0.33069 0.153,-0.47088 0.0726,-0.11689 0.17475,-0.24506 0.30943,-0.27335 0.16005,-0.0336 0.34376,0.0153 0.47867,0.10776 0.23738,0.16269 0.43383,0.38757 0.59346,0.62701 0.0609,0.0914 0.0418,0.21695 0.0424,0.32682 0.0151,2.96115 0.0852,5.92349 0.005,8.88357 -0.23363,8.57065 -0.6534,17.13526 -0.94731,25.70401 -0.0217,0.63315 -0.0659,1.27051 4.5e-4,1.90054 0.0238,0.22587 0.21143,0.4069 0.26558,0.62748 0.0512,0.20865 0.0463,0.42804 0.0463,0.64288 0,0.21484 0.005,0.43423 -0.0463,0.64288 -0.0541,0.22055 -0.25866,0.40042 -0.26558,0.62744 -0.0836,2.74839 -0.0839,5.50049 -0.005,8.24903 0.0306,1.05969 0.26056,2.10522 0.33397,3.16284 0.2273,3.27521 0.45041,6.55194 0.56792,9.83295 0.005,0.12951 -0.20386,0.20141 -0.20394,0.33099 -6e-5,0.12952 0.21071,0.2016 0.20359,0.33087 -0.1045,1.90033 -0.43503,3.78388 -0.53435,5.68445 -0.007,0.13 0.19418,0.19495 0.22037,0.32251 0.0643,0.31317 0.08,0.64062 0.0424,0.95813 -0.25055,2.11609 -0.66271,4.21118 -0.90514,6.32825 -0.0194,0.16998 0.0161,0.36499 0.12344,0.49823 0.20005,0.24841 0.57718,0.32415 0.7531,0.59021 0.0967,0.14624 0.0287,0.35601 -0.015,0.52581 -0.0228,0.0887 -0.084,0.19977 -0.17476,0.21198 -1.87594,0.25159 -3.76144,0.43799 -5.64961,0.56921 -0.84303,0.0586 -1.69273,0.0658 -2.53519,-4.2e-4 -0.22685,-0.0178 -0.40841,-0.23786 -0.63571,-0.24878 -0.12289,-0.006 -0.19084,0.16571 -0.30789,0.20361 -0.11005,0.0355 -0.2317,0.0189 -0.34683,0.008 -1.78818,-0.16742 -3.56658,-0.45893 -5.36063,-0.54254 -0.23315,-0.0109 -0.41695,0.2395 -0.64925,0.26233 -0.52888,0.0519 -1.06678,0.0269 -1.59373,-0.0421 -0.12291,-0.016 -0.18507,-0.20617 -0.30902,-0.20685 -0.12944,-6.7e-4 -0.20162,0.21186 -0.33078,0.20343 -1.80032,-0.11706 -3.58035,-0.47589 -5.38176,-0.57495 -0.22598,-0.0124 -0.40744,0.23444 -0.63356,0.24414 -0.12318,0.005 -0.19115,-0.16656 -0.30869,-0.20373 -0.10632,-0.0337 -0.22688,-0.0289 -0.33459,1.2e-4 -0.21764,0.0585 -0.39995,0.27063 -0.62496,0.25793 -3.81549,-0.21539 -7.60672,-0.81408 -11.42626,-0.93811 -5.81316,-0.18878 -11.63306,-0.0851 -17.44865,4.3e-4 -0.22707,0.003 -0.40332,0.22882 -0.62745,0.26557 -0.42049,0.069 -0.85138,0.0434 -1.27748,0.0469 -1.26882,0.0105 -2.54009,0.0724 -3.8066,-0.005 -0.2267,-0.0138 -0.40462,-0.22174 -0.62745,-0.26556 -0.31442,-0.0619 -0.63977,-0.0427 -0.9602,-0.0469 -0.73995,-0.01 -1.48334,-0.0651 -2.22005,0.005 -0.22609,0.0215 -0.40248,0.23438 -0.62745,0.26557 -0.52638,0.0729 -1.06495,0.0953 -1.59368,0.0421 -0.22597,-0.0227 -0.40673,-0.2121 -0.62747,-0.26556 -0.20833,-0.0505 -0.43026,-0.077 -0.64171,-0.0418 -0.32964,0.0549 -0.62037,0.29266 -0.95421,0.30737 -2.00657,0.0885 -4.01973,0.10425 -6.02557,4.3e-4 -5.819761,-0.30121 -11.622259,-0.88385 -17.440412,-1.21497 -0.129326,-0.007 -0.201386,0.20374 -0.330925,0.2038 -0.123093,0 -0.190849,-0.16602 -0.308037,-0.20368 -0.10984,-0.0353 -0.235138,-0.0383 -0.346039,-0.006 -0.526298,0.15076 -1.019149,0.40717 -1.547912,0.54908 -0.210892,0.0566 -0.435395,0.0385 -0.653725,0.0417 -0.633865,0.009 -1.271164,0.0605 -1.90181,-0.004 -1.273384,-0.13037 -2.52185,-0.45855 -3.796188,-0.57928 -0.105804,-0.01 -0.192863,0.10724 -0.251663,0.19574 -0.20916,0.31494 -0.26426,0.73901 -0.540558,0.99707 -0.122017,0.11395 -0.36351,0.0707 -0.500214,-0.0251 -0.122902,-0.0862 -0.131355,-0.27703 -0.144096,-0.42663 -0.03585,-0.42078 -0.05878,-0.84869 -1.83e-4,-1.26691 0.03151,-0.22491 0.222328,-0.40448 0.265571,-0.62744 0.06093,-0.31415 0.08522,-0.64203 0.04211,-0.95911 -0.03138,-0.23077 -0.283867,-0.41656 -0.260681,-0.64837 0.08604,-0.86011 0.46653,-1.67078 0.5784,-2.5279 0.08199,-0.62823 0.06516,-1.2705 -4.05e-4,-1.90063 -0.02344,-0.2254 -0.252067,-0.40076 -0.262558,-0.62714 -0.01042,-0.22467 0.204376,-0.41833 0.203644,-0.64325 -4.12e-4,-0.1239 -0.182922,-0.18737 -0.206779,-0.30896 -0.0616,-0.31402 -0.08663,-0.64227 -0.04198,-0.9591 0.03169,-0.22492 0.221733,-0.40467 0.265556,-0.6275 0.06183,-0.31446 0.07665,-0.64124 0.04662,-0.96027 -0.149392,-1.58698 -0.487397,-3.15509 -0.583786,-4.74616 -0.01405,-0.23193 0.257667,-0.41564 0.257019,-0.64801 -6.41e-4,-0.22613 -0.208146,-0.40637 -0.260598,-0.62628 -0.04973,-0.20855 -0.077,-0.4303 -0.04181,-0.64178 0.05485,-0.32959 0.297425,-0.62018 0.307373,-0.95416 0.09444,-3.17133 0.01764,-6.34546 0.0045,-9.51819 -8.92e-4,-0.21479 0.004,-0.43402 -0.04661,-0.64283 -0.05323,-0.21948 -0.275848,-0.39996 -0.260932,-0.6253 0.09141,-1.38117 0.464187,-2.73291 0.574531,-4.11273 0.01037,-0.12961 -0.198517,-0.19397 -0.219871,-0.32224 -0.06999,-0.42038 -0.04652,-0.8515 -0.04649,-1.27765 2.3e-5,-0.21484 -0.0047,-0.4342 0.04662,-0.64282 0.0542,-0.22055 0.256508,-0.40054 0.265564,-0.62747 0.08011,-2.00726 0.08012,-4.01935 8e-6,-6.02661 -0.0091,-0.22696 -0.22171,-0.40463 -0.265572,-0.6275 -0.06188,-0.3144 -0.04687,-0.63971 -0.0469,-0.96015 -3e-5,-0.32049 -0.01855,-0.64654 0.04676,-0.9603 0.02653,-0.12741 0.230438,-0.19265 0.220276,-0.32244 -0.414101,-5.28644 -1.066872,-10.55228 -1.486191,-15.83832 -0.01025,-0.12906 0.209595,-0.20151 0.203537,-0.33087 -0.01065,-0.22733 -0.241692,-0.40827 -0.24884,-0.63575 -0.07639,-2.43038 -0.127594,-4.86654 -4.2e-4,-7.29483 0.06074,-1.15969 0.634857,-2.27914 0.562531,-3.43817 -0.02224,-0.35647 -0.745347,-0.34033 -0.820084,-0.6896 -0.0521,-0.24344 0.429939,-0.27726 0.568993,-0.48374 0.320503,-0.47592 0.394317,-1.11276 0.787536,-1.53061 0.14859,-0.15789 0.458344,-0.098 0.650459,0.003 m 138.013561,0.65161 c 0,0 0,0 0,0 0.0761,0.054 0.21184,0.0702 0.22832,0.16211 0.15034,0.83761 0.2061,1.69055 0.2567,2.54004 0.2442,4.09979 0.69336,8.19867 0.62753,12.3052 -0.0242,1.50543 -0.70753,2.93335 -0.89586,4.42716 -0.029,0.23028 0.25391,0.4154 0.25614,0.64749 0.002,0.22659 -0.24472,0.40799 -0.24384,0.63461 9e-4,0.22754 0.22777,0.40915 0.24879,0.63574 0.049,0.52915 0.0308,1.0673 -0.0421,1.59369 -0.0312,0.22498 -0.23851,0.40195 -0.26559,0.62744 -0.063,0.52436 -0.0588,1.05951 0,1.58435 0.0254,0.22611 0.23475,0.40857 0.24882,0.63569 0.008,0.12332 -0.16336,0.19772 -0.1897,0.31842 -0.0104,0.0478 0.0555,0.13806 0.0961,0.11074 0.23849,-0.1607 0.45647,-0.36209 0.62389,-0.59594 0.33856,-0.47299 0.63393,-0.97971 0.88101,-1.50629 0.57352,-1.22229 1.08302,-2.47433 1.57645,-3.73111 0.19998,-0.50934 0.29579,-1.05612 0.5021,-1.56296 0.45761,-1.12411 0.95296,-2.23373 1.48704,-3.3236 0.26261,-0.53589 0.65933,-1.00159 0.90011,-1.54767 0.5227,-1.18534 0.8804,-2.43802 1.38383,-3.63166 0.50678,-1.20166 1.17051,-2.33502 1.64493,-3.54977 0.10396,-0.26621 -0.0836,-0.61627 0.075,-0.85403 0.25417,-0.38111 0.62964,-0.73566 1.06978,-0.86261 0.61512,-0.17743 1.30782,-0.18543 1.92057,0 0.38876,0.11764 0.63851,0.51736 0.87654,0.84649 0.32853,0.45432 0.67042,0.93286 0.80401,1.47739 0.0425,0.17328 -0.25648,0.25574 -0.34018,0.41333 -0.19917,0.37503 -0.4207,0.75421 -0.50125,1.17111 -0.0243,0.12573 0.17365,0.19772 0.21329,0.31949 0.0345,0.10608 0.068,0.24646 -2.6e-4,0.33472 -0.38521,0.49823 -0.98949,0.81906 -1.31062,1.36077 -0.78434,1.32309 -1.24511,2.81601 -1.96962,4.17276 -0.38976,0.72989 -1.00046,1.33042 -1.3656,2.07291 -0.0545,0.11075 0.21562,0.19705 0.18997,0.31775 -0.0377,0.17746 -0.26199,0.25919 -0.34671,0.41962 -0.29303,0.55502 -0.46195,1.17257 -0.77966,1.7138 -0.16395,0.2793 -0.51905,0.42581 -0.65012,0.72196 -0.05,0.11282 0.2139,0.19665 0.18994,0.31769 -0.0339,0.17126 -0.25116,0.25006 -0.33284,0.40432 -0.19868,0.37528 -0.41745,0.75486 -0.50124,1.17115 -0.0252,0.12551 0.25058,0.21087 0.19948,0.3283 -0.1313,0.3017 -0.46751,0.46695 -0.6613,0.73285 -0.19145,0.26276 -0.40977,0.52887 -0.4881,0.84439 -0.0306,0.12345 0.19602,0.19928 0.19748,0.32645 0.001,0.12326 -0.18989,0.19403 -0.18998,0.31732 -1e-4,0.12305 0.25386,0.21192 0.18953,0.3168 -0.19716,0.32151 -0.67913,0.41361 -0.84514,0.7522 -0.0836,0.1706 0.30217,0.35605 0.21823,0.52646 -0.31296,0.63529 -0.94699,1.06571 -1.30385,1.6774 -0.55528,0.95184 -0.89949,2.01398 -1.41719,2.98679 -0.32565,0.6119 -0.77205,1.15335 -1.1086,1.75936 -0.19342,0.34824 -0.28404,0.74726 -0.47706,1.09571 -0.0853,0.15402 -0.30622,0.22543 -0.34938,0.39612 -0.0791,0.3128 -0.0807,0.6567 0.004,0.96792 0.0227,0.083 0.18311,0.0345 0.25802,-0.008 0.13507,-0.0764 0.23988,-0.2013 0.33238,-0.32587 0.19893,-0.26788 0.31991,-0.59137 0.53695,-0.84479 0.39843,-0.46521 0.83408,-0.90091 1.29931,-1.29931 0.25343,-0.21704 0.59146,-0.3198 0.8448,-0.53693 0.49092,-0.42081 0.88541,-0.9461 1.37634,-1.36691 0.25333,-0.21713 0.60567,-0.30423 0.84477,-0.53693 3.64985,-3.55243 7.11136,-7.29696 10.80594,-10.80285 0.41255,-0.39148 1.01346,-0.52442 1.47753,-0.85321 0.25631,-0.18158 0.47139,-0.41999 0.66676,-0.66596 0.19334,-0.24344 0.25751,-0.58801 0.49164,-0.79254 0.61612,-0.53815 1.37599,-0.88986 2.01671,-1.39847 0.36258,-0.28781 0.68295,-0.62863 0.98201,-0.98199 0.26785,-0.31653 0.41545,-0.73029 0.71217,-1.01996 0.36725,-0.35855 0.77536,-0.70535 1.25145,-0.89707 0.29967,-0.12069 0.67012,-0.11941 0.96915,0.003 0.13736,0.0562 0.10351,0.28562 0.0994,0.43396 -0.002,0.0639 -0.0618,0.1185 -0.11561,0.15305 -0.37021,0.23773 -0.81821,0.36197 -1.14504,0.65649 -0.74193,0.66858 -1.29547,1.52689 -2.02946,2.20419 -0.64637,0.59644 -1.44541,1.01087 -2.09604,1.60267 -0.54784,0.49832 -0.92214,1.17092 -1.48381,1.65356 -0.51187,0.43982 -1.16448,0.68726 -1.70722,1.08841 -0.25198,0.18622 -0.46956,0.41952 -0.6647,0.66467 -0.20767,0.26087 -0.30071,0.60849 -0.53648,0.84427 -0.51284,0.51282 -1.17118,0.86472 -1.68467,1.37689 -0.31802,0.31717 -0.44528,0.80374 -0.79017,1.0915 -0.31511,0.26293 -0.80432,0.24609 -1.12296,0.50473 -0.25566,0.20751 -0.32249,0.57754 -0.52763,0.83511 -0.18987,0.2384 -0.38374,0.4946 -0.64977,0.64331 -0.11444,0.064 -0.30439,-0.16373 -0.38826,-0.0629 -0.48866,0.58725 -0.68171,1.38831 -1.18953,1.95908 -0.10726,0.12054 -0.31498,-0.0907 -0.47633,-0.0867 -0.0633,0.002 -0.12228,0.0514 -0.16,0.10229 -0.19966,0.26914 -0.31807,0.59775 -0.54335,0.84583 -0.21797,0.24002 -0.53815,0.36841 -0.76741,0.59768 -0.44075,0.44074 -0.73793,1.02787 -1.2347,1.40436 -0.16434,0.12454 -0.45399,-0.12399 -0.61857,2.2e-4 -0.51505,0.3887 -0.80356,1.01986 -1.29187,1.44165 -0.31438,0.27154 -0.7665,0.34604 -1.08564,0.61193 -0.50961,0.4246 -1.12623,0.82349 -1.37512,1.43833 -0.0945,0.23346 0.5079,0.19211 0.74709,0.11319 1.62457,-0.53598 3.14013,-1.36676 4.75592,-1.92871 3.10933,-1.08139 6.2955,-1.9317 9.41003,-2.99808 0.59348,-0.20319 1.11318,-0.58582 1.70055,-0.80603 1.95678,-0.73367 3.96097,-1.33548 5.92386,-2.05267 1.41055,-0.51535 2.76724,-1.17707 4.19448,-1.6442 0.15824,-0.0518 0.34241,0.029 0.48671,0.11212 0.1185,0.0682 0.24417,0.18161 0.25968,0.31745 0.012,0.10492 -0.10521,0.19394 -0.19484,0.24975 -0.37627,0.23438 -0.77577,0.43225 -1.1826,0.60825 -1.0738,0.46454 -2.15548,0.91342 -3.25551,1.31177 -2.25224,0.81555 -4.55037,1.50128 -6.79823,2.32882 -0.5685,0.20929 -1.06885,0.58295 -1.6422,0.77854 -2.78415,0.94983 -5.63292,1.70279 -8.41687,2.65313 -1.77274,0.6052 -3.46443,1.43659 -5.24722,2.01145 -0.12671,0.0408 -0.20983,-0.23892 -0.33979,-0.20999 -0.45208,0.10064 -0.96129,0.22097 -1.26809,0.56793 -0.1269,0.14349 0.23198,0.32974 0.40849,0.40417 0.62051,0.26163 1.27382,0.45136 1.93413,0.58356 1.32765,0.26578 2.67212,0.44443 4.01622,0.60764 0.21246,0.0258 0.43269,0.008 0.64068,-0.0422 0.22072,-0.0536 0.4005,-0.25812 0.62752,-0.26556 2.53673,-0.0832 5.0778,-0.0957 7.61426,-0.005 3.28415,0.11768 6.55693,0.4567 9.83859,0.63022 0.42477,0.0225 0.85596,0.0282 1.27541,-0.0425 0.12314,-0.0208 0.18054,-0.18951 0.30072,-0.22342 0.20601,-0.0581 0.42737,-0.059 0.64074,-0.0423 2.41742,0.18963 4.83947,0.35101 7.24443,0.66079 0.40809,0.0526 0.84765,0.15412 1.16007,0.42185 0.1194,0.10232 0.008,0.40597 -0.14345,0.44934 -0.51146,0.14676 -1.06456,0.0846 -1.5955,0.0496 -2.21839,-0.14618 -4.42202,-0.49863 -6.64325,-0.5925 -0.3364,-0.0142 -0.63895,0.22964 -0.97315,0.27069 -0.41957,0.0515 -0.84552,0.0138 -1.26812,0.004 -0.21482,-0.005 -0.43635,0.0125 -0.6429,-0.0466 -0.12006,-0.0344 -0.1785,-0.1977 -0.30068,-0.22345 -0.31312,-0.066 -0.64204,-0.0854 -0.95909,-0.0421 -0.32996,0.0451 -0.6192,0.31537 -0.95198,0.30304 -2.5462,-0.0944 -5.07286,-0.51492 -7.61861,-0.62082 -2.42952,-0.10104 -4.86486,-0.0889 -7.29482,4.6e-4 -0.33311,0.0122 -0.6197,0.3027 -0.95302,0.3027 -0.33331,0 -0.62039,-0.28131 -0.95302,-0.3027 -0.76181,-0.0491 -2.32843,-0.66836 -2.28821,0.094 0.05,0.94721 1.53337,1.13019 2.37578,1.56611 1.90378,0.98507 3.9517,1.67675 5.84256,2.6864 1.29564,0.69183 2.41702,1.67608 3.6923,2.40478 0.95079,0.54328 2.02489,0.85077 2.97078,1.40253 0.33647,0.19629 0.50103,0.61706 0.83502,0.8175 1.2642,0.75855 2.6391,1.31757 3.92501,2.03864 0.64293,0.36059 1.20515,0.85608 1.85554,1.203 0.93911,0.50092 1.95162,0.85291 2.90099,1.33405 0.0957,0.0485 0.17448,0.14221 0.21101,0.2431 0.0379,0.1048 0.0723,0.25122 -0.002,0.33441 -0.0995,0.11164 -0.27602,0.12946 -0.42482,0.14423 -0.21662,0.0215 -0.44655,0.0347 -0.65197,-0.0373 -0.61688,-0.21637 -1.20329,-0.51465 -1.78308,-0.81666 -0.75694,-0.39434 -1.50616,-0.80731 -2.22308,-1.27044 -0.20235,-0.13068 -0.30864,-0.38642 -0.52013,-0.50177 -0.96138,-0.52442 -2.01811,-0.86273 -2.97091,-1.40265 -0.76691,-0.43457 -1.41066,-1.06378 -2.17045,-1.51074 -1.04206,-0.61298 -2.17985,-1.05213 -3.22363,-1.66217 -0.7354,-0.42987 -1.382,-0.99823 -2.10335,-1.45124 -0.71743,-0.45062 -1.44453,-0.89187 -2.20897,-1.25717 -0.65463,-0.3128 -1.37957,-0.46087 -2.03546,-0.77109 -2.16772,-1.02517 -4.24498,-2.2373 -6.42721,-3.23114 -0.2002,-0.0912 -0.4561,-0.0793 -0.65996,0.003 -0.1817,0.0737 -0.49428,0.25418 -0.40355,0.42798 0.20087,0.38477 0.72295,0.48773 1.03763,0.78668 1.36107,1.29303 2.72461,2.58878 3.98244,3.98242 0.67643,0.74952 1.11122,1.69898 1.80613,2.43134 1.26696,1.33521 2.75545,2.44452 4.05616,3.74683 0.37669,0.37719 0.56329,0.92364 0.96189,1.27752 0.53449,0.47449 1.25837,0.70026 1.79615,1.17108 0.34187,0.29926 0.50772,0.75586 0.80121,1.10267 0.27275,0.32232 0.56564,0.63159 0.89251,0.89886 0.56629,0.46307 1.23947,0.79102 1.77872,1.28534 0.73627,0.67493 1.3065,1.51526 2.02887,2.20502 0.25384,0.24243 0.63403,0.32666 0.88222,0.57483 0.23347,0.23346 0.32132,0.58081 0.52963,0.83697 0.24074,0.29602 0.51411,0.56769 0.80933,0.80939 0.27189,0.22259 0.66609,0.29944 0.8829,0.57599 0.55931,0.71338 0.88856,1.58282 1.3977,2.33282 0.1856,0.27344 0.5174,0.43476 0.67731,0.72394 0.0851,0.15387 0.11043,0.37988 0.0146,0.52728 -0.15645,0.2406 -0.46391,0.68848 -0.69124,0.51331 -0.57483,-0.44299 -0.68211,-1.2843 -1.089,-1.88519 -0.18532,-0.27369 -0.50658,-0.44111 -0.67766,-0.72388 -0.092,-0.15204 0.0272,-0.38495 -0.0792,-0.52728 -0.19037,-0.25452 -0.52402,-0.36451 -0.75279,-0.58509 -1.34857,-1.30041 -2.67691,-2.62249 -3.97466,-3.97357 -0.14428,-0.15021 -0.1817,-0.39075 -0.34338,-0.52203 -0.39733,-0.3227 -0.91219,-0.48249 -1.30194,-0.81433 -0.71871,-0.61182 -1.36209,-1.30854 -2.00424,-2.00031 -0.0904,-0.0974 -0.0803,-0.2691 -0.1819,-0.3548 -0.5952,-0.50232 -1.28266,-0.88751 -1.88096,-1.3861 -0.37872,-0.31562 -0.72647,-0.67084 -1.04185,-1.04975 -0.19888,-0.23889 -0.27124,-0.57324 -0.49159,-0.79248 -0.23404,-0.23291 -0.5941,-0.30609 -0.83702,-0.52966 -1.05109,-0.96759 -2.08342,-1.961 -3.03052,-3.03058 -0.66933,-0.7558 -1.12668,-1.68457 -1.80617,-2.43134 -1.44038,-1.58291 -2.96844,-3.08715 -4.53871,-4.54135 -0.11998,-0.11111 -0.31558,-0.10327 -0.4791,-0.10553 -0.0464,-6.4e-4 -0.093,0.0516 -0.0995,0.0976 -0.0307,0.2185 -0.087,0.45614 -0.007,0.66192 1.73053,4.47083 3.70971,8.84314 5.42007,13.32172 0.46099,1.20715 0.6839,2.49335 1.08831,3.72058 0.38543,1.16974 0.76957,2.34516 1.27983,3.46613 0.19343,0.42492 0.63832,0.7066 0.8161,1.13836 0.78761,1.91278 1.29872,3.93061 2.06268,5.85297 0.15042,0.37854 0.48213,0.66058 0.66957,1.02222 0.0517,0.0997 0.0495,0.22387 0.034,0.33502 -0.0206,0.14789 -0.0344,0.31994 -0.14005,0.42541 -0.0775,0.0773 -0.21762,0.0547 -0.32615,0.04 -0.16263,-0.022 -0.33127,-0.0596 -0.46959,-0.14783 -0.11539,-0.0737 -0.245,-0.18188 -0.25997,-0.31793 -0.0135,-0.12268 0.23105,-0.20135 0.18999,-0.31775 -0.13821,-0.39172 -0.51422,-0.6651 -0.67236,-1.04919 -0.52997,-1.28729 -0.84519,-2.65662 -1.38208,-3.94104 -0.30414,-0.72766 -0.78595,-1.36878 -1.13332,-2.07678 -0.2511,-0.51184 -0.453,-1.04663 -0.65976,-1.57795 -0.31898,-0.81958 -0.64423,-1.63787 -0.91714,-2.47393 -0.50365,-1.54291 -0.85175,-3.13654 -1.41156,-4.65998 -0.61701,-1.67901 -1.44828,-3.27221 -2.11353,-4.93274 -0.3943,-0.98413 -0.65631,-2.01867 -1.06357,-2.99755 -0.14103,-0.33905 -0.23591,-0.79792 -0.57455,-0.94001 -0.2074,-0.087 -0.40839,0.29352 -0.4335,0.51703 -0.0375,0.33325 0.23799,0.63593 0.26637,0.97003 0.0626,0.73737 0.0154,1.48011 0.004,2.2201 -0.003,0.21478 0.0119,0.43609 -0.0466,0.64282 -0.0338,0.11951 -0.21826,0.17621 -0.22047,0.30041 -0.004,0.22486 0.21161,0.41846 0.20367,0.64325 -0.008,0.22742 -0.22659,0.40924 -0.24881,0.63568 -0.0618,0.63086 -0.0668,1.27131 0,1.90168 0.0352,0.33142 0.3019,0.61969 0.30277,0.953 8.7e-4,0.33246 -0.2899,0.61957 -0.29773,0.9519 -0.005,0.22608 0.20744,0.40656 0.26057,0.62641 0.0505,0.2088 0.0717,0.4295 0.0463,0.64282 -0.0637,0.53485 -0.30026,1.047 -0.31154,1.58545 -0.005,0.22699 0.21115,0.40692 0.26524,0.6275 0.0512,0.20862 0.0463,0.42798 0.0463,0.64282 1e-5,0.21491 0.009,0.43531 -0.0462,0.64295 -0.0318,0.11975 -0.21166,0.18518 -0.20681,0.30902 0.009,0.22644 0.24686,0.40802 0.24384,0.63458 -0.003,0.22614 -0.2074,0.40656 -0.26061,0.62634 -0.0505,0.20887 -0.0466,0.42804 -0.0466,0.64283 0,0.42614 -0.0245,0.85742 0.0466,1.27759 0.0207,0.12243 0.17969,0.18304 0.22042,0.30041 0.0366,0.10535 0.0289,0.22687 0,0.33459 -0.0584,0.2179 -0.26329,0.4004 -0.25754,0.62592 0.008,0.3324 0.2899,0.61957 0.29773,0.95197 0.005,0.22607 -0.20815,0.40637 -0.26059,0.62634 -0.0497,0.20849 -0.0718,0.42944 -0.0418,0.64172 0.0471,0.33332 0.28719,0.63697 0.27019,0.97315 -0.0747,1.47882 -0.4366,2.93188 -0.54224,4.40881 -0.009,0.12903 0.20874,0.20142 0.20326,0.33069 -0.01,0.22619 -0.26794,0.40857 -0.2442,0.63367 0.091,0.86297 0.58094,1.67034 0.57884,2.53802 -0.001,0.50897 -0.35701,0.95569 -0.58833,1.40906 -0.0209,0.041 -0.0924,0.023 -0.13725,0.0132 -0.16724,-0.0366 -0.34577,-0.0601 -0.491,-0.15069 -0.11613,-0.0725 -0.24841,-0.18158 -0.25998,-0.318 -0.0105,-0.12359 0.17545,-0.18927 0.2068,-0.3092 0.0542,-0.2074 0.0789,-0.4306 0.0417,-0.64172 -0.0394,-0.2237 -0.21112,-0.40699 -0.26527,-0.62757 -0.0512,-0.20862 -0.0451,-0.42798 -0.0466,-0.64282 -0.0126,-1.79767 -0.0761,-3.59723 0.004,-5.39313 0.0102,-0.22693 0.21137,-0.40692 0.26558,-0.6275 0.0513,-0.20862 0.0463,-0.42798 0.0466,-0.64282 0.0138,-8.7782 0.16705,-17.55805 -0.004,-26.33457 -0.0123,-0.63076 -0.22228,-1.27035 -0.54492,-1.8125 -0.17719,-0.29773 -0.63472,-0.31369 -0.87116,-0.56698 -0.11668,-0.12497 -0.1548,-0.32999 -0.12295,-0.49799 0.13318,-0.70276 0.26667,-1.42911 0.60736,-2.05798 0.19243,-0.35526 0.95965,-0.37552 0.92906,-0.77835 -0.0323,-0.42591 -0.74777,-0.435 -1.04451,-0.74222 -0.22287,-0.23078 -0.40327,-0.52313 -0.47881,-0.83493 -0.0299,-0.1236 0.1987,-0.19928 0.19745,-0.32645 -0.001,-0.12314 -0.16627,-0.19086 -0.2037,-0.30816 -0.0348,-0.10923 -0.0486,-0.23816 -0.004,-0.34391 0.12539,-0.29931 0.2981,-0.58102 0.49869,-0.83609 0.23242,-0.29559 0.64835,-0.45627 0.79114,-0.80414 0.21437,-0.52221 0.18332,-1.11538 0.22781,-1.67816 0.35511,-4.49206 0.69265,-8.98587 0.97077,-13.48337 0.0456,-0.7376 0.032,-1.47872 1.3e-4,-2.21707 -0.1643,-3.80325 -0.4772,-7.60003 -0.58865,-11.40518 -0.01,-0.3353 0.22014,-0.64523 0.22589,-0.98062 0.002,-0.12332 -0.25908,-0.19858 -0.20378,-0.30884 M 81.389765,469.9785 c 0,0 0,0 0,0 -0.105454,0.0697 -0.190011,0.20553 -0.316353,0.20907 -0.124024,0.003 -0.19545,-0.19879 -0.319298,-0.19131 -0.22715,0.0137 -0.408424,0.23807 -0.635735,0.24881 -1.745674,0.0824 -3.514969,-0.23373 -5.242767,0.0287 -0.285423,0.0433 -0.247635,0.52874 -0.298813,0.81289 -0.262817,1.45893 -0.525047,2.92298 -0.640419,4.40088 -0.09866,1.26398 -0.05952,2.53699 -1.5e-5,3.80341 0.142456,3.03216 0.325989,6.06375 0.605591,9.08633 0.260917,2.82059 0.371193,5.67856 1.015381,8.43695 0.09933,0.42536 0.495475,-0.72226 0.695617,-1.1105 0.286095,-0.55503 0.46283,-1.1629 0.759537,-1.71231 0.698662,-1.29373 1.43795,-2.56668 2.222733,-3.81006 0.4841,-0.767 1.005035,-1.51383 1.580162,-2.21518 0.170471,-0.20789 0.496444,-0.26389 0.63945,-0.49155 0.05469,-0.0871 -0.196984,-0.15973 -0.168335,-0.25848 0.09062,-0.31229 0.315971,-0.56876 0.48838,-0.84448 0.202088,-0.32315 0.385521,-0.66266 0.63456,-0.95121 0.109199,-0.12649 0.337204,-0.12744 0.421203,-0.27191 0.961548,-1.65399 1.830284,-3.36108 2.685723,-5.07236 0.355339,-0.71084 0.571716,-1.48718 0.944198,-2.1892 0.720291,-1.35755 1.646843,-2.60178 2.328598,-3.97907 0.05642,-0.11395 -0.236389,-0.20544 -0.197357,-0.32648 0.08312,-0.25766 0.421669,-0.37744 0.507279,-0.63427 0.03902,-0.11704 -0.251587,-0.21079 -0.189957,-0.31766 0.239006,-0.41449 0.683601,-0.67343 0.97863,-1.05011 0.200073,-0.25546 0.40303,-0.526 0.498619,-0.83609 0.04474,-0.14511 -0.0037,-0.32968 -0.104202,-0.44348 -0.07293,-0.0825 -0.217194,-0.0448 -0.327332,-0.0449 -0.531395,-8.6e-4 -1.067253,-0.031 -1.59362,0.0419 -0.224968,0.0311 -0.401138,0.24655 -0.627457,0.26559 -0.842094,0.0708 -1.694626,0.0874 -2.535217,4.3e-4 -1.064278,-0.11008 -2.097771,-0.42682 -3.15535,-0.58905 m 9.91948,1.71823 c 0,0 0,0 0,0 -0.0343,-0.24826 0.147567,-0.73648 -0.10289,-0.74472 -0.24836,-0.008 -0.140862,0.49164 -0.106858,0.73779 m 21.995879,1.1539 c 0,0 0,0 0,0 0.0383,0.14401 0.15437,0.28836 0.1148,0.43201 -0.046,0.16687 -0.27115,0.23294 -0.3415,0.39105 -0.21269,0.47809 -0.27339,1.01572 -0.4952,1.48965 -0.99147,2.1185 -2.00053,4.23261 -3.13908,6.27585 -0.71077,1.27555 -1.81303,2.32764 -2.40004,3.66465 -0.99268,2.26095 -1.48602,4.71048 -2.30054,7.04156 -0.3744,1.07153 -0.77585,2.13724 -1.2646,3.16171 -0.3824,0.80152 -0.85436,1.55933 -1.34182,2.30167 -0.33968,0.51724 -0.81024,0.94235 -1.13455,1.46936 -0.4582,0.7446 -0.74858,1.58389 -1.20368,2.33038 -0.12381,0.20307 -0.417723,0.27567 -0.51689,0.49185 -0.0435,0.0948 0.19963,0.16166 0.171104,0.26197 -0.170807,0.60064 -0.465675,1.15979 -0.735557,1.72293 -0.422448,0.88147 -0.853791,1.76037 -1.34018,2.60824 -0.234138,0.40818 -0.574562,0.74793 -0.816635,1.15143 -0.393517,0.65595 -0.705216,1.35816 -1.086716,2.02115 -0.125458,0.21802 -0.255516,0.43958 -0.432235,0.61859 -0.225914,0.22888 -0.590294,0.31967 -0.7622,0.59146 -0.08626,0.13639 0.16993,0.33789 0.08688,0.47623 -0.182152,0.3035 -0.598816,0.40924 -0.795158,0.70371 -0.05471,0.0821 0.21479,0.1668 0.16008,0.2489 -0.196198,0.29425 -0.598526,0.40875 -0.794724,0.70306 -0.05471,0.082 0.214722,0.16669 0.160111,0.24884 -0.19571,0.29431 -0.580887,0.42108 -0.793366,0.70355 -0.04427,0.0588 0.176941,0.12287 0.129387,0.17914 -0.287956,0.34058 -0.749161,0.51312 -1.016472,0.87018 -0.08089,0.10809 0.156021,0.29907 0.06589,0.39954 -0.39505,0.44036 -0.999275,0.65515 -1.401306,1.08911 -0.06737,0.0727 0.244919,0.19885 0.160324,0.25055 -0.120308,0.0735 -0.270775,-0.0964 -0.411774,-0.0968 -0.05927,-1.9e-4 -0.112846,0.0491 -0.150268,0.0951 -0.131462,0.1615 -0.19796,0.37475 -0.34893,0.51819 -0.332642,0.3161 -0.678009,0.63617 -1.086319,0.84546 -0.08803,0.0452 -0.167206,-0.2154 -0.249543,-0.16059 -0.294647,0.19617 -0.397689,0.61737 -0.703758,0.79523 -0.109764,0.0637 -0.203422,-0.23041 -0.325905,-0.19702 -0.330208,0.0899 -0.653297,0.27112 -0.88179,0.52588 -0.546173,0.60901 -0.866241,1.3955 -1.398476,2.01672 -0.740715,0.86456 -1.743759,1.49811 -2.406082,2.42407 -0.423111,0.59155 -0.466346,1.3819 -0.784095,2.03613 -0.08183,0.16846 -0.246277,0.28663 -0.397622,0.39692 -0.06596,0.0481 -0.159591,0.0934 -0.236068,0.0649 -0.353249,-0.13153 -0.809906,-0.20081 -1.001252,-0.52551 -0.193565,-0.32856 -0.064,-0.77137 0.01771,-1.14374 0.09093,-0.41449 0.310631,-0.79041 0.490883,-1.1745 0.198639,-0.42328 0.402023,-0.84619 0.644852,-1.24573 0.328514,-0.54059 0.653221,-1.09076 1.066215,-1.56995 0.288674,-0.3349 0.725197,-0.51873 1.018944,-0.84918 0.557404,-0.62707 0.962128,-1.37951 1.519524,-2.00659 0.29377,-0.33044 0.719665,-0.52386 1.01902,-0.8493 0.207931,-0.22608 0.244186,-0.59198 0.483627,-0.78431 0.334961,-0.2691 0.796532,-0.32891 1.168907,-0.54327 0.510514,-0.29388 1.029145,-0.58929 1.472412,-0.97717 0.389611,-0.34101 0.707734,-0.76099 1.001145,-1.18756 0.299476,-0.43543 0.476356,-0.94635 0.769188,-1.38626 0.550354,-0.82685 1.218513,-1.57209 1.755989,-2.40735 0.233391,-0.3627 0.325371,-0.80265 0.547493,-1.1724 0.267639,-0.44549 0.723274,-0.77932 0.915161,-1.26233 0.07561,-0.1903 -0.218208,-0.38598 -0.180344,-0.58722 0.04081,-0.21685 0.306939,-0.33007 0.391327,-0.53396 0.02492,-0.0602 -0.164619,-0.15289 -0.101074,-0.1673 0.137512,-0.0312 0.279404,0.1453 0.411797,0.0968 0.183601,-0.0673 0.384979,-0.21234 0.425666,-0.40359 0.04675,-0.21979 -0.293487,-0.43711 -0.203033,-0.64282 0.142471,-0.32398 0.599106,-0.40903 0.795143,-0.70371 0.05492,-0.0826 -0.231171,-0.18115 -0.160362,-0.25058 0.08398,-0.0823 0.245537,0.12952 0.346069,0.0685 0.159233,-0.0966 0.225594,-0.29907 0.308632,-0.46579 0.702293,-1.41003 1.225304,-2.91519 2.045242,-4.26022 0.355385,-0.58295 1.055497,-0.89243 1.439896,-1.4567 0.766796,-1.12558 1.369206,-2.35644 1.985246,-3.57107 0.24334,-0.4798 0.43921,-0.98599 0.58823,-1.5029 0.62102,-2.15433 1.0508,-4.36264 1.71953,-6.50262 0.0657,-0.21039 0.36262,-0.27692 0.46073,-0.47431 0.42956,-0.86413 0.59709,-1.85535 1.10515,-2.67581 0.87919,-1.4198 2.15822,-2.56622 3.02488,-3.99371 0.93993,-1.54825 1.48936,-3.30674 2.36865,-4.89017 0.25024,-0.45065 0.52547,-0.9801 1.00123,-1.17844 m -9.12007,2.22061 c 0,0 0,0 0,0 0.17956,0.25077 0.44565,0.45826 0.53869,0.75232 0.0384,0.12122 -0.19584,0.19922 -0.19739,0.32636 -0.002,0.12305 0.18347,0.19385 0.18956,0.31671 0.005,0.0995 -0.1947,0.15753 -0.16144,0.2514 0.0972,0.27423 0.55048,0.42612 0.50318,0.7132 -0.17796,1.07996 -0.70994,2.0722 -1.12881,3.0834 -0.55591,1.34201 -1.264,2.61893 -1.79358,3.97156 -0.42205,1.07797 -0.60242,2.2435 -1.056648,3.30829 -0.967957,2.26913 -2.096268,4.46707 -3.201073,6.67279 -0.182266,0.36389 -0.528786,0.64298 -0.656746,1.02933 -0.04118,0.12433 0.242409,0.2099 0.204743,0.33533 -0.285973,0.95239 -0.707444,1.86102 -1.133973,2.7593 -0.161384,0.33988 -0.386215,0.64887 -0.623092,0.94117 -0.241051,0.29748 -0.598618,0.49713 -0.804184,0.82015 -0.540558,0.8494 -0.874481,1.81922 -1.415749,2.66819 -0.209083,0.32794 -0.593559,0.51474 -0.816627,0.83331 -0.521782,0.74515 -0.879158,1.59729 -1.405068,2.33954 -0.103363,0.1459 -0.342773,0.14529 -0.454429,0.28494 -0.319626,0.39981 -0.461182,0.93134 -0.814278,1.30191 -0.437744,0.45944 -0.956474,0.85404 -1.519272,1.14719 -0.109619,0.0571 -0.197685,-0.21549 -0.318588,-0.18979 -0.112991,0.024 -0.09537,0.21771 -0.18039,0.2959 -0.338783,0.31158 -0.681327,0.62979 -1.078674,0.86209 -0.154548,0.0904 -0.377754,-0.0131 -0.531196,0.0791 -0.249039,0.14963 -0.451348,0.37601 -0.620026,0.61255 -0.240311,0.33704 -0.314797,0.78506 -0.594261,1.09042 -0.408608,0.44648 -1.039719,0.65668 -1.428887,1.12018 -0.104156,0.12409 0.196381,0.35871 0.08692,0.47815 -0.116425,0.12695 -0.439735,-0.16333 -0.516785,-0.009 -0.100479,0.20093 0.253907,0.42585 0.199479,0.6438 -0.02826,0.11322 -0.252793,-0.14074 -0.34343,-0.0673 -0.380508,0.30835 -0.703865,0.6966 -0.953239,1.1181 -0.440621,0.74482 -0.703461,1.5824 -1.099534,2.35181 -0.49562,0.96277 -1.020172,1.91132 -1.573989,2.84186 -0.05443,0.0914 -0.141556,0.17242 -0.241593,0.20874 -0.1044,0.0379 -0.245903,0.0687 -0.333198,0 -0.279473,-0.21985 -0.402062,-0.60785 -0.695267,-0.80896 -0.08172,-0.056 -0.152825,0.14276 -0.250351,0.16034 -0.04784,0.009 -0.0929,-0.0501 -0.110207,-0.0955 -0.0242,-0.0635 -0.03774,-0.1449 -0.0039,-0.20386 0.153633,-0.26721 0.458107,-0.44958 0.548912,-0.74414 0.03875,-0.12573 -0.259544,-0.20404 -0.21814,-0.32892 0.492256,-1.48449 1.108734,-2.92792 1.768311,-4.34601 0.09871,-0.21222 0.364105,-0.30633 0.487915,-0.50494 0.40464,-0.64917 0.67614,-1.37579 1.086754,-2.02115 0.510231,-0.802 1.021278,-1.61667 1.669815,-2.31158 0.845947,-0.90647 1.785827,-1.73194 2.786728,-2.46372 0.360748,-0.26376 0.875854,-0.24121 1.249084,-0.48697 0.07802,-0.0514 -0.173714,-0.14102 -0.156113,-0.23275 0.02577,-0.13431 0.130578,-0.27646 0.261414,-0.3162 0.152237,-0.0462 0.320213,0.15445 0.467743,0.0949 0.236374,-0.0954 0.417641,-0.30636 0.56739,-0.51263 0.415093,-0.57178 0.831841,-1.15552 1.113976,-1.80329 0.04936,-0.11334 -0.258576,-0.21588 -0.189789,-0.31857 0.367142,-0.54825 0.997604,-0.88583 1.363884,-1.43469 0.08827,-0.13226 -0.09633,-0.30859 -0.09438,-0.46759 7.63e-4,-0.0632 0.05472,-0.11786 0.102043,-0.15973 0.21994,-0.19464 0.529549,-0.30005 0.69313,-0.54398 0.05522,-0.0824 -0.242599,-0.19519 -0.160339,-0.25055 0.143463,-0.0965 0.40931,0.14335 0.518654,0.009 0.137123,-0.16793 0.04922,-0.43823 0.0047,-0.65042 -0.02553,-0.12158 -0.295891,-0.22415 -0.206406,-0.31033 0.124596,-0.12 0.388398,0.12299 0.518875,0.009 0.136147,-0.1185 -0.0055,-0.37848 0.08474,-0.53476 0.118027,-0.20435 0.393433,-0.28644 0.508576,-0.4924 0.03661,-0.0655 -0.176064,-0.12296 -0.13102,-0.18292 0.307182,-0.40903 0.793594,-0.6651 1.084129,-1.08612 0.05651,-0.0819 -0.197487,-0.15854 -0.1613,-0.25122 0.09837,-0.25196 0.424789,-0.37592 0.506797,-0.63367 0.0376,-0.11814 -0.186691,-0.18683 -0.206779,-0.30918 -0.0529,-0.32217 -0.07163,-0.65985 -0.0048,-0.97943 0.111397,-0.53268 0.294838,-1.05371 0.532356,-1.54333 0.566536,-1.16782 1.20195,-2.30283 1.872612,-3.41412 0.123635,-0.20487 0.364968,-0.31778 0.499146,-0.5159 0.225479,-0.33292 0.339767,-0.73349 0.570167,-1.06305 0.136277,-0.19492 0.417,-0.276 0.516915,-0.49186 0.04341,-0.0938 -0.202423,-0.16229 -0.168877,-0.26007 0.724419,-2.11093 1.524635,-4.19754 2.402725,-6.24929 0.09208,-0.21515 0.364304,-0.30619 0.487885,-0.50495 0.574013,-0.92325 1.095859,-1.87906 1.594849,-2.84494 0.2866,-0.55475 0.46991,-1.15915 0.75954,-1.71228 0.17762,-0.3392 0.407,-0.64978 0.63741,-0.9556 0.0639,-0.0848 0.13832,-0.17913 0.24014,-0.20913 m 54.68973,0.72952 c 0,0 0,0 0,0 0.003,0.96289 0.2708,1.96167 0.0104,2.8887 -0.3433,1.22244 -1.11616,2.28449 -1.76911,3.37345 -0.31867,0.53146 -0.81583,0.94101 -1.13599,1.47158 -0.48715,0.80735 -0.88904,1.6648 -1.27553,2.52491 -0.90414,2.01205 -1.64081,4.09872 -2.59465,6.0877 -1.68495,3.51352 -3.64873,6.88932 -5.31734,10.41062 -1.18826,2.5076 -2.06469,5.155 -3.248,7.66498 -0.98337,2.08584 -2.11986,4.09695 -3.24583,6.10946 -0.22975,0.41059 -0.57886,0.74536 -0.81661,1.15143 -1.11642,1.90686 -2.20585,3.83032 -3.2426,5.78162 -0.99533,1.87335 -1.85405,3.81726 -2.85202,5.68914 -0.92828,1.74122 -1.89251,3.46491 -2.92482,5.14649 -0.13421,0.21869 -0.32385,0.4267 -0.55915,0.52893 -0.19925,0.0866 -0.48368,0.13501 -0.65171,-0.003 -0.16445,-0.13477 -0.2118,-0.43683 -0.11681,-0.62702 0.13195,-0.26416 0.50616,-0.31976 0.70066,-0.54187 0.15396,-0.17584 0.22951,-0.40839 0.32004,-0.6239 1.5151,-3.60608 2.87524,-7.27899 4.49601,-10.83881 0.85613,-1.88037 1.91129,-3.66443 2.92655,-5.46386 0.36233,-0.64222 0.84616,-1.21112 1.20346,-1.85614 1.08276,-1.95478 2.19891,-3.89804 3.1133,-5.93698 1.32829,-2.96189 2.28927,-6.07898 3.60598,-9.04603 1.48854,-3.35421 3.29772,-6.55926 4.80431,-9.90542 0.0522,-0.116 -0.23895,-0.20633 -0.19742,-0.32654 0.13574,-0.39291 0.50377,-0.6702 0.67294,-1.0499 0.52848,-1.18603 0.90281,-2.43603 1.4124,-3.63034 0.35564,-0.83346 0.76293,-1.64462 1.18137,-2.44839 0.84465,-1.62247 1.67078,-3.25723 2.60703,-4.82864 0.16113,-0.27045 0.41343,-0.48237 0.66781,-0.66782 0.57083,-0.41617 1.15399,-0.8295 1.79456,-1.12735 m 6.02557,2.2251 c 0,0 0,0 0,0 0.56081,0.37405 1.64481,0.44909 1.68237,1.12213 0.0675,1.20914 -0.91964,2.2417 -1.43345,3.33832 -1.54367,3.29473 -3.07271,6.59838 -4.73789,9.8334 -1.48301,2.88113 -3.31813,5.57831 -4.70305,8.50787 -1.37082,2.89972 -2.28419,5.99628 -3.5474,8.94449 -0.24247,0.56586 -0.61237,1.06974 -0.96087,1.57724 -0.34637,0.50437 -0.84098,0.90958 -1.12065,1.45383 -1.28805,2.50665 -2.31762,5.13916 -3.56563,7.66602 -0.81181,1.64367 -1.68547,3.25793 -2.6112,4.84021 -0.43016,0.73522 -1.01814,1.36987 -1.45123,2.10339 -0.95861,1.62347 -1.99489,3.21899 -2.71918,4.95972 -0.11672,0.28051 0.13933,0.60205 0.29698,0.86181 0.12271,0.20221 0.68222,0.31177 0.51946,0.48334 -0.23617,0.24896 -0.68721,0.0924 -1.02808,0.0529 -0.10053,-0.0117 -0.18196,-0.10938 -0.22965,-0.19861 -0.20199,-0.37824 -0.50358,-0.75324 -0.50766,-1.18201 -0.004,-0.42926 0.28716,-0.81213 0.48511,-1.19305 1.0822,-2.08252 2.3416,-4.07337 3.35233,-6.19147 1.00895,-2.11444 1.76767,-4.33984 2.69882,-6.48963 0.68135,-1.57312 1.39719,-3.13153 2.13798,-4.67755 0.52445,-1.09448 1.05291,-2.18948 1.65687,-3.24221 0.11943,-0.2082 0.35932,-0.32358 0.50027,-0.51786 0.15724,-0.2167 0.26536,-0.46533 0.38635,-0.70416 0.4111,-0.81158 0.881,-1.59827 1.20966,-2.44659 1.07402,-2.77222 1.8715,-5.6485 2.99322,-8.40177 0.4888,-1.19974 1.26128,-2.26483 1.82724,-3.43011 1.23259,-2.53784 2.31584,-5.14691 3.56668,-7.67578 0.0999,-0.20188 0.37073,-0.28327 0.47002,-0.48542 0.4279,-0.8713 0.6806,-1.82052 1.09384,-2.69888 0.43372,-0.92181 1.02678,-1.76428 1.44336,-2.69397 0.43488,-0.97052 0.5235,-2.10257 1.10492,-2.99307 m -17.40118,0.83047 c 0,0 0,0 0,0 0.21121,0.25605 0.53282,0.45188 0.63363,0.7681 0.0567,0.17798 -0.22984,0.32645 -0.22509,0.51318 0.008,0.33219 0.23686,0.63041 0.26258,0.96167 0.0495,0.63819 0.19889,1.32563 -0.0389,1.91993 -0.9773,2.44281 -2.47939,4.64645 -3.5497,7.04995 -0.90591,2.0344 -1.50859,4.19284 -2.37106,6.24604 -0.2948,0.70178 -0.78292,1.30966 -1.09456,2.00408 -0.6295,1.40271 -1.08461,2.87995 -1.72463,4.2779 -0.78555,1.71576 -1.63822,3.40207 -2.54838,5.05508 -0.89226,1.62055 -1.86337,3.19742 -2.8552,4.759 -0.12548,0.19764 -0.37193,0.3017 -0.48808,0.50489 -1.15721,2.02502 -2.13578,4.14996 -3.32017,6.15918 -1.08781,1.84546 -2.29396,3.6192 -3.49101,5.39569 -0.34537,0.51257 -0.79347,0.95129 -1.13347,1.46741 -0.69795,1.05963 -1.39632,2.12469 -1.97609,3.25329 -0.3542,0.68952 -0.62085,1.42761 -0.81417,2.17828 -0.2613,1.01465 -0.0781,2.15741 -0.54407,3.09589 -0.14037,0.28272 -0.54699,-0.38879 -0.65239,-0.68628 -0.14208,-0.401 -0.13599,-0.86047 -0.0427,-1.27557 0.28439,-1.26538 0.66301,-2.51636 1.1638,-3.71277 0.27037,-0.64587 0.79836,-1.15399 1.13123,-1.77002 0.28271,-0.52319 0.4286,-1.11273 0.70969,-1.63684 0.6996,-1.30432 1.52199,-2.53998 2.2283,-3.8407 1.43381,-2.64044 2.773,-5.3313 4.19077,-7.98041 0.40227,-0.75158 0.80617,-1.50451 1.26875,-2.22061 0.13027,-0.20166 0.36725,-0.31821 0.50041,-0.51794 0.293,-0.43955 0.47628,-0.9459 0.7687,-1.38581 0.12959,-0.19494 0.37161,-0.30185 0.48809,-0.50491 0.60682,-1.05771 1.14006,-2.15665 1.66918,-3.25534 0.64261,-1.33435 1.28041,-2.6727 1.84506,-4.04184 0.40558,-0.98349 0.67642,-2.01816 1.06287,-3.00934 0.55294,-1.41815 1.22978,-2.78714 1.7543,-4.21606 0.63881,-1.74036 1.05161,-3.56064 1.73312,-5.28473 0.64363,-1.62824 1.43221,-3.1973 2.23487,-4.7533 0.21338,-0.41366 0.58255,-0.73199 0.80549,-1.14056 0.41452,-0.75968 0.65952,-1.60678 1.1001,-2.35162 0.0924,-0.15616 0.33283,-0.16068 0.46152,-0.28858 0.13777,-0.1369 0.23334,-0.31326 0.31933,-0.48746 m -19.89421,-1.31933 c 0,0 0,0 0,0 0.0534,0.13574 0.14721,0.26196 0.16006,0.40726 0.0286,0.32241 0.0908,0.6734 -0.038,0.97033 -1.01612,2.34116 -2.18725,4.61328 -3.36751,6.87613 -0.10551,0.20233 -0.36829,0.29093 -0.4757,0.49225 -0.74375,1.39435 -1.29321,2.88846 -2.06361,4.26828 -1.31013,2.3465 -2.71032,4.64383 -4.1716,6.89929 -0.49755,0.76798 -1.21629,1.37927 -1.69658,2.15817 -0.96343,1.56241 -1.77575,3.2136 -2.62067,4.84314 -1.08533,2.0932 -2.06306,4.24158 -3.16933,6.32376 -0.92578,1.74256 -1.9038,3.45807 -2.9248,5.14655 -0.12422,0.20538 -0.36724,0.31818 -0.50041,0.51794 -0.29315,0.43964 -0.47602,0.9466 -0.76918,1.38624 -0.34285,0.51428 -0.78629,0.95611 -1.13344,1.46746 -0.56077,0.82593 -1.09983,1.66858 -1.587165,2.53986 -0.990265,1.77057 -1.924454,3.57233 -2.843079,5.38104 -0.712738,1.40332 -1.31118,2.86389 -2.050179,4.2536 -0.407821,0.76691 -0.852699,1.52088 -1.385368,2.20697 -0.190117,0.24488 -0.474579,0.40918 -0.752472,0.54657 -0.10273,0.0508 -0.243492,0.0509 -0.343788,-0.005 -0.172638,-0.0955 -0.347824,-0.23365 -0.419487,-0.41742 -0.07886,-0.20221 -0.07458,-0.44831 0.0028,-0.65107 0.04262,-0.11169 0.24105,-0.0799 0.312629,-0.17565 0.270096,-0.36115 0.506363,-0.75196 0.68937,-1.16413 1.046249,-2.35644 1.951019,-4.77392 2.994026,-7.13177 0.143219,-0.32379 0.402,-0.5857 0.559929,-0.90259 0.473587,-0.95013 0.787178,-1.98181 1.331909,-2.89307 1.656349,-2.77075 3.632165,-5.34375 5.258835,-8.13208 1.93045,-3.30899 3.63617,-6.74435 5.40302,-10.14352 0.28798,-0.55399 0.43922,-1.1763 0.75954,-1.71225 0.94911,-1.58814 2.06171,-3.07352 3.03935,-4.64423 0.77698,-1.24829 1.5287,-2.51388 2.22278,-3.81009 0.51978,-0.9707 0.90221,-2.01052 1.41557,-2.98462 1.0125,-1.92126 2.0579,-3.82623 3.15993,-5.69757 0.12182,-0.20684 0.36724,-0.31817 0.5004,-0.51794 0.293,-0.43951 0.47995,-0.94345 0.7687,-1.38577 0.21911,-0.33561 0.46715,-0.65583 0.74966,-0.94013 0.62641,-0.6304 1.39525,-1.11865 1.96981,-1.79663 0.27556,-0.32516 0.30616,-0.80206 0.53641,-1.16073 m 16.02991,0.20101 c 0,0 0,0 0,0 -0.0352,0.2497 -0.18112,0.50849 -0.10561,0.74909 0.0814,0.25943 0.401,0.37945 0.53421,0.61648 0.0565,0.10062 0.0372,0.23481 0.007,0.3461 -0.14389,0.52637 -0.30821,1.04981 -0.5252,1.55051 -0.75513,1.74228 -1.62659,3.43244 -2.38831,5.17185 -0.44681,1.02032 -0.85773,2.05691 -1.23602,3.10455 -0.41309,1.14392 -0.66056,2.34802 -1.13703,3.46704 -0.63685,1.4957 -1.31244,2.98965 -2.19381,4.35562 -0.45412,0.70377 -1.25098,1.12647 -1.76842,1.7851 -0.65248,0.83053 -1.11862,1.79297 -1.72302,2.65915 -0.60527,0.86737 -1.21908,1.73233 -1.90386,2.53845 -0.54181,0.63782 -1.21562,1.15393 -1.76736,1.78317 -0.21997,0.25089 -0.31247,0.5979 -0.53691,0.84482 -0.83743,0.92114 -1.79509,1.72772 -2.63616,2.64554 -0.35782,0.39047 -0.66689,0.82565 -0.95311,1.27133 -0.47986,0.74707 -0.94085,1.50885 -1.34156,2.30121 -0.78513,1.55249 -1.43752,3.16949 -2.21272,4.72699 -0.57896,1.1632 -1.26157,2.27258 -1.84814,3.432 -0.60507,1.19593 -1.11611,2.43799 -1.72566,3.63166 -0.38503,0.75396 -0.79749,1.49585 -1.25616,2.20745 -0.12964,0.20112 -0.35844,0.32239 -0.49918,0.51587 -0.70744,0.9729 -1.32013,2.01307 -2.04034,2.97651 -0.1522,0.20355 -0.31363,0.48352 -0.56637,0.51055 -0.19523,0.0209 -0.35517,-0.22192 -0.42867,-0.40399 -0.0812,-0.20123 -0.0741,-0.44812 0.003,-0.65106 0.0419,-0.11059 0.22752,-0.0883 0.30961,-0.17352 0.35872,-0.37238 0.70346,-0.76227 0.99994,-1.18585 0.59085,-0.84424 1.18329,-1.69471 1.65665,-2.60999 1.33074,-2.57312 2.55515,-5.20099 3.74811,-7.84082 0.73012,-1.6156 1.29424,-3.30261 2.01898,-4.92065 0.48142,-1.07477 1.00387,-2.13404 1.59678,-3.15162 0.57624,-0.98895 1.1942,-1.95965 1.90444,-2.8572 0.51929,-0.65628 1.21561,-1.15393 1.76735,-1.78318 0.21998,-0.25088 0.31721,-0.59372 0.53692,-0.84481 0.5243,-0.59919 1.15501,-1.09882 1.68423,-1.69367 0.35153,-0.39508 0.66785,-0.82312 0.95192,-1.26919 0.82,-1.28769 1.525,-2.64679 2.35693,-3.92682 0.5451,-0.83869 1.3123,-1.53376 1.77015,-2.42307 0.76055,-1.47729 1.29233,-3.06317 1.85857,-4.6253 0.63846,-1.76142 1.09433,-3.5864 1.75362,-5.34012 0.26023,-0.69226 0.7561,-1.28256 0.99867,-1.9812 0.0417,-0.12015 -0.21983,-0.20136 -0.19742,-0.32654 0.0302,-0.16892 0.2576,-0.2406 0.32701,-0.39752 0.61893,-1.39923 0.93321,-2.94529 1.72946,-4.25177 0.22744,-0.37314 0.76583,-0.45154 1.19306,-0.54346 m -21.99463,0.94064 c 0,0 0,0 0,0 0.17956,0.25092 0.44565,0.45859 0.5387,0.75278 0.0383,0.12125 -0.19927,0.19928 -0.19738,0.32642 0.002,0.12396 0.18732,0.18664 0.20682,0.30905 0.0508,0.31897 0.11912,0.67004 -0.003,0.96899 -0.0562,0.13739 -0.28644,0.11603 -0.43396,0.0997 -0.0989,-0.0109 -0.15766,-0.22732 -0.242,-0.17459 -0.1929,0.12058 -0.30005,0.35312 -0.38265,0.5651 -0.28991,0.74401 -0.44123,1.53689 -0.72698,2.2825 -0.3699,0.96518 -0.77915,1.91681 -1.23744,2.84329 -1.09984,2.22348 -2.32124,4.38516 -3.43461,6.6019 -0.4808,0.95724 -0.81815,1.98611 -1.34673,2.91781 -1.13872,2.00714 -2.52705,3.86673 -3.64705,5.88437 -0.99393,1.79053 -1.75377,3.70206 -2.68643,5.52524 -0.28075,0.54883 -0.6012,1.07855 -0.95133,1.58594 -0.13636,0.19763 -0.36734,0.31827 -0.50052,0.51806 -0.29302,0.43949 -0.46578,0.95304 -0.7687,1.38578 -0.440206,0.62884 -1.026502,1.14849 -1.452336,1.78717 -0.424325,0.63641 -0.688447,1.3681 -1.086747,2.02112 -0.9169,1.50335 -1.869575,2.98541 -2.856353,4.44378 -0.133706,0.19757 -0.359887,0.31946 -0.498131,0.51392 -0.536347,0.75433 -0.951203,1.59356 -1.519623,2.32403 -0.182571,0.23462 -0.537842,0.29773 -0.709435,0.54053 -0.962768,1.36212 -1.721206,2.86017 -2.665863,4.23492 -0.22023,0.32056 -0.58094,0.52387 -0.816604,0.8332 -0.463074,0.60784 -0.878128,1.25238 -1.27137,1.90753 -0.313004,0.52148 -0.452446,1.15234 -0.844391,1.61743 -0.107552,0.12756 -0.350792,0.0523 -0.50016,-0.0222 -0.175385,-0.0873 -0.349068,-0.2395 -0.403076,-0.42785 -0.03392,-0.11829 0.18357,-0.19391 0.189544,-0.3169 0.0049,-0.0999 -0.200149,-0.1604 -0.16185,-0.25287 0.0811,-0.19574 0.373307,-0.25036 0.451844,-0.44714 0.0372,-0.0933 -0.146645,-0.1485 -0.175835,-0.24451 -0.03238,-0.10656 -0.04774,-0.23346 8e-6,-0.33404 0.07519,-0.15839 0.264564,-0.24072 0.346427,-0.39575 0.406548,-0.76996 0.686997,-1.60352 1.110856,-2.36408 0.113967,-0.20447 0.364151,-0.30627 0.488098,-0.50488 0.932693,-1.49433 1.715576,-3.07996 2.672538,-4.5589 0.211281,-0.32648 0.588807,-0.51807 0.816636,-0.83325 0.893966,-1.23676 1.732421,-2.51398 2.539199,-3.80927 0.931496,-1.4956 1.716713,-3.08032 2.673485,-4.55987 1.367447,-2.11457 2.940926,-4.0918 4.294509,-6.21527 0.51226,-0.80365 0.90166,-1.681 1.29281,-2.55002 0.29778,-0.66162 0.45285,-1.38346 0.77109,-2.03546 0.89245,-1.8284 1.82311,-3.64139 2.8555,-5.3946 0.19463,-0.33053 0.58507,-0.50799 0.80525,-0.82208 0.28719,-0.4097 0.48199,-0.87735 0.70126,-1.32706 0.78195,-1.60372 1.50435,-3.23632 2.30197,-4.8323 0.7903,-1.5813 1.69819,-3.10303 2.46094,-4.69779 0.4021,-0.84072 0.65513,-1.74591 1.02918,-2.59948 0.28209,-0.64374 0.53516,-1.31235 0.93751,-1.88861 0.31866,-0.45636 0.71389,-0.88666 1.19531,-1.16602 m 15.38735,1.0596 c 0,0 0,0 0,0 0.20049,0.52365 0.43535,1.0354 0.60147,1.57095 0.0342,0.11023 0.0552,0.24881 -0.007,0.34614 -0.17718,0.2781 -0.47861,0.4584 -0.67471,0.72354 -0.45387,0.61358 -0.8815,1.24823 -1.26982,1.90527 -0.3769,0.63773 -0.74294,1.28711 -1.02237,1.97314 -1.03224,2.53425 -1.77532,5.18595 -2.90826,7.67679 -1.51388,3.3284 -3.25821,6.54938 -5.01977,9.75357 -0.94934,1.72681 -2.09985,3.33564 -3.1073,5.02921 -0.39108,0.65738 -0.66242,1.3847 -1.08675,2.02112 -0.21661,0.32489 -0.61175,0.50659 -0.81912,0.83746 -0.33352,0.5321 -0.48708,1.15942 -0.78052,1.71466 -0.17563,0.33234 -0.38383,0.6499 -0.62257,0.94025 -0.76737,0.9331 -1.75756,1.69507 -2.39074,2.72394 -1.91702,3.11505 -3.41284,6.47186 -5.22404,9.64959 -0.56678,0.99439 -1.24022,1.92511 -1.90446,2.85718 -0.1389,0.19495 -0.36648,0.31689 -0.49931,0.51599 -0.29318,0.43945 -0.48669,0.93927 -0.76929,1.38562 -0.0574,0.0906 -0.13776,0.18732 -0.24216,0.21179 -0.21125,0.0495 -0.49757,0.15094 -0.65092,-0.003 -0.17872,-0.17883 -0.21533,-0.52527 -0.10259,-0.75159 0.31674,-0.63568 0.92842,-1.08105 1.31309,-1.6781 0.79576,-1.23523 1.54332,-2.50384 2.22103,-3.80761 1.37819,-2.65131 2.58993,-5.38636 3.94306,-8.05054 0.27913,-0.54962 0.57902,-1.09448 0.95122,-1.58582 0.63985,-0.84466 1.50339,-1.51623 2.07464,-2.40875 1.12988,-1.76538 1.97163,-3.69983 3.00289,-5.52457 0.34401,-0.60873 0.79349,-1.15518 1.12125,-1.77282 0.39137,-0.73746 0.65164,-1.53888 1.03086,-2.28266 0.28485,-0.55868 0.68004,-1.05694 0.95841,-1.61886 0.55099,-1.11234 1.04824,-2.25125 1.52619,-3.39685 0.27963,-0.67029 0.4441,-1.38651 0.74515,-2.04743 0.32696,-0.71783 0.83266,-1.34805 1.13356,-2.07721 0.66187,-1.60385 1.12551,-3.28332 1.74706,-4.90326 0.22211,-0.57885 0.56232,-1.10791 0.78184,-1.68774 0.30082,-0.79459 0.45221,-1.64237 0.7763,-2.42774 0.58024,-1.40612 1.11794,-2.84924 1.9316,-4.13452 0.45404,-0.71719 1.1071,-1.31833 1.81601,-1.78524 0.26718,-0.17597 0.63982,-0.0664 0.95885,-0.0424 m 74.02684,9.34887 c 0,0 0,0 0,0 -0.16617,0.18753 -0.27603,0.44733 -0.4985,0.5626 -0.7255,0.37594 -1.68184,0.33264 -2.28753,0.88113 -0.53593,0.48532 -1.00975,1.27347 -0.87657,1.98413 0.0891,0.47556 0.86507,0.54215 1.34886,0.53607 0.4614,-0.006 0.81434,-0.4573 1.2621,-0.56875 0.0819,-0.0204 0.0474,0.17904 0.007,0.25293 -0.10212,0.18554 -0.35553,0.27954 -0.41211,0.48364 -0.033,0.11889 0.16543,0.19675 0.18997,0.31766 0.0118,0.0581 -0.0543,0.1072 -0.0951,0.1502 -0.0949,0.10004 -0.17106,0.26505 -0.30852,0.27545 -0.22428,0.017 -0.41841,-0.20355 -0.6433,-0.20346 -0.12329,3e-5 -0.19113,0.16654 -0.30867,0.20377 -0.10634,0.0337 -0.22926,0.0364 -0.33464,-1.2e-4 -0.11732,-0.0407 -0.17947,-0.19232 -0.30046,-0.22031 -0.2112,-0.0489 -0.49678,-0.15262 -0.65031,4e-4 -0.46956,0.46795 -0.83446,1.06296 -1.04683,1.69095 -0.0481,0.14221 0.27241,0.13769 0.42079,0.16031 0.2084,0.0318 0.42616,0.0437 0.63246,3e-4 0.22226,-0.0468 0.4052,-0.21905 0.62753,-0.26544 0.21527,-0.0449 0.45504,-0.0834 0.65975,-0.003 0.28439,0.1116 0.71718,0.24469 0.7333,0.54977 0.0313,0.59223 -0.27655,1.18286 -0.61605,1.66919 -0.37671,0.53958 -1.30718,0.6806 -1.46964,1.31833 -0.10036,0.39395 0.70381,0.44919 0.93401,0.78427 0.25523,0.37152 0.0243,1.24777 0.47462,1.26617 0.89995,0.0368 1.59226,-0.86175 2.44666,-1.14678 0.31231,-0.10419 0.67149,-0.0905 0.98771,0.001 0.32859,0.0952 0.6503,0.2793 0.87375,0.53833 0.45859,0.53174 0.79822,1.15934 1.12601,1.78028 0.0535,0.10141 0.0606,0.24975 -0.005,0.34396 -0.22854,0.32938 -0.4666,0.70706 -0.83469,0.86591 -0.97206,0.4194 -2.02709,0.62939 -3.06876,0.81833 -0.12686,0.023 -0.20103,-0.20285 -0.32994,-0.20188 -0.12396,9.8e-4 -0.1866,0.18762 -0.30905,0.20685 -0.42058,0.066 -0.85277,0.0837 -1.27644,0.042 -0.33068,-0.0326 -0.68187,-0.44156 -0.96172,-0.26239 -0.71049,0.4549 -1.80783,1.10117 -1.63978,1.92792 0.15495,0.76245 1.55224,0.35706 2.19369,0.79739 0.51987,0.35688 0.84552,0.94922 1.15286,1.49985 0.1044,0.18701 0.0527,0.42725 0.0422,0.64118 -0.007,0.14166 -0.0288,0.28909 -0.094,0.41503 -0.16926,0.32663 -0.48538,0.57645 -0.60079,0.92576 -0.35819,1.08392 -0.43952,2.24725 -0.80506,3.32873 -0.15454,0.45728 -0.43449,0.87116 -0.7406,1.24439 -0.20271,0.24713 -0.53306,0.35974 -0.75989,0.58502 -0.4929,0.4895 -0.89311,1.06744 -1.39148,1.55139 -0.0487,0.0472 -0.17768,0.0601 -0.20356,-0.003 -0.097,-0.23542 -0.16283,-0.50715 -0.10918,-0.75605 0.0249,-0.1156 0.22748,-0.0883 0.30955,-0.17352 0.35872,-0.37238 0.68598,-0.77502 0.99996,-1.18585 0.23248,-0.30414 0.45752,-0.61756 0.63682,-0.95575 0.30605,-0.57733 0.58368,-1.17175 0.81498,-1.78284 0.0406,-0.10748 0.0614,-0.25433 -0.01,-0.34454 -0.0528,-0.0668 -0.18229,-0.0351 -0.25538,0.009 -0.1831,0.10956 -0.26416,0.39875 -0.47544,0.42859 -0.8431,0.1192 -1.74285,0.25745 -2.55442,-1.8e-4 -0.40745,-0.12933 -0.57206,-0.65375 -0.74188,-1.04608 -0.0874,-0.20191 -0.10284,-0.46747 0.004,-0.66004 0.19595,-0.35488 0.5306,-0.61856 0.84431,-0.87536 0.25142,-0.20581 0.51804,-0.4357 0.83638,-0.50055 0.52946,-0.10785 1.09102,-0.10541 1.62094,0 0.41185,0.0819 0.71698,0.59384 1.1344,0.54791 0.30321,-0.0333 0.41042,-0.46066 0.54785,-0.73297 0.0516,-0.10233 0.0487,-0.24225 -0.005,-0.34378 -0.15855,-0.30301 -0.36732,-0.58337 -0.60786,-0.82642 -0.21837,-0.22064 -0.44628,-0.49871 -0.75272,-0.54843 -0.94466,-0.15326 -1.9187,-0.13687 -2.87074,-0.0395 -0.97078,0.0993 -1.89224,0.4997 -2.85993,0.6258 -0.52684,0.0687 -1.08206,0.0992 -1.59326,-0.0456 -0.14268,-0.0404 -0.11943,-0.28674 -0.0993,-0.43368 0.0133,-0.0968 0.096,-0.19525 0.18941,-0.22385 1.72606,-0.52832 3.54718,-0.76013 5.22234,-1.43255 0.48374,-0.19419 1.1716,-0.59024 1.10447,-1.10718 -0.0614,-0.47272 -0.90831,-0.31006 -1.31978,-0.55075 -0.18617,-0.10889 -0.33494,-0.28708 -0.43725,-0.47696 -0.0529,-0.0982 -0.054,-0.23709 3e-5,-0.33475 0.0955,-0.17276 0.24977,-0.31589 0.41746,-0.42007 0.0933,-0.058 0.21695,-0.0423 0.32679,-0.0423 0.42569,-1.2e-4 0.85585,-0.024 1.27639,0.042 0.12249,0.0192 0.20316,0.27109 0.30921,0.20682 0.42369,-0.25678 0.86923,-0.58267 1.06325,-1.03852 0.19398,-0.45571 0.29438,-1.07952 0.0111,-1.48577 -0.3468,-0.49735 -1.09708,-0.5199 -1.62166,-0.82392 -0.087,-0.0504 -0.16269,-0.13446 -0.19572,-0.22937 -0.0366,-0.10507 -0.0779,-0.25403 -2.9e-4,-0.33374 0.72317,-0.74289 1.61271,-1.31167 2.33041,-2.05981 0.11287,-0.11765 0.25003,-0.40537 0.10405,-0.47791 -0.22627,-0.11236 -0.48807,0.15042 -0.74045,0.16178 -0.63656,0.0287 -1.28615,0.0818 -1.91116,-0.0424 -0.19364,-0.0385 -0.32192,-0.24732 -0.41747,-0.42008 -0.054,-0.0977 -0.0533,-0.23672 -3e-5,-0.33477 0.2404,-0.44217 0.63243,-0.79258 0.85767,-1.24265 0.0759,-0.1517 0.13658,-0.38654 0.0187,-0.50848 -0.28072,-0.29047 -0.66698,-0.51532 -1.06638,-0.57557 -0.33226,-0.0501 -0.63741,0.2345 -0.97176,0.26813 -0.42355,0.0426 -0.85586,0.024 -1.27642,-0.042 -0.12244,-0.0192 -0.18506,-0.20676 -0.30899,-0.20679 -0.12395,0 -0.18793,0.18064 -0.30913,0.20667 -0.21219,0.0456 -0.44913,0.0791 -0.6511,-3.7e-4 -0.1837,-0.0723 -0.322,-0.24722 -0.41757,-0.41995 -0.054,-0.0976 -0.0539,-0.23706 2e-5,-0.33475 0.0953,-0.17261 0.24222,-0.32815 0.41679,-0.41983 0.15982,-0.0839 0.37905,0.01 0.5356,-0.0803 0.2048,-0.11765 0.2782,-0.40961 0.49204,-0.50986 0.0903,-0.0423 0.1553,0.18518 0.25199,0.16101 0.1025,-0.0256 0.0839,-0.20724 0.17115,-0.26675 0.31132,-0.21228 0.71919,-0.27728 0.99817,-0.53058 0.34344,-0.31177 0.40264,-0.92535 0.8226,-1.12235 1.26043,-0.59121 2.64807,-0.88836 4.01603,-1.14727 0.73354,-0.13883 1.4935,-0.0676 2.23941,-0.0366 m -5.07298,1.31991 c 0,0 0,0 0,0 -0.004,0.0694 -0.0798,0.19141 -0.0123,0.20835 0.14085,0.0354 0.41421,0.0397 0.4228,-0.10526 m 1.17624,0.53516 c 0,0 0,0 0,0 -1.24048,0.47982 -2.49318,0.9291 -3.72139,1.43942 -0.17369,0.0722 -0.66176,0.28015 -0.47523,0.3042 1.0744,0.13855 2.21364,0.37091 3.2494,0.0536 0.55109,-0.16886 0.78403,-0.86182 1.05277,-1.37171 m -78.48883,0.2161 c 0,0 0,0 0,0 0.23542,0.21969 0.75927,0.34149 0.70626,0.65912 -0.0682,0.40847 -0.69673,0.47302 -0.9499,0.80075 -0.64571,0.83581 -1.11739,1.79385 -1.72303,2.65915 -0.13724,0.19607 -0.36867,0.31543 -0.49931,0.51596 -0.67308,1.03332 -1.33197,2.07959 -1.90326,3.17248 -1.27735,2.44367 -2.34898,4.99173 -3.63833,7.42908 -0.85063,1.608 -1.94605,3.07977 -2.77686,4.69812 -0.85685,1.66901 -1.48767,3.44525 -2.27746,5.14703 -0.39614,0.85358 -0.82459,1.69269 -1.27915,2.51661 -0.18447,0.33435 -0.39492,0.65661 -0.63523,0.95336 -0.21721,0.26831 -0.42846,0.56708 -0.73079,0.73371 -0.23458,0.12927 -0.54462,0.19958 -0.79624,0.10779 -0.13963,-0.0509 -0.1828,-0.31134 -0.0997,-0.43457 0.35211,-0.5221 0.9107,-0.87427 1.3105,-1.36078 0.16983,-0.20667 0.27757,-0.45905 0.38587,-0.70362 0.5684,-1.28363 1.05124,-2.60473 1.64286,-3.8778 0.7837,-1.68647 1.60745,-3.35523 2.48128,-4.99677 0.56658,-1.06436 1.27729,-2.04813 1.83725,-3.116 0.60404,-1.15191 1.06063,-2.37655 1.65072,-3.53567 0.83007,-1.63049 1.65678,-3.26679 2.60799,-4.82974 1.18984,-1.95505 2.47498,-3.85282 3.8083,-5.71296 m 43.5489,0.21164 c 0,0 0,0 0,0 0.29628,0.40601 0.7552,0.73349 0.88887,1.21802 0.0591,0.21405 -0.3183,0.32367 -0.40741,0.52707 -0.0361,0.0825 0.0902,0.17795 0.0611,0.26321 -0.30907,0.90708 -0.66432,1.7996 -1.0612,2.67182 -0.66115,1.45294 -1.45556,2.84302 -2.1106,4.2987 -0.29796,0.66214 -0.45851,1.3797 -0.74484,2.04694 -1.55023,3.61267 -3.13745,7.20972 -4.76325,10.78906 -0.39244,0.86396 -0.81131,1.71839 -1.29008,2.53772 -0.11815,0.20215 -0.35536,0.31232 -0.48813,0.50519 -0.34953,0.50775 -0.64426,1.05133 -0.95132,1.58588 -1.11287,1.93731 -2.17023,3.90661 -3.30826,5.82922 -0.38878,0.65686 -0.81964,1.28912 -1.26995,1.9054 -0.14117,0.19323 -0.37236,0.31298 -0.49919,0.51593 -0.40547,0.64862 -0.67679,1.3753 -1.08674,2.02111 -1.43045,2.2533 -3.17018,4.31684 -4.43036,6.66962 -0.13625,0.25433 0.45189,0.44013 0.46795,0.72821 0.0109,0.19525 -0.23417,0.32807 -0.40356,0.42584 -0.0964,0.0557 -0.25501,0.0783 -0.33397,-2.4e-4 -0.30553,-0.30359 -0.69153,-0.63391 -0.73544,-1.06232 -0.0436,-0.42566 0.28827,-0.81134 0.50563,-1.17987 0.11892,-0.20166 0.35531,-0.31213 0.48804,-0.50494 0.35009,-0.50855 0.65882,-1.04547 0.95295,-1.58832 0.44919,-0.8291 0.89438,-1.66247 1.27559,-2.5249 0.62033,-1.40344 1.07601,-2.8775 1.72658,-4.26721 0.19694,-0.42066 0.57516,-0.73395 0.80391,-1.13819 0.88258,-1.55981 1.71551,-3.14782 2.52577,-4.7464 0.26886,-0.53045 0.42427,-1.11511 0.70967,-1.63684 0.35559,-0.65008 0.83278,-1.22717 1.20685,-1.86676 0.66667,-1.13983 1.32428,-2.28692 1.91363,-3.46863 0.56885,-1.1405 1.10184,-2.30163 1.55788,-3.49179 0.86238,-2.25055 1.55226,-4.56417 2.39438,-6.82235 0.215,-0.57654 0.54895,-1.10312 0.77466,-1.67557 0.20073,-0.50906 0.29144,-1.05792 0.50227,-1.5629 0.33103,-0.79281 0.78655,-1.52963 1.11955,-2.32162 0.50226,-1.19452 0.89557,-2.4325 1.38408,-3.63266 0.0949,-0.233 0.183,-0.48627 0.36368,-0.66129 0.23097,-0.22372 0.52046,-0.40234 0.82877,-0.49374 0.30955,-0.0918 0.64589,-0.0631 0.96788,-0.0389 m 101.31682,2.94885 c 0,0 0,0 0,0 0.2828,0.17633 0.58667,0.32266 0.84838,0.52902 0.23923,0.18866 0.50324,0.37818 0.64447,0.64811 0.124,0.23699 0.13334,0.52832 0.11042,0.7948 -0.009,0.10086 -0.10953,0.18157 -0.19852,0.22982 -0.34482,0.18692 -0.80395,0.18668 -1.08133,0.46405 -0.28787,0.28788 -0.30069,0.75913 -0.49802,1.11527 -0.0491,0.0886 -0.13116,0.17605 -0.22988,0.19861 -0.21463,0.049 -0.44901,0.066 -0.66047,0.005 -0.50476,-0.14624 -1.01727,-0.31977 -1.45101,-0.61649 -0.25611,-0.17517 -0.40152,-0.47873 -0.54902,-0.75168 -0.0537,-0.0992 -0.039,-0.22339 -0.039,-0.33624 -6e-5,-0.21701 -0.0352,-0.44592 0.0388,-0.64993 0.11081,-0.30539 0.31177,-0.5719 0.50049,-0.83634 0.0921,-0.12902 0.19843,-0.25811 0.33636,-0.33621 0.36878,-0.2088 0.74817,-0.42758 1.1633,-0.51282 m 0.34601,1.2822 c 0,0 0,0 0,0 -0.3182,0.19223 -0.69122,0.31433 -0.95459,0.57669 -0.11822,0.11774 -0.10916,0.32065 -0.11374,0.48743 -10e-4,0.0464 0.0515,0.0931 0.0976,0.0994 0.21521,0.0294 0.43915,0.0481 0.65164,0.003 0.12125,-0.0257 0.18518,-0.20481 0.30911,-0.20667 0.12696,-0.002 0.20392,0.23203 0.32602,0.19708 0.27097,-0.0775 0.7648,-0.21597 0.69055,-0.48785 m -60.97299,3.45447 c 0,0 0,0 0,0 -0.1401,0.0124 -0.28679,-0.007 -0.42027,0.0372 -0.69269,0.23001 -1.38666,0.46728 -2.04541,0.78155 -0.35526,0.16947 -0.704,0.37888 -0.97846,0.66098 -0.22477,0.23105 -0.46159,0.51719 -0.48088,0.83893 -0.009,0.1499 0.27126,0.14838 0.42092,0.1604 0.52609,0.0423 1.06144,0.0793 1.58334,7e-4 0.87862,-0.13226 1.75513,-0.32568 2.59027,-0.62899 0.19518,-0.0709 0.32814,-0.27527 0.41663,-0.46314 0.0486,-0.10324 0.0322,-0.25043 -0.0381,-0.3403 m 54.61669,0.31653 c 0,0 0,0 0,0 0.12399,0.0643 0.28598,0.0829 0.37194,0.19293 0.33487,0.42877 0.65107,0.88458 0.86148,1.38629 0.0864,0.20603 0.0633,0.45563 10e-4,0.67026 -0.14355,0.49582 -0.27551,1.02924 -0.60763,1.42438 -0.36283,0.43173 -0.8822,0.7222 -1.39456,0.95785 -0.60672,0.27912 -1.25443,0.60028 -1.92145,0.56748 -0.95362,-0.0469 -1.85872,-0.45777 -2.75113,-0.79712 -0.42748,-0.16254 -0.93807,-0.31076 -1.18108,-0.69818 -0.2062,-0.32871 -0.16029,-0.81684 0.013,-1.16404 0.24816,-0.49719 0.71071,-0.87185 1.16373,-1.19369 0.55496,-0.39432 1.19502,-0.65683 1.82017,-0.9263 0.50135,-0.2161 1.01334,-0.43069 1.55072,-0.52676 0.52662,-0.0941 1.07023,-0.0648 1.60447,-0.0373 m -46.9652,0.57621 c 0,0 0,0 0,0 0.0369,-0.14283 0.10886,-0.28101 0.11069,-0.4285 5.6e-4,-0.0457 -0.0656,-0.11325 -0.10428,-0.089 -0.16533,0.10367 -0.41154,0.21881 -0.41397,0.41397 m 47.25819,0.83438 c 0,0 0,0 0,0 -0.6022,0 -1.22503,-0.15619 -1.80661,3e-5 -0.86044,0.23114 -1.65793,0.67328 -2.41972,1.13526 -0.32629,0.19787 -0.85222,0.43969 -0.80107,0.81787 0.0514,0.37985 0.62858,0.45794 0.99061,0.5838 0.73473,0.25546 1.49025,0.53821 2.26806,0.54916 0.4187,0.006 0.83523,-0.22705 1.15203,-0.50085 0.47855,-0.41361 0.84812,-0.9509 1.16269,-1.49964 0.0722,-0.12591 0.01,-0.30221 -0.0554,-0.43191 m -44.79477,0.94333 c 0,0 0,0 0,0 -0.004,0.0711 -0.0828,0.203 -0.0124,0.21322 0.24666,0.0358 0.72546,0.14115 0.73991,-0.10766 m -48.49852,2.21377 c 0,0 0,0 0,0 0.089,0.10797 0.26334,0.18399 0.26722,0.32389 0.003,0.10141 -0.21555,0.0741 -0.25362,0.16815 -0.35068,0.86557 -0.53021,1.79489 -0.89072,2.65643 -0.15039,0.35938 -0.49365,0.61896 -0.6322,0.98309 -0.0356,0.0936 0.20016,0.16059 0.16185,0.25312 -0.0811,0.1958 -0.37077,0.25152 -0.45187,0.44732 -0.0383,0.0925 0.20262,0.16163 0.16188,0.25312 -0.34841,0.78241 -0.94785,1.44012 -1.26935,2.23394 -1.21356,2.99634 -2.07575,6.12885 -3.32524,9.11036 -0.90019,2.14807 -2.03736,4.18957 -3.11399,6.25488 -1.21304,2.3269 -2.572,4.57684 -3.75396,6.91968 -0.33977,0.67352 -0.64572,1.3778 -0.80414,2.11535 -0.048,0.22364 0.24986,0.42847 0.20935,0.65363 -0.0346,0.19238 -0.23392,0.32837 -0.40352,0.42554 -0.0969,0.0556 -0.25174,0.0721 -0.33522,-0.002 -0.11171,-0.0994 -0.13654,-0.27545 -0.14447,-0.4248 -0.0284,-0.53431 -0.061,-1.07874 0.0367,-1.60486 0.19671,-1.0597 0.49984,-2.0998 0.84085,-3.12226 0.24801,-0.74365 0.5804,-1.45788 0.92196,-2.16339 0.23154,-0.47827 0.5819,-0.89508 0.79445,-1.38202 0.52813,-1.21002 0.91549,-2.47741 1.42215,-3.69653 0.77718,-1.86993 1.70912,-3.67554 2.42847,-5.56848 1.29175,-3.39917 2.35825,-6.88013 3.60094,-10.29749 0.2763,-0.75988 0.62027,-1.49377 0.95448,-2.23001 0.23813,-0.52466 0.43336,-1.07821 0.76201,-1.55145 0.13998,-0.2016 0.3976,-0.28854 0.60588,-0.41837 0.25351,-0.15796 0.49036,-0.36456 0.77823,-0.44424 0.31119,-0.0861 0.64587,-0.0631 0.96785,-0.0389 m 45.38466,2.91769 c 0,0 0,0 0,0 -0.0379,0.13858 -0.11138,0.27207 -0.11374,0.41568 -7.6e-4,0.0461 0.0808,0.12836 0.10545,0.0894 0.0776,-0.1228 0.10288,-0.27765 0.10526,-0.42285 m -14.05312,-0.14862 c 0,0 0,0 0,0 -0.32475,0.0156 -0.67876,-0.0887 -0.97424,0.0469 -0.31529,0.14472 -0.53888,0.45081 -0.73453,0.73731 -0.063,0.0923 -0.0721,0.25171 0.002,0.3352 0.0994,0.1117 0.27543,0.13672 0.42477,0.14447 0.53357,0.0278 1.08427,0.0916 1.6024,-0.0389 0.29619,-0.0746 0.51941,-0.33136 0.73346,-0.54925 0.0461,-0.0469 0.0367,-0.14276 -7e-5,-0.19721 -0.11295,-0.16729 -0.24085,-0.34817 -0.42463,-0.43161 m -25.38459,3.50992 c 0,0 0,0 0,0 -0.0521,0.13556 -0.1549,0.26154 -0.15641,0.4068 -0.002,0.14703 8.7e-4,0.41437 0.14792,0.41559 0.14629,0.001 0.14679,-0.26679 0.1483,-0.41303 m -95.649445,0.85981 c 0,0 0,0 0,0 -0.03793,0.13855 -0.111428,0.27203 -0.113793,0.41571 -7.63e-4,0.0461 0.08084,0.12835 0.105461,0.0893 0.0776,-0.12274 0.102883,-0.27759 0.105278,-0.42279 m -0.842834,1.26465 c 0,0 0,0 0,0 0.0343,0.24823 -0.14756,0.73645 0.102898,0.74469 0.248367,0.008 0.140854,-0.49164 0.106842,-0.73779 M 58.528119,539.7926 c 0,0 0,0 0,0 0.188538,0.0633 0.44624,0.0308 0.565605,0.18982 0.186375,0.24835 0.206307,0.58984 0.250218,0.89727 0.415779,2.91077 0.681969,5.84223 1.127624,8.7486 0.14843,0.96796 0.402981,1.91754 0.653096,2.86432 0.09405,0.35602 0.386566,0.66998 0.377792,1.03808 -0.0048,0.20026 -0.218475,0.38855 -0.412941,0.43647 -0.192993,0.0475 -0.448753,-0.0335 -0.563114,-0.19605 -0.36116,-0.51343 -0.425122,-1.19635 -0.78043,-1.7138 -0.314621,-0.4582 -0.724739,-0.86652 -1.194893,-1.16297 -0.138355,-0.0873 -0.356953,-0.001 -0.47868,0.10779 -0.573188,0.51434 -0.929252,1.25763 -1.550354,1.71295 -0.171413,0.12567 -0.492145,0.0476 -0.626823,-0.11688 -0.13765,-0.16803 -0.08528,-0.45075 -0.0027,-0.65167 0.130341,-0.31708 0.368363,-0.58503 0.610741,-0.8274 0.430794,-0.43084 0.850929,-0.90771 1.396122,-1.17968 0.288918,-0.14417 0.661854,-0.10077 0.968617,0 0.259059,0.085 0.393966,0.38415 0.627956,0.52417 0.03852,0.0231 0.111973,-0.043 0.102837,-0.087 -0.243321,-1.17084 -0.650074,-2.3067 -0.845479,-3.48651 -0.021,-0.12683 0.174332,-0.19824 0.215004,-0.32019 0.03657,-0.10962 0.02466,-0.23236 0.0074,-0.34668 -0.269967,-1.78784 -0.611844,-3.56458 -0.868271,-5.35443 -0.03133,-0.21869 -0.07423,-0.45691 0.0062,-0.66272 m 85.612594,6.34656 c 0,0 0,0 0,0 0.3544,0.24981 0.77366,0.42669 1.06318,0.74945 0.25808,0.28772 0.43418,0.65619 0.53276,1.0299 0.31885,1.20856 -0.3368,2.99927 0.71026,3.68189 0.76274,0.49725 0.70091,-1.68225 1.10665,-2.49738 0.0477,-0.0958 0.13887,-0.18194 0.24178,-0.21154 0.20558,-0.0592 0.43407,-0.099 0.6404,-0.0424 0.41496,0.1137 0.82356,0.2879 1.17269,0.53936 0.43697,0.3147 0.7199,0.81073 1.15065,1.13385 0.42273,0.31714 0.94318,0.48121 1.38627,0.76923 0.30497,0.19818 0.63215,0.39294 0.85002,0.6842 0.0652,0.0872 -0.003,0.27826 -0.10747,0.30854 -0.31003,0.0898 -0.65596,0.0845 -0.96832,0.003 -0.17617,-0.0458 -0.2528,-0.26849 -0.40917,-0.36169 -0.65692,-0.39148 -1.37703,-0.67334 -2.02067,-1.08625 -0.27835,-0.17859 -0.44731,-0.49823 -0.7262,-0.67596 -0.0939,-0.0599 -0.25497,-0.0783 -0.33392,2.4e-4 -0.30579,0.3039 -0.69586,0.63416 -0.73622,1.06342 -0.0444,0.47223 0.14006,1.03278 0.51135,1.32794 0.19072,0.15167 0.3165,-0.39795 0.54184,-0.4906 0.20074,-0.0826 0.46077,-0.10419 0.6512,0 0.30684,0.16785 0.67491,0.4093 0.72874,0.75488 0.0495,0.31794 -0.25503,0.60767 -0.48079,0.83692 -0.24003,0.24371 -0.54504,0.44342 -0.87367,0.53833 -0.31302,0.0905 -0.68938,0.1488 -0.97746,-0.003 -0.5058,-0.26721 -0.79602,-0.82813 -1.25154,-1.17413 -0.093,-0.0706 -0.27433,-0.13141 -0.34803,-0.0408 -0.33769,0.41516 -0.38296,1.03736 -0.76631,1.41077 -0.1947,0.18964 -0.60414,0.3028 -0.80639,0.12122 -0.76998,-0.69135 -0.8657,-2.15546 -1.84182,-2.49903 -0.55537,-0.19549 -0.36088,1.20575 -0.83303,1.5575 -0.21245,0.15826 -0.47194,-0.25781 -0.65664,-0.4477 -0.30291,-0.31152 -0.42843,-0.79455 -0.78827,-1.03808 -0.12249,-0.0829 -0.15405,0.28827 -0.11071,0.42969 0.0951,0.3103 0.29698,0.58191 0.49859,0.83612 0.30069,0.37927 0.92853,0.57446 0.99947,1.05322 0.051,0.34454 -0.44606,0.5473 -0.73312,0.74457 -0.0945,0.0649 -0.24961,0.0608 -0.34383,-0.004 -0.32883,-0.22778 -0.67174,-0.48187 -0.86437,-0.8324 -0.37468,-0.68194 -0.44726,-1.49908 -0.79823,-2.19348 -0.0423,-0.0838 -0.13101,0.16077 -0.22441,0.16999 -0.14381,0.0142 -0.35373,0.0218 -0.42027,-0.10651 -0.057,-0.10992 0.18774,-0.18768 0.20404,-0.31043 0.0191,-0.14361 0.0216,-0.35443 -0.10692,-0.42126 -0.10986,-0.0572 -0.19235,0.16675 -0.31044,0.2041 -0.10638,0.0337 -0.22842,0.0338 -0.33472,-6e-5 -0.15991,-0.051 -0.37819,-0.40289 -0.43907,-0.24652 -0.38898,0.99957 -0.31608,2.13733 -0.68823,3.14325 -0.0534,0.14435 -0.32558,0.0357 -0.4601,-0.0391 -0.22319,-0.12409 -0.41034,-0.31702 -0.55675,-0.52619 -0.56294,-0.8045 -0.59544,-2.68225 -1.55998,-2.49866 -0.96825,0.18439 -0.33397,1.94416 -0.56296,2.90284 -0.0154,0.0645 -0.0927,0.11834 -0.15899,0.11963 -0.1631,0.003 -0.33683,-0.0249 -0.47748,-0.10749 -0.16866,-0.0991 -0.29915,-0.25775 -0.41368,-0.41632 -0.38454,-0.53259 -0.56993,-1.23334 -1.07807,-1.6496 -0.15287,-0.12524 -0.34298,0.2663 -0.37185,0.4618 -0.0333,0.22552 0.21975,0.42401 0.20738,0.65167 -0.007,0.13672 -0.14147,0.24951 -0.26009,0.31793 -0.14155,0.0816 -0.32373,0.16101 -0.47818,0.10773 -0.18661,-0.0644 -0.34768,-0.23389 -0.41993,-0.41754 -0.0794,-0.20203 -0.046,-0.43897 -3.9e-4,-0.65113 0.026,-0.12121 0.20583,-0.18518 0.20671,-0.30914 9.1e-4,-0.12903 -0.22117,-0.20251 -0.20217,-0.33014 0.11927,-0.80127 0.36628,-1.57953 0.60183,-2.35461 0.0112,-0.0371 0.0793,-0.0197 0.11583,-0.007 0.20198,0.0701 0.45325,0.0873 0.58991,0.25177 0.49374,0.59405 0.48129,1.83404 1.2442,1.95496 0.59747,0.0947 0.49705,-1.1048 0.79368,-1.63196 0.0529,-0.0941 0.1429,-0.17523 0.24415,-0.21247 0.10447,-0.0385 0.24533,-0.0676 0.33398,-2.4e-4 0.44171,0.33551 0.83792,0.73395 1.19299,1.16009 0.25008,0.30018 0.25193,1.16205 0.60828,1.0019 0.55174,-0.24799 0.49731,-1.10462 0.79367,-1.63202 0.0532,-0.0947 0.13759,-0.19647 0.24455,-0.21546 0.31764,-0.0565 0.66651,-0.11529 0.9679,-1.8e-4 0.4541,0.17346 0.71524,0.79523 1.20021,0.82837 0.2955,0.0202 0.30388,-0.52393 0.5345,-0.70978 0.13234,-0.10663 0.33188,-0.16614 0.4955,-0.12018 0.30943,0.0869 0.57434,0.29627 0.82911,0.49219 0.16852,0.12958 0.23169,0.55774 0.42696,0.47369 0.37622,-0.16186 0.40366,-0.75012 0.74423,-0.9776 0.20002,-0.1336 0.54879,-0.16876 0.72156,-10e-4 0.73331,0.71015 1.17258,1.67377 1.82015,2.46289 0.0421,0.0513 0.15727,0.0494 0.19924,-0.002 0.0966,-0.11847 0.14223,-0.27942 0.15455,-0.43183 0.0258,-0.31897 0.10417,-0.6745 -0.0421,-0.95917 -0.32463,-0.63165 -0.92723,-1.08166 -1.31311,-1.67791 -0.43292,-0.66901 -0.903,-1.34174 -1.13447,-2.10425 -0.15615,-0.51434 -0.2043,-1.11792 0.006,-1.61255 0.099,-0.23254 0.49068,-0.14929 0.74342,-0.14917 m 75.293,1.05249 c 0,0 0,0 0,0 0.28391,0.17523 0.58815,0.32117 0.8517,0.52576 0.17018,0.13208 0.3935,0.26446 0.43793,0.47528 0.11021,0.52289 0.0715,1.07361 2e-4,1.60321 -0.0242,0.17944 -0.11981,0.37958 -0.27886,0.46612 -0.54162,0.29474 -1.13633,0.49976 -1.73871,0.63166 -0.31517,0.069 -0.65777,0.0525 -0.9671,-0.0393 -0.30818,-0.0914 -0.60145,-0.26587 -0.82863,-0.49329 -0.24148,-0.24169 -0.39975,-0.5603 -0.53654,-0.87341 -0.0459,-0.1051 -0.0485,-0.24237 0.005,-0.34393 0.15925,-0.30402 0.34932,-0.60614 0.60987,-0.82953 0.34192,-0.29309 0.75264,-0.50159 1.16194,-0.68951 m -73.79514,-0.38996 c 0,0 0,0 0,0 -0.004,0.22174 -0.11451,0.46832 -0.0123,0.66516 0.37154,0.71576 0.82223,1.40656 1.3867,1.98255 0.10269,0.10479 0.13553,-0.26758 0.15099,-0.41352 0.0229,-0.216 0.0414,-0.44848 -0.0383,-0.65051 -0.13388,-0.33942 -0.35817,-0.6391 -0.58361,-0.92596 -0.1883,-0.23951 -0.40326,-0.46375 -0.64959,-0.64307 m -92.659035,0.62695 c 0,0 0,0 0,0 0.246327,0.24738 0.546547,0.45087 0.738987,0.74219 0.42152,0.63806 0.670067,1.37915 1.086273,2.02063 0.386666,0.59601 0.915627,1.08991 1.313576,1.67841 0.06153,0.091 0.04267,0.21698 0.0423,0.32684 -0.0011,0.31982 0.163872,0.71765 -0.04667,0.95844 -0.143413,0.164 -0.461208,-0.0466 -0.625488,-0.18976 -0.502258,-0.4375 -0.904281,-0.98011 -1.317257,-1.50275 -0.406303,-0.51422 -0.681938,-1.13245 -1.137329,-1.6037 -0.07565,-0.0783 -0.26701,0.007 -0.308403,0.10748 -0.08248,0.20069 -0.0469,0.4383 -0.0033,0.65082 0.04562,0.22248 0.233909,0.40259 0.265419,0.6275 0.0586,0.41828 0.05864,0.84876 0,1.26703 -0.03153,0.22492 -0.222241,0.40454 -0.265568,0.62744 -0.06098,0.31379 -0.05616,0.63868 -0.04256,0.95801 0.182686,4.28784 0.244217,8.58545 0.63126,12.85962 0.0333,0.36774 0.255913,0.84107 0.616547,0.92029 1.193222,0.26215 2.445293,0.09 3.664982,0.0204 0.226749,-0.0129 0.402504,-0.23438 0.62746,-0.26557 0.526036,-0.0731 1.06337,-0.0861 1.592663,-0.0425 2.966927,0.24365 5.909893,0.79834 8.884968,0.90295 0.677704,0.0239 2.112999,0.14063 1.966408,-0.52142 -0.278221,-1.25659 -1.944298,-1.71979 -2.694207,-2.76575 -0.11441,-0.1596 0.2165,-0.37024 0.403931,-0.42877 0.307938,-0.0963 0.68882,-0.1618 0.967857,1.2e-4 0.342904,0.19898 0.432862,0.66779 0.695275,0.96497 0.426262,0.48273 0.886162,0.93652 1.364532,1.36768 0.09872,0.089 0.262947,0.0859 0.354798,0.18194 0.422775,0.44214 0.993637,0.82782 1.170646,1.41339 0.09409,0.31122 -0.284218,0.59131 -0.488075,0.84461 -0.290222,0.36065 -0.602737,0.71655 -0.981918,0.98205 -1.083603,0.75879 -2.125267,1.66504 -3.383148,2.07453 -0.331849,0.10803 -0.550484,-0.44348 -0.752091,-0.7284 -0.06431,-0.0908 -0.08277,-0.25976 2.59e-4,-0.33392 0.743081,-0.66357 3.275605,-1.34717 2.387284,-1.79816 -2.29644,-1.16595 -5.104016,-0.74084 -7.67535,-0.88659 -2.644055,-0.14991 -5.316201,-0.3205 -7.944897,10e-4 -0.516522,0.0632 -0.695156,0.78131 -1.101994,1.10577 -0.128471,0.10242 -0.305881,0.14801 -0.470211,0.14807 -0.164081,1.2e-4 -0.328613,-0.0636 -0.469623,-0.14752 -0.390499,-0.23236 -0.788346,-0.47058 -1.10949,-0.79205 -0.11919,-0.11927 -0.143142,-0.31195 -0.160927,-0.47962 -0.02261,-0.21319 -0.07257,-0.46063 0.042,-0.64184 0.27364,-0.43287 0.751584,-0.7024 1.064206,-1.10798 0.100834,-0.13085 0.150867,-0.30615 0.153057,-0.47131 0.04908,-3.70056 0.152256,-7.40484 4.19e-4,-11.10254 -0.0364,-0.88635 -0.01381,-1.90448 -0.563118,-2.60107 -0.242157,-0.30707 -0.507476,0.62158 -0.852085,0.80646 -0.191272,0.1026 -0.449104,0.0793 -0.65118,0 -0.184502,-0.0723 -0.341309,-0.23865 -0.420517,-0.42029 -0.0856,-0.19635 -0.107353,-0.43708 -0.04227,-0.64118 0.293186,-0.91925 0.676628,-1.81048 1.100616,-2.67724 0.28685,-0.58637 0.631237,-1.14807 1.025246,-1.66858 0.244213,-0.32257 0.52029,-0.64649 0.874862,-0.84143 m 167.87929,0.64093 c 0,0 0,0 0,0 -0.14337,0.0148 -0.29555,-0.007 -0.43013,0.0446 -0.2485,0.0953 -0.4882,0.22406 -0.69781,0.38813 -0.22423,0.17541 -0.54486,0.3374 -0.58889,0.61871 -0.0312,0.19934 0.23731,0.35632 0.42457,0.43134 0.20417,0.0818 0.45486,0.083 0.65992,0.003 0.28716,-0.11157 0.62311,-0.26513 0.74373,-0.54858 m -113.30258,-0.84979 c 0,0 0,0 0,0 -0.0699,0.2207 -0.23218,0.43164 -0.20959,0.66198 0.0877,0.89496 0.31665,1.77179 0.5337,2.64447 0.17536,0.70508 0.53684,1.36408 0.64208,2.08301 0.10861,0.74182 0.16633,1.52002 -0.008,2.24927 -0.0449,0.18787 -0.48139,0.31439 -0.56259,0.1391 -0.46392,-1.00141 0.10955,-2.66199 -0.85481,-3.19867 -0.69458,-0.3866 -0.81528,1.36896 -1.29813,2.00043 -0.24578,0.32141 -0.54277,0.61041 -0.87496,0.84143 -0.0916,0.0637 -0.23807,0.0558 -0.33471,0 -0.16941,-0.0977 -0.44603,-0.23493 -0.40358,-0.42585 0.0714,-0.32116 0.47773,-0.45983 0.66133,-0.73291 0.50754,-0.75488 0.8964,-1.58526 1.40452,-2.33978 0.18753,-0.27844 0.66048,-0.41229 0.67479,-0.74768 0.0366,-0.85815 -0.53772,-1.66168 -0.53527,-2.52063 8.9e-4,-0.31311 0.27162,-0.61206 0.54467,-0.76532 m 5.4283,0.75049 c 0,0 0,0 0,0 0.12281,0.0635 0.28089,0.0836 0.36842,0.19067 0.43795,0.53553 0.90399,1.07233 1.18238,1.70569 0.13101,0.29804 0.0446,0.65466 -0.003,0.97669 -0.0147,0.0988 -0.23402,0.15887 -0.17765,0.24133 0.15912,0.23279 0.41709,0.40576 0.68337,0.49847 0.13978,0.0486 0.36207,0.0206 0.42991,-0.11096 0.0593,-0.11493 -0.22149,-0.20361 -0.20176,-0.33142 0.10136,-0.65662 0.3266,-1.29004 0.5487,-1.9162 0.0772,-0.21777 0.2013,-0.42004 0.3443,-0.6015 0.13307,-0.16888 0.27667,-0.35242 0.47425,-0.43726 0.19701,-0.0846 0.42862,-0.0646 0.64183,-0.042 0.16764,0.0178 0.37551,0.0281 0.47947,0.16083 0.48374,0.61743 0.72017,1.40814 1.22201,2.01093 0.0799,0.096 0.25946,-0.0361 0.35678,-0.11438 0.39884,-0.32081 0.6631,-0.80976 1.10765,-1.06348 0.23248,-0.13269 0.65605,-0.25073 0.80258,-0.0267 0.5001,0.76464 0.52186,1.75512 0.87816,2.59643 0.1455,0.34357 0.38314,0.64313 0.61697,0.9339 0.16036,0.1994 0.31366,0.45123 0.55804,0.5271 0.40658,0.12622 0.85319,0.088 1.27645,0.0424 0.22662,-0.0244 0.40907,-0.2475 0.63698,-0.24854 0.0819,-4.2e-4 0.0395,0.17462 -10e-4,0.24555 -0.096,0.16626 -0.35307,0.23785 -0.38683,0.42694 -0.0232,0.12958 0.33081,0.19085 0.257,0.29986 -0.17756,0.26233 -0.49546,0.43354 -0.80347,0.50733 -0.42011,0.10064 -0.91414,0.19775 -1.296,-0.004 -0.6233,-0.32978 -1.12349,-0.89148 -1.51082,-1.48078 -0.50025,-0.76105 -0.32879,-2.0224 -1.10501,-2.49878 -0.44102,-0.27063 -0.56181,0.87378 -0.77326,1.34607 -0.21387,0.47766 -0.25842,1.02344 -0.49632,1.48963 -0.0651,0.1275 -0.3175,0.34539 -0.37276,0.21331 -0.43524,-1.04004 -0.55326,-2.18768 -0.90213,-3.25976 -0.0795,-0.24439 -0.21854,-0.47028 -0.3774,-0.67224 -0.13173,-0.16748 -0.2807,-0.34955 -0.48174,-0.42017 -0.0898,-0.0315 -0.19491,0.0819 -0.22867,0.17078 -0.22267,0.58636 -0.44636,1.18506 -0.52256,1.80768 -0.0284,0.23175 0.2654,0.43603 0.21988,0.6651 -0.0789,0.39691 -0.27697,0.79064 -0.5656,1.07434 -0.12095,0.11883 -0.3532,0.0496 -0.5084,-0.0187 -0.74161,-0.32654 -1.33738,-1.05713 -2.14253,-1.1485 -0.35616,-0.0404 -0.39554,0.61859 -0.68697,0.82733 -0.13548,0.097 -0.39308,0.15051 -0.49943,0.0222 -0.40895,-0.49329 -0.72686,-1.08344 -0.8932,-1.70227 -0.14025,-0.52173 -0.10787,-1.09143 -3e-5,-1.62085 0.0648,-0.31836 0.30128,-0.57971 0.50053,-0.83637 0.15692,-0.20208 0.314,-0.45019 0.55806,-0.52704 m 0.33103,0.97101 c 0,0 0,0 0,0 -0.14472,0.13379 -0.36893,0.21546 -0.43418,0.40143 -0.10582,0.3017 -0.11854,0.64758 -0.0427,0.95819 0.12046,0.49347 0.3676,0.95087 0.61678,1.39356 0.0271,0.0481 0.12277,0.0312 0.16554,-0.004 0.27355,-0.22308 0.58522,-0.43426 0.75245,-0.74511 0.10423,-0.19373 0.0728,-0.45124 0.003,-0.66004 -0.10241,-0.30829 -0.29915,-0.58136 -0.50046,-0.83642 m 18.30137,-0.10474 c 0,0 0,0 0,0 0.19982,0.21094 0.4772,0.3692 0.59944,0.63275 0.0912,0.19672 0.10313,0.46216 -0.004,0.65052 -0.0554,0.097 -0.29833,-0.17487 -0.32843,-0.0672 -0.30841,1.10284 -0.25308,2.29119 -0.59879,3.38299 -0.0464,0.14649 -0.3377,0.0519 -0.45898,-0.0424 -0.11839,-0.0921 -0.13934,-0.27649 -0.14375,-0.42639 -0.0311,-1.06311 -0.11507,-2.13794 0.0378,-3.19043 0.0577,-0.39716 0.30166,-0.76544 0.57876,-1.05572 m 84.6696,1.32971 c 0,0 0,0 0,0 0.46393,0.25439 0.99247,0.41607 1.39182,0.76318 0.367,0.31897 0.64752,0.74335 0.85017,1.18536 0.0929,0.2027 0.0703,0.45734 0,0.66889 -0.10249,0.30835 -0.29994,0.58075 -0.50042,0.83642 -0.213,0.27167 -0.45266,0.5293 -0.73079,0.73377 -0.13214,0.0972 -0.30579,0.16333 -0.46912,0.14844 -1.36032,-0.12415 -2.72333,-0.27668 -4.05922,-0.56171 -0.17781,-0.038 -0.28827,-0.23248 -0.38487,-0.38654 -0.0877,-0.13995 -0.14003,-0.30664 -0.15308,-0.47131 -0.0255,-0.3219 -0.0536,-0.65863 0.0389,-0.96802 0.0931,-0.31128 0.30133,-0.57971 0.50053,-0.83636 0.19214,-0.2475 0.41715,-0.47254 0.66466,-0.66467 0.25667,-0.19928 0.51542,-0.4502 0.83642,-0.50055 m 1.31002,0.95575 c 0,0 0,0 0,0 -0.32801,-1.3e-4 -0.67318,-0.10511 -0.984,-3.1e-4 -0.32478,0.1095 -0.58372,0.36957 -0.82711,0.61084 -0.22046,0.21857 -0.43712,0.46295 -0.54834,0.75281 -0.0789,0.2055 -0.0983,0.46655 0.006,0.6604 0.0713,0.13245 0.27695,0.13946 0.42725,0.1449 0.85145,0.0306 1.71577,0.10485 2.55575,-0.0377 0.39853,-0.0677 0.7851,-0.28711 1.06653,-0.57727 0.11595,-0.11957 0.0276,-0.34027 -0.0226,-0.49909 -0.0322,-0.10193 -0.12075,-0.18426 -0.21116,-0.24121 m 0.49672,3.03003 c 0,0 0,0 0,0 0.75425,0.28363 1.57666,0.42828 2.26281,0.85089 0.13244,0.0815 -0.23356,0.27887 -0.18734,0.42737 0.0861,0.27655 0.40811,0.42468 0.53386,0.68567 0.0511,0.10608 0.006,0.2409 -0.034,0.35162 -0.14398,0.39856 -0.25664,0.82581 -0.51327,1.16297 -0.12224,0.16064 -0.35425,0.22491 -0.55544,0.24108 -0.63515,0.0512 -1.29303,0.11249 -1.91115,-0.0423 -0.27911,-0.0699 -0.457,-0.36109 -0.627,-0.5932 -0.0976,-0.1333 -0.13638,-0.30707 -0.15274,-0.47138 -0.0212,-0.21338 -0.0454,-0.44604 0.042,-0.64178 0.11088,-0.24854 0.49306,-0.3559 0.52378,-0.62628 0.0222,-0.19513 -0.22489,-0.34821 -0.40393,-0.42884 -0.19551,-0.088 -0.43067,-0.0791 -0.64185,-0.042 -0.22366,0.0393 -0.40532,0.21845 -0.62756,0.26514 -0.21616,0.0454 -0.44385,0.0366 -0.6626,0.006 -1.03326,-0.14453 -2.0684,-0.29437 -3.08472,-0.53009 -0.0897,-0.0208 -0.19465,-0.13684 -0.16276,-0.22327 0.0679,-0.18378 0.23846,-0.32153 0.4032,-0.42761 0.0923,-0.0595 0.21693,-0.043 0.32676,-0.0424 m -79.22397,0.13885 c 0,0 0,0 0,0 0.004,0.22193 0.08,0.45484 0.0112,0.66584 -0.10086,0.30926 -0.31326,0.57184 -0.50142,0.83722 -0.0616,0.0868 -0.13721,0.1856 -0.24092,0.20971 -0.21134,0.0491 -0.46341,0.10657 -0.65087,-0.003 -0.12844,-0.0748 -0.10173,-0.28601 -0.0997,-0.43457 8.3e-4,-0.0599 0.0687,-0.0984 0.10768,-0.14392 0.35367,-0.41327 0.65006,-0.88629 1.06992,-1.23206 m 86.52339,1.59497 c 0,0 0,0 0,0 -0.22215,-0.003 -0.45536,-0.0774 -0.66648,-0.008 -0.3091,0.10138 -0.57184,0.31324 -0.83719,0.50141 -0.0868,0.0616 -0.18579,0.13714 -0.20974,0.2409 -0.0487,0.211 -0.12941,0.47919 0.004,0.64972 0.0898,0.11456 0.28006,-0.12121 0.42441,-0.1026 0.12697,0.0164 0.2027,0.22479 0.32819,0.19946 0.41632,-0.084 0.79658,-0.30163 1.17105,-0.50207 0.0885,-0.0474 0.16251,-0.13434 0.1955,-0.22925 0.0365,-0.10504 0.0537,-0.23614 3.3e-4,-0.33374 m -134.885036,9.45252 c 0,0 0,0 0,0 1.36998,0.36694 2.769654,0.63702 4.10994,1.10083 0.221191,0.0765 -0.464943,0.10553 -0.697609,0.08 -0.330322,-0.0362 -0.634476,-0.31915 -0.961845,-0.26208 -0.268822,0.0469 -0.369729,0.42315 -0.617569,0.53735 -0.19442,0.0896 -0.429604,0.0773 -0.640809,0.0424 -0.961898,-0.15893 -1.895797,-0.4649 -2.858223,-0.6206 -0.139411,-0.0225 -0.289077,0.0249 -0.413734,0.0912 -0.241333,0.12854 -0.824745,0.26166 -0.663422,0.48236 0.54702,0.74854 1.530518,1.05365 2.230347,1.66175 0.234329,0.20367 0.436607,0.46319 0.548355,0.7528 0.07918,0.2052 0.07698,0.45508 -0.0033,0.65986 -0.07236,0.18457 -0.230682,0.36303 -0.420349,0.42059 -0.311798,0.0945 -0.663223,0.0895 -0.977455,0.003 -0.313354,-0.0859 -0.584617,-0.29517 -0.836387,-0.50055 -0.359047,-0.29285 -0.695397,-0.61963 -0.982621,-0.98322 -0.231651,-0.29321 -0.281776,-1.21917 -0.560905,-0.9707 -0.522522,0.46515 -0.354103,1.35663 -0.605812,2.00934 -0.04527,0.11737 -0.163628,0.1969 -0.270577,0.26318 -0.475868,0.29492 -0.941795,0.62549 -1.468696,0.8147 -0.156906,0.0563 -0.345429,-0.0249 -0.487374,-0.11231 -0.193985,-0.11944 -0.38607,-0.27795 -0.48188,-0.48462 -0.05466,-0.11798 -0.03126,-0.315 0.08037,-0.38159 0.604813,-0.36084 1.406677,-0.37164 1.944451,-0.82641 0.215362,-0.18207 0.05841,-0.56458 0.03275,-0.84546 -0.01503,-0.16449 -0.07095,-0.32801 -0.153054,-0.47138 -0.136306,-0.23797 -0.258095,-0.51788 -0.493835,-0.65808 -0.680443,-0.40466 -1.52237,-0.49878 -2.183609,-0.93408 -0.135353,-0.0891 -0.04427,-0.34015 0.02752,-0.48541 0.08763,-0.17731 0.230362,-0.36218 0.419663,-0.41944 0.311821,-0.0944 0.663864,-0.092 0.977371,-0.003 0.764648,0.21618 1.445251,0.67401 2.206047,0.90332 0.205025,0.0618 0.444511,0.0404 0.640823,-0.0452 0.108475,-0.0472 0.08675,-0.22925 0.173569,-0.30963 0.227859,-0.211 0.446007,-0.50226 0.753097,-0.5484"
             style="fill:#000000;fill-opacity:1;fill-rule:nonzero;stroke:none"
             id="path34" /></g></g></g></g></svg>
