<?xml version="1.0" encoding="UTF-8" standalone="no"?>
<svg
   width="367.96075pt"
   height="166.92363pt"
   viewBox="0 0 367.96075 166.92363"
   version="1.2"
   id="svg357"
   xmlns="http://www.w3.org/2000/svg"
   xmlns:svg="http://www.w3.org/2000/svg">
  <defs
     id="defs361" />
  <path
     style="fill:none;stroke:#000000;stroke-width:1.26923;stroke-linecap:round;stroke-linejoin:round;stroke-miterlimit:10;stroke-opacity:1"
     d="m 46.461405,107.20491 c -0.142715,-0.85405 -3.038157,2.1405 -4.749856,2.47945 -5.736593,3.08363 -11.497315,6.1606 -17.207171,9.34862 -4.40902,2.60492 -10.76069,7.22609 -13.867229,9.27344 l 0.05469,-0.0312 0.0078,-0.1211"
     id="path6" />
  <path
     style="fill:none;stroke:#000000;stroke-width:1.26923;stroke-linecap:round;stroke-linejoin:round;stroke-miterlimit:10;stroke-opacity:1"
     d="m 47.098124,106.41194 c -0.555839,-0.3344 -0.802498,0.16268 0.562521,0.49551 6.047829,1.69365 12.704099,0.68618 18.531245,3.49738 6.139077,1.80735 12.675083,1.31135 18.554683,4.03896 2.607185,0.62571 6.864451,0.96223 8.70701,1.44546 -0.273156,-0.0414 -0.420074,0.57198 -0.79669,0.6526"
     id="path8" />
  <path
     style="fill:#000000;fill-opacity:1;fill-rule:nonzero;stroke:none"
     d="m 47.793452,108.55251 c 1.483734,-8.929855 -0.823238,-18.302953 0.152348,-27.398445 -0.439552,-8.251879 0.279947,-16.497648 -0.566412,-24.6836 -2.255084,6.627755 -0.327051,18.621755 -0.663574,27.22266 -0.38056,8.282516 8.83e-4,16.468105 0.640138,24.906255"
     id="path10" />
  <path
     style="fill:none;stroke:#000000;stroke-width:1.26923;stroke-linecap:round;stroke-linejoin:round;stroke-miterlimit:10;stroke-opacity:1"
     d="m 46.863749,107.54084 c -0.256322,-0.36235 -0.870948,-0.6343 0.16807,-1.0349 1.222274,0.88168 -1.849894,2.27988 -0.47258,0.36383 0.346069,-2.13152 2.35246,-0.95857 1.69139,0.60546 -1.323847,1.93225 -4.225235,-1.0111 -1.945354,-1.53861 2.36511,-1.01161 2.351963,4.01435 0.281275,2.7698 -2.297004,-0.8768 0.576813,-3.73981 1.5859,-1.64847 1.142007,2.15595 -1.693945,2.30361 -1.95313,-0.55385"
     id="path12" />
  <path
     style="fill:none;stroke:#000000;stroke-width:1.26923;stroke-linecap:round;stroke-linejoin:round;stroke-miterlimit:10;stroke-opacity:1"
     d="m 10.645006,125.37287 c -0.07199,-0.87117 -0.384239,-2.79275 -0.01932,-0.96844 -0.283977,1.62883 -1.9033704,5.48596 -1.66785,5.51107 -0.041821,-0.032 2.663348,-1.61158 3.582019,-0.3549 0.56555,1.05495 1.726187,-0.18497 1.667935,0.6019"
     id="path14" />
  <path
     style="fill:none;stroke:#000000;stroke-width:1.26923;stroke-linecap:round;stroke-linejoin:round;stroke-miterlimit:10;stroke-opacity:1"
     d="m 1.5239143,133.04084 c -0.88145728,-0.28171 1.782708,1.8874 2.558597,2.42208 1.3580886,2.06896 -2.2731435,3.93638 -3.12501,3.01546 1.991692,-0.29123 6.7638272,-0.64146 6.558524,-3.21468 -0.6885401,-1.2259 -1.3933158,2.09161 -1.67581,2.93734 0.6081014,2.44152 4.2587407,-0.88633 5.5429427,-0.94553"
     id="path16" />
  <path
     style="fill:none;stroke:#000000;stroke-width:1.26923;stroke-linecap:round;stroke-linejoin:round;stroke-miterlimit:10;stroke-opacity:1"
     d="m 90.734833,113.00959 c -1.393477,-0.0344 -0.153967,-0.28167 0.5787,1.1254 0.285634,1.44684 2.463869,2.95582 2.1131,3.04307 -0.896018,-0.15339 -3.766129,2.21672 -4.95125,1.901 0.01891,-0.14154 0.06281,0.0159 0.0585,0.0976"
     id="path18" />
  <path
     style="fill:none;stroke:#000000;stroke-width:1.26923;stroke-linecap:round;stroke-linejoin:round;stroke-miterlimit:10;stroke-opacity:1"
     d="m 98.715303,116.59944 c -0.02368,-1.57035 -0.255887,2.63886 0.8957,2.82805 2.061077,1.40982 5.386747,-2.12716 5.878867,-3.35895 -1.73731,3.40111 -4.44878,7.32173 -4.5784,11.24228"
     id="path20" />
  <path
     style="fill:none;stroke:#000000;stroke-width:1.26923;stroke-linecap:round;stroke-linejoin:round;stroke-miterlimit:10;stroke-opacity:1"
     d="m 47.316874,55.392415 c 0.204199,-0.581795 -0.773148,-0.587357 -1.07425,1.03882 -0.253154,0.990251 -3.247974,5.634304 -2.374997,4.44134 0.97618,-1.720928 2.290235,-5.940121 2.85545,-6.56564 0.643545,2.07168 3.025666,6.376625 5.808576,5.00007"
     id="path22" />
  <path
     style="fill:none;stroke:#000000;stroke-width:1.26923;stroke-linecap:round;stroke-linejoin:round;stroke-miterlimit:10;stroke-opacity:1"
     d="m 43.848125,43.970535 c 0.802633,-0.07942 -0.640095,-0.06772 0.675786,-0.3175 0.947011,-0.67975 4.938937,-1.256548 3.972636,0.5281 -1.225474,1.662906 -3.759097,4.959855 -2.03514,6.73789 1.43385,0.628214 3.009385,-0.106989 4.359364,-0.61687"
     id="path24" />
  <path
     style="fill:none;stroke:#000000;stroke-width:1.26923;stroke-linecap:round;stroke-linejoin:round;stroke-miterlimit:10;stroke-opacity:1"
     d="m 43.070781,46.833815 c 0.67747,0.452729 3.897497,-0.294739 5.226495,-0.6876 1.733663,-0.378697 3.518883,-0.479048 5.230468,-0.9882"
     id="path26" />
  <path
     style="fill:none;stroke:#000000;stroke-width:1.26923;stroke-linecap:round;stroke-linejoin:round;stroke-miterlimit:10;stroke-opacity:1"
     d="m 47.492655,117.09162 c -0.658055,-0.17999 -0.296584,-0.69574 -0.05076,-0.1471 l 0.03906,0.0312 0.04297,0.0312"
     id="path28" />
  <path
     style="fill:none;stroke:#000000;stroke-width:1.26923;stroke-linecap:round;stroke-linejoin:round;stroke-miterlimit:10;stroke-opacity:1"
     d="m 46.848124,123.15412 c 0.867675,0.21473 0.513013,-0.23508 0.640517,0.67501 l -0.0039,0.0156 -0.02344,0.0547"
     id="path30" />
  <path
     style="fill:none;stroke:#000000;stroke-width:1.26923;stroke-linecap:round;stroke-linejoin:round;stroke-miterlimit:10;stroke-opacity:1"
     d="m 47.375468,129.40803 c 0.334282,0.45159 -0.148722,0.048 0.29301,0.59786 l 0.01953,0.0156"
     id="path32" />
  <path
     style="fill:none;stroke:#000000;stroke-width:1.26923;stroke-linecap:round;stroke-linejoin:round;stroke-miterlimit:10;stroke-opacity:1"
     d="m 47.531718,134.85334 c -0.79141,-0.13132 -0.313947,0.42018 -0.17574,0.4523"
     id="path34" />
  <path
     style="fill:none;stroke:#000000;stroke-width:1.26923;stroke-linecap:round;stroke-linejoin:round;stroke-miterlimit:10;stroke-opacity:1"
     d="m 47.855936,141.96662 c -1.438969,0.0486 -0.156735,-0.35513 -0.296899,0.73062 0.09169,0.73506 0.220519,1.48218 0.207,2.23037"
     id="path36" />
  <path
     style="fill:none;stroke:#000000;stroke-width:1.26923;stroke-linecap:round;stroke-linejoin:round;stroke-miterlimit:10;stroke-opacity:1"
     d="m 47.297343,151.51349 c 0.260598,0.18094 -0.329384,0.22484 0.22263,-0.2583"
     id="path38" />
  <path
     style="fill:none;stroke:#000000;stroke-width:1.26923;stroke-linecap:round;stroke-linejoin:round;stroke-miterlimit:10;stroke-opacity:1"
     d="m 286.22698,150.21271 c 0.27777,0.18633 -0.32902,0.21561 0.2269,-0.2545"
     id="path40" />
  <path
     style="fill:#000000;fill-opacity:1;fill-rule:nonzero;stroke:none"
     d="m 17.121577,166.84157 c -2.872423,-1.98009 -1.095663,-0.46283 -0.105463,0.0821 m 8.234369,-19.98832 c 3.3901,-9.86093 11.524258,-20.13959 21.492188,-25.55078 11.762067,-8.97659 20.98958,-20.95102 26.413574,-34.840341 C 78.371744,72.955314 86.008633,60.358161 94.230953,48.466565 87.817607,45.502245 83.47117,61.209534 79.938003,65.923555 70.93459,80.858737 67.327304,99.317615 54.148941,111.4509 c -9.788412,10.47957 -25.313595,16.50039 -28.9375,31.8086 l -1.011719,2.28906 0.296875,0.85547"
     id="path42" />
  <path
     style="fill:none;stroke:#000000;stroke-width:1.26923;stroke-linecap:round;stroke-linejoin:round;stroke-miterlimit:10;stroke-opacity:1"
     d="m 299.57073,103.90803 c -0.11346,-0.83778 -2.82531,1.91415 -4.42243,2.37054 -5.71451,2.82849 -11.21705,6.117 -16.90624,9.05808 -4.79986,2.85586 -10.79425,7.19997 -14.57301,9.71817 0.0387,-0.13495 0.18668,0.0267 0.1408,-0.19929"
     id="path44" />
  <path
     style="fill:none;stroke:#000000;stroke-width:1.26923;stroke-linecap:round;stroke-linejoin:round;stroke-miterlimit:10;stroke-opacity:1"
     d="m 300.20354,103.11506 c -0.58055,-0.36682 -0.76008,0.24284 0.6483,0.48422 6.01853,1.73513 12.64655,0.69125 18.44531,3.5091 6.1413,1.80447 12.67835,1.30475 18.55859,4.03908 2.65366,0.63795 6.74975,0.9361 8.7269,1.45344 -0.30363,-0.0798 -0.42183,0.56388 -0.82,0.6448"
     id="path46" />
  <path
     style="fill:none;stroke:#000000;stroke-width:1.26923;stroke-linecap:round;stroke-linejoin:round;stroke-miterlimit:10;stroke-opacity:1"
     d="m 299.89885,53.536945 c 0.31994,0.401635 0.1376,3.48916 0.378,4.90222 -0.26864,6.426202 0.30667,12.730583 0.008,19.11339 0.18,1.230789 0.30304,2.470461 0.2461,3.72265"
     id="path48" />
  <path
     style="fill:none;stroke:#000000;stroke-width:1.26923;stroke-linecap:round;stroke-linejoin:round;stroke-miterlimit:10;stroke-opacity:1"
     d="m 300.64885,95.400215 c -0.12428,3.100932 0.35259,6.981775 0.0925,9.176165 -0.19426,-0.0213 0.0745,0.36242 -0.0659,-0.68949 l -0.0117,-0.0352"
     id="path50" />
  <path
     style="fill:none;stroke:#000000;stroke-width:1.26923;stroke-linecap:round;stroke-linejoin:round;stroke-miterlimit:10;stroke-opacity:1"
     d="m 299.97307,104.24397 c -0.27707,-0.34378 -0.88081,-0.67538 0.1946,-1.0194 1.17279,0.85046 -1.82882,2.24391 -0.5249,0.43764 0.25378,-2.48139 2.7435,-0.71433 1.47192,0.63716 -1.19413,1.68881 -3.83358,-1.11808 -1.83558,-1.5937 2.15282,-1.18968 2.70721,3.23928 0.76168,2.8674 -1.87582,-0.42195 -1.31004,-2.74307 0.4255,-2.57814 2.90792,2.18746 -0.73229,3.87329 -1.1444,0.2116"
     id="path52" />
  <path
     style="fill:none;stroke:#000000;stroke-width:1.26923;stroke-linecap:round;stroke-linejoin:round;stroke-miterlimit:10;stroke-opacity:1"
     d="m 263.75433,122.076 c -0.0739,-0.84898 -0.38789,-2.80498 -0.0243,-0.96866 -0.28713,1.64657 -1.90826,5.51375 -1.6681,5.51098 0.02,-0.0952 2.88169,-1.67362 3.78941,-0.17509 0.52953,0.81511 1.54553,-0.38479 1.46122,0.4221"
     id="path54" />
  <path
     style="fill:none;stroke:#000000;stroke-width:1.26923;stroke-linecap:round;stroke-linejoin:round;stroke-miterlimit:10;stroke-opacity:1"
     d="m 254.62933,129.74396 c -0.90526,-0.20247 2.01313,1.88537 2.64432,2.60593 1.1555,2.07004 -2.52841,3.68757 -3.18709,2.8363 2.04747,-0.42432 6.43306,-0.41455 6.61747,-3.21897 -0.73827,-1.23813 -1.94462,2.45414 -1.586,3.53478 1.56516,1.02299 3.76469,-1.2568 5.37478,-1.54277"
     id="path56" />
  <path
     style="fill:none;stroke:#000000;stroke-width:1.26923;stroke-linecap:round;stroke-linejoin:round;stroke-miterlimit:10;stroke-opacity:1"
     d="m 343.84025,109.71272 c -1.39248,-0.0378 -0.13971,-0.27216 0.5823,1.1259 0.16776,1.38365 2.50157,2.90757 2.0514,3.01523 -0.48332,-0.002 -3.15186,1.56524 -4.64901,2.04681 -0.31542,0.10478 -0.27324,-0.32653 -0.1841,-0.0203"
     id="path58" />
  <path
     style="fill:none;stroke:#000000;stroke-width:1.26923;stroke-linecap:round;stroke-linejoin:round;stroke-miterlimit:10;stroke-opacity:1"
     d="m 351.82072,113.30256 c -0.0349,-1.61125 -0.24891,2.67704 0.8991,2.828 2.05901,1.4063 5.38799,-2.12561 5.87496,-3.35935 -1.73578,3.42151 -4.43759,7.28627 -4.57761,11.24217"
     id="path60" />
  <path
     style="fill:none;stroke:#000000;stroke-width:1.26923;stroke-linecap:round;stroke-linejoin:round;stroke-miterlimit:10;stroke-opacity:1"
     d="m 300.42229,52.095535 c 0.2183,-0.403487 -0.62657,-0.785083 -0.8856,0.64403 -0.43823,1.369277 -2.88465,5.145765 -2.70745,5.03466 1.18536,-1.977753 2.11305,-5.215293 2.9614,-6.83935 0.45328,1.582866 3.01769,6.6116 5.85252,5.07419"
     id="path62" />
  <path
     style="fill:none;stroke:#000000;stroke-width:1.26923;stroke-linecap:round;stroke-linejoin:round;stroke-miterlimit:10;stroke-opacity:1"
     d="m 296.95745,40.673665 c 0.79087,-0.07528 -0.63774,-0.07011 0.6717,-0.3175 2.17243,-1.453867 6.05623,-0.453171 2.94927,1.90673 -1.87187,1.958004 -2.61168,6.874796 1.31296,5.42188 0.65833,-0.23221 1.42695,-0.325602 2.03524,-0.67968"
     id="path64" />
  <path
     style="fill:none;stroke:#000000;stroke-width:1.26923;stroke-linecap:round;stroke-linejoin:round;stroke-miterlimit:10;stroke-opacity:1"
     d="m 296.1801,43.533035 c 0.84231,0.505808 4.27079,-0.461171 5.79021,-0.7703 1.53838,-0.37001 3.14476,-0.414751 4.66407,-0.9022"
     id="path66" />
  <path
     style="fill:none;stroke:#000000;stroke-width:1.26923;stroke-linecap:round;stroke-linejoin:round;stroke-miterlimit:10;stroke-opacity:1"
     d="m 300.60198,113.79475 c -0.82666,-0.0945 -0.0255,-0.66835 -0.25807,-0.28 0.0875,0.0646 0.19774,0.11662 0.2854,0.1951"
     id="path68" />
  <path
     style="fill:none;stroke:#000000;stroke-width:1.26923;stroke-linecap:round;stroke-linejoin:round;stroke-miterlimit:10;stroke-opacity:1"
     d="m 299.95745,119.85725 c 0.86791,0.21747 0.50439,-0.23936 0.63764,0.67493 l -0.004,0.0156 -0.0234,0.0547"
     id="path70" />
  <path
     style="fill:none;stroke:#000000;stroke-width:1.26923;stroke-linecap:round;stroke-linejoin:round;stroke-miterlimit:10;stroke-opacity:1"
     d="m 300.48088,126.11115 c 0.32607,0.55779 -0.1563,-0.0972 0.3164,0.61397"
     id="path72" />
  <path
     style="fill:none;stroke:#000000;stroke-width:1.26923;stroke-linecap:round;stroke-linejoin:round;stroke-miterlimit:10;stroke-opacity:1"
     d="m 300.63713,131.55646 c -0.74658,0.44796 -0.43969,-0.48584 -0.1725,0.4517"
     id="path74" />
  <path
     style="fill:none;stroke:#000000;stroke-width:1.26923;stroke-linecap:round;stroke-linejoin:round;stroke-miterlimit:10;stroke-opacity:1"
     d="m 300.96526,138.66974 c -1.43779,0.0503 -0.16663,-0.35765 -0.29677,0.72693 0.0888,0.73758 0.21341,1.48409 0.2078,2.23441"
     id="path76" />
  <path
     style="fill:none;stroke:#000000;stroke-width:1.26923;stroke-linecap:round;stroke-linejoin:round;stroke-miterlimit:10;stroke-opacity:1"
     d="m 300.38323,71.802565 c 0.089,0.01477 0.10228,2.64609 0.1428,3.6126 -0.0751,2.779931 -0.30304,6.133813 -0.0845,7.88905 -0.006,-0.145931 -0.008,-0.172384 -0.008,-0.1548"
     id="path78" />
  <path
     style="fill:none;stroke:#000000;stroke-width:1.26923;stroke-linecap:round;stroke-linejoin:round;stroke-miterlimit:10;stroke-opacity:1"
     d="m 300.44573,96.216625 c 0.13436,-0.575234 0.23977,-3.270862 0.001,-3.6879 -0.004,-0.02747 0.0114,-0.14292 -0.012,-0.1248"
     id="path80" />
  <path
     style="fill:none;stroke:#000000;stroke-width:1.26923;stroke-linecap:round;stroke-linejoin:round;stroke-miterlimit:10;stroke-opacity:1"
     d="m 300.1762,83.052565 c -0.0821,0.03549 -0.19253,-0.198682 -0.0182,0.895 0.28121,1.600614 0.022,4.262614 -0.0286,6.63164 0.0145,0.596818 -0.05,2.159711 0.0744,2.47386 0.30851,2.840168 -0.005,6.964275 0.1032,10.182495 -0.0542,0.82455 -0.21972,0.7858 -0.2916,0.70631"
     id="path82" />
  <path
     style="fill:#000000;fill-opacity:1;fill-rule:nonzero;stroke:none"
     d="m 287.93407,132.31032 c 2.47276,-18.76434 -0.7034,-38.585006 -8.49599,-55.707035 3.67338,10.087837 7.53776,22.834944 8.17718,34.577315 1.17471,6.91155 0.42752,13.98333 0.0611,20.89544"
     id="path84" />
  <path
     style="fill:none;stroke:#000000;stroke-width:0.634615;stroke-linecap:round;stroke-linejoin:round;stroke-miterlimit:10;stroke-opacity:1"
     d="m 318.34026,60.286945 c -1.09129,-0.528211 1.90594,0.666812 2.1872,1.3092 3.2238,2.857976 5.29545,6.820593 7.99655,10.13937 3.11967,3.944455 5.84988,8.266114 6.32021,13.4281 2.41296,10.876174 1.65559,22.308515 -0.7681,33.091685 -0.55224,1.5972 -1.0245,4.57831 -1.5127,5.34327"
     id="path86" />
  <path
     style="fill:#000000;fill-opacity:1;fill-rule:nonzero;stroke:none"
     d="m 278.87157,83.767345 c 16.05271,-2.645809 30.10582,-11.355799 44.2461,-18.86328 10.94718,-11.902126 -7.09952,6.19019 -12.96964,6.145568 -9.69093,6.22002 -22.7233,10.167329 -32.30389,12.795832"
     id="path88" />
  <path
     style="fill:none;stroke:#000000;stroke-width:0.634615;stroke-linecap:round;stroke-linejoin:round;stroke-miterlimit:10;stroke-opacity:1"
     d="m 285.68792,126.86897 c 1.18028,0.65884 3.20428,0.9297 4.76602,0.6292 7.78502,0.9677 15.56835,-0.50565 23.33852,-1.8516 7.68939,-2.40936 15.58871,-4.87055 22.70013,-8.81808 0.57767,-0.34282 1.27863,-0.85324 0.8972,-0.6013 l -0.0195,0.0352"
     id="path90" />
  <path
     style="fill:none;stroke:#000000;stroke-width:0.634615;stroke-linecap:round;stroke-linejoin:round;stroke-miterlimit:10;stroke-opacity:1"
     d="m 316.01213,93.099435 c -0.30884,-0.316116 0.60566,0.0357 -0.2096,0.291 -0.50123,-0.640961 1.22944,-0.205873 0.0901,0.27596 -0.47653,-0.549335 0.32822,-0.478151 -0.1014,-0.6534 0.002,-0.0131 0.0182,-0.01325 0.0237,-0.024"
     id="path92" />
  <path
     style="fill:none;stroke:#000000;stroke-width:0.634615;stroke-linecap:round;stroke-linejoin:round;stroke-miterlimit:10;stroke-opacity:1"
     d="m 316.35588,81.216625 c -0.40499,0.384028 0.0581,2.155032 -0.3279,3.0198 -0.34989,3.137764 0.16865,6.554191 -0.375,9.21114 0.0524,-0.04386 0.0374,0.135546 0.0511,0.0118"
     id="path94" />
  <path
     style="fill:none;stroke:#000000;stroke-width:0.634615;stroke-linecap:round;stroke-linejoin:round;stroke-miterlimit:10;stroke-opacity:1"
     d="m 309.1801,96.829905 c 0.88258,-0.478899 -1.65621,0.622579 -0.0726,-0.0434 2.17804,-1.004456 4.79607,-2.091767 6.51618,-3.1518 0.15976,-0.09091 0.77876,-0.225706 0.3402,-0.0391"
     id="path96" />
  <path
     style="fill:none;stroke:#000000;stroke-width:0.634615;stroke-linecap:round;stroke-linejoin:round;stroke-miterlimit:10;stroke-opacity:1"
     d="m 316.13713,93.318185 c -0.0693,0.06109 1.95107,0.934114 3.0015,1.1706 1.68051,0.817626 4.23872,1.278468 5.5532,1.7736 0.0511,0.01567 0.59863,0.182901 0.2292,-0.0062"
     id="path98" />
  <path
     style="fill:none;stroke:#000000;stroke-width:0.634615;stroke-linecap:round;stroke-linejoin:round;stroke-miterlimit:10;stroke-opacity:1"
     d="m 324.6176,95.033025 c -0.50873,-0.357476 0.88042,1.072174 1.0598,1.5078 0.12991,0.793171 -1.37487,0.117226 -1.75097,0.7394"
     id="path100" />
  <path
     style="fill:none;stroke:#000000;stroke-width:0.634615;stroke-linecap:round;stroke-linejoin:round;stroke-miterlimit:10;stroke-opacity:1"
     d="m 310.01995,94.825995 c 0.16054,0.239096 -1.00263,1.777109 -1.2564,2.6263 -0.23173,0.300365 1.80731,-0.725645 2.24953,-0.2831"
     id="path102" />
  <path
     style="fill:none;stroke:#000000;stroke-width:0.634615;stroke-linecap:round;stroke-linejoin:round;stroke-miterlimit:10;stroke-opacity:1"
     d="m 315.94963,81.888505 c 0.10857,-0.228755 -1.52799,2.340188 -0.7815,1.4625 1.11065,-0.77014 0.70136,-3.078595 1.1459,-0.85613 0.54879,0.265698 0.36139,2.197326 0.9534,1.5197"
     id="path104" />
  <path
     style="fill:none;stroke:#000000;stroke-width:1.90385;stroke-linecap:round;stroke-linejoin:round;stroke-miterlimit:10;stroke-opacity:1"
     d="m 315.76213,93.228345 c 0.40401,-0.01829 2.77447,-0.414692 3.73146,-0.8992 3.80114,-0.748963 8.80817,-2.61037 11.75329,-3.5853 -0.41836,-0.324713 -2.74744,-0.06268 -3.25919,-1.2356 -1.58157,-0.280758 1.11615,0.399875 1.592,0.7946 0.69388,0.334507 2.89098,0.618309 2.58937,0.631 -1.01869,0.954033 -2.56693,3.546402 -2.8359,4.1488 0.0503,-0.05243 0.10087,-0.104677 0.1561,-0.1523"
     id="path106" />
  <path
     style="fill:none;stroke:#000000;stroke-width:1.26923;stroke-linecap:round;stroke-linejoin:round;stroke-miterlimit:10;stroke-opacity:1"
     d="m 338.36369,86.833815 c 0.33161,0.397415 0.40598,3.326272 0.6574,3.0118 0.0372,-0.77891 1.28002,-3.561018 1.8059,-2.0776 0.38474,1.154965 0.73328,4.339742 2.4348,2.53556 0.61451,-0.424184 2.32511,-3.510551 0.91458,-1.74609 -0.98744,1.354675 0.97896,3.178969 1.72996,1.48907 0.36464,-0.837771 -1.11702,-3.070407 -1.1087,-2.63984 1.22304,0.492203 3.59549,1.07235 3.87573,2.4327 -0.78644,-1.736902 1.01639,-3.068402 2.67796,-2.84399"
     id="path108" />
  <path
     style="fill:none;stroke:#000000;stroke-width:1.26923;stroke-linecap:round;stroke-linejoin:round;stroke-miterlimit:10;stroke-opacity:1"
     d="m 352.26994,87.458815 c 0.47954,0.461642 0.16187,3.204159 0.8032,3.37799 0.15566,-0.98515 0.63959,-4.011505 1.3835,-3.52301 0.0169,1.307875 0.37797,3.931818 1.46247,1.53082 0.28769,-0.738198 1.97746,-3.118011 0.9812,-1.22242 -0.65586,2.344232 2.42254,3.746647 3.2575,1.12495 0.72266,-1.260197 -0.10213,-2.500056 -0.8708,-0.86285 -1.08569,0.86079 -0.65713,3.362595 0.5786,1.5547 0.69335,-0.766195 1.23678,-2.040953 0.9634,-0.30404 0.065,2.438334 1.87222,0.02058 2.35576,-0.91343 0.82574,-0.749307 1.44653,-4.132964 1.446,-3.92518 0.41246,1.9564 -1.39066,8.04152 2.69536,5.23427"
     id="path110" />
  <path
     style="fill:none;stroke:#000000;stroke-width:0.634615;stroke-linecap:round;stroke-linejoin:round;stroke-miterlimit:10;stroke-opacity:1"
     d="m 316.85979,85.673655 c 0.0111,-0.01189 0.10141,-0.09286 0.1409,-0.1026"
     id="path112" />
  <path
     style="fill:none;stroke:#000000;stroke-width:0.634615;stroke-linecap:round;stroke-linejoin:round;stroke-miterlimit:10;stroke-opacity:1"
     d="m 316.71916,85.732245 c -0.24932,-0.290067 -0.27515,0.03149 0.6871,0.0083 2.58417,0.0091 3.77716,2.43235 4.3475,4.4059 0.061,0.196227 0.21591,1.794031 0.0438,1.00317"
     id="path114" />
  <path
     style="fill:none;stroke:#000000;stroke-width:0.634615;stroke-linecap:round;stroke-linejoin:round;stroke-miterlimit:10;stroke-opacity:1"
     d="m 321.75822,79.466625 c -1.25343,0.103115 -1.49943,4.999627 0.7413,3.15676 1.50845,-0.751592 0.46401,-4.331641 -0.68754,-3.51553 l 0.004,0.0195 0.0195,0.0351"
     id="path116" />
  <path
     style="fill:none;stroke:#000000;stroke-width:0.634615;stroke-linecap:round;stroke-linejoin:round;stroke-miterlimit:10;stroke-opacity:1"
     d="m 320.21135,81.052565 c 1.05125,0.400605 3.25269,-0.224459 4.6361,-0.3713"
     id="path118" />
  <path
     style="fill:none;stroke:#000000;stroke-width:0.634615;stroke-linecap:round;stroke-linejoin:round;stroke-miterlimit:10;stroke-opacity:1"
     d="m 315.83244,94.318185 c 0.37981,-0.02214 -0.12733,-0.09067 0.3675,0.4547"
     id="path120" />
  <path
     style="fill:none;stroke:#000000;stroke-width:0.634615;stroke-linecap:round;stroke-linejoin:round;stroke-miterlimit:10;stroke-opacity:1"
     d="m 316.98479,95.325995 c 0.17832,-0.02833 0.0597,0.09987 0.1877,0.0677"
     id="path122" />
  <path
     style="fill:none;stroke:#000000;stroke-width:0.634615;stroke-linecap:round;stroke-linejoin:round;stroke-miterlimit:10;stroke-opacity:1"
     d="m 317.92229,95.927555 c 0.0974,0.02186 0.31902,0.06453 0.2183,0.1834"
     id="path124" />
  <path
     style="fill:none;stroke:#000000;stroke-width:0.634615;stroke-linecap:round;stroke-linejoin:round;stroke-miterlimit:10;stroke-opacity:1"
     d="m 318.50822,96.872875 c 0.26926,0.12291 0.0235,-0.416897 0.1562,0.1995"
     id="path126" />
  <path
     style="fill:none;stroke:#000000;stroke-width:0.634615;stroke-linecap:round;stroke-linejoin:round;stroke-miterlimit:10;stroke-opacity:1"
     d="m 319.69182,98.626775 c 0.10433,-0.02234 0.25949,0.05564 0.3125,-0.0546"
     id="path128" />
  <path
     style="fill:none;stroke:#000000;stroke-width:0.634615;stroke-linecap:round;stroke-linejoin:round;stroke-miterlimit:10;stroke-opacity:1"
     d="m 319.29338,97.849435 c -0.12973,0.03151 0.0575,-0.07264 0.0741,-0.0776"
     id="path130" />
  <path
     style="fill:none;stroke:#000000;stroke-width:0.634615;stroke-linecap:round;stroke-linejoin:round;stroke-miterlimit:10;stroke-opacity:1"
     d="m 312.27385,95.646305 c -0.3227,0.317681 1.07555,1.397158 1.8386,1.9775 1.1744,0.417894 2.85263,0.942283 3.8784,0.3817 0.10862,-0.129579 0.18996,-0.209826 0.1212,-0.1211"
     id="path132" />
  <path
     style="fill:none;stroke:#000000;stroke-width:0.634615;stroke-linecap:round;stroke-linejoin:round;stroke-miterlimit:10;stroke-opacity:1"
     d="m 314.87932,100.25178 c -1.10041,-0.375166 -1.77163,2.5825 0.1572,2.07047 1.59268,-0.36535 0.59937,-3.103651 -0.6841,-2.17307"
     id="path134" />
  <path
     style="fill:none;stroke:#000000;stroke-width:0.634615;stroke-linecap:round;stroke-linejoin:round;stroke-miterlimit:10;stroke-opacity:1"
     d="m 315.08244,99.165845 c -0.005,0.780775 -0.37851,3.080235 -0.2292,3.981085"
     id="path136" />
  <path
     style="fill:none;stroke:#000000;stroke-width:0.634615;stroke-linecap:round;stroke-linejoin:round;stroke-miterlimit:10;stroke-opacity:1"
     d="m 315.04729,77.747875 c -0.37179,-0.524608 2.16487,-0.416047 1.0609,0.7536 -1.12042,1.354885 -0.82829,1.581526 0.7151,1.884"
     id="path138" />
  <path
     style="fill:none;stroke:#000000;stroke-width:0.634615;stroke-linecap:round;stroke-linejoin:round;stroke-miterlimit:10;stroke-opacity:1"
     d="m 314.86369,79.044755 c 0.27739,0.142688 1.57363,-0.204033 2.13354,-0.1993"
     id="path140" />
  <path
     style="fill:none;stroke:#000000;stroke-width:0.634615;stroke-linecap:round;stroke-linejoin:round;stroke-miterlimit:10;stroke-opacity:1"
     d="m 305.66057,97.411935 c 0.77481,0.04594 1.37367,2.148272 -0.2847,1.6576 -0.065,-0.01897 0.0367,-0.07289 0.0858,-0.0823"
     id="path142" />
  <path
     style="fill:none;stroke:#000000;stroke-width:0.634615;stroke-linecap:round;stroke-linejoin:round;stroke-miterlimit:10;stroke-opacity:1"
     d="m 307.50041,98.036935 c -1.6081,0.164635 -0.24093,2.575215 1.055,1.0744"
     id="path144" />
  <path
     style="fill:none;stroke:#000000;stroke-width:0.634615;stroke-linecap:round;stroke-linejoin:round;stroke-miterlimit:10;stroke-opacity:1"
     d="m 327.5551,97.005685 c -0.17366,-0.261755 0.6122,1.568904 1.0509,0.781"
     id="path146" />
  <path
     style="fill:none;stroke:#000000;stroke-width:0.634615;stroke-linecap:round;stroke-linejoin:round;stroke-miterlimit:10;stroke-opacity:1"
     d="m 329.00041,97.064275 c -0.23326,-0.08268 -0.34764,2.368745 -0.5639,3.097625 0.008,0.31377 -0.21587,0.96567 -0.0655,1.14815"
     id="path148" />
  <path
     style="fill:none;stroke:#000000;stroke-width:1.90385;stroke-linecap:round;stroke-linejoin:round;stroke-miterlimit:10;stroke-opacity:1"
     d="m 278.96136,76.954905 c -0.26772,-1.03882 0.93737,1.159222 0.9524,1.9104 0.58797,2.134262 2.02735,3.665516 2.4236,5.86036 0.92266,2.50582 1.45067,5.223917 2.1929,7.73291 0.89857,3.860034 1.81629,7.889585 2.1701,11.887165 0.60972,7.69078 1.23001,15.36134 1.0756,22.77065 0.10657,1.94362 0.24796,5.15971 0.2473,6.02687 -0.0177,0.11332 -0.006,-0.19268 -0.004,-0.20297"
     id="path150" />
  <path
     style="fill:none;stroke:#000000;stroke-width:1.90385;stroke-linecap:round;stroke-linejoin:round;stroke-miterlimit:10;stroke-opacity:1"
     d="m 276.56292,83.849435 c -0.1138,-0.178167 2.26531,0.216117 3.09947,-0.2929 2.03228,0.59698 3.79899,-0.634821 5.9188,-1.1724 4.76947,-1.681002 9.55164,-3.362377 14.22049,-5.4367 5.73634,-2.850598 11.53152,-5.980611 17.23181,-9.4642 3.48415,-1.981729 6.88071,-4.400959 9.3962,-7.0885 0.22637,-0.192611 0.67573,-1.073054 0.5428,-0.594"
     id="path152" />
  <path
     style="fill:none;stroke:#000000;stroke-width:1.90385;stroke-linecap:round;stroke-linejoin:round;stroke-miterlimit:10;stroke-opacity:1"
     d="m 284.12932,126.55256 c 0.63686,0.75241 4.07611,1.09967 5.73505,0.8688 5.25392,-0.0102 10.37423,0.86497 15.61744,-0.6631 6.98037,-1.0504 13.57544,-3.42287 20.51241,-4.6324 3.70415,-1.20251 8.42202,-2.23204 10.93041,-4.9572 0.97533,-0.52217 0.63819,-0.2765 1.4462,-0.8334"
     id="path154" />
  <path
     style="fill:none;stroke:#000000;stroke-width:1.90385;stroke-linecap:round;stroke-linejoin:round;stroke-miterlimit:10;stroke-opacity:1"
     d="m 318.55901,59.857255 c -0.92685,-0.508977 0.32225,1.070545 1.1154,1.2385 1.42452,1.58472 2.75917,3.352873 4.3566,4.5892 1.53165,2.040868 3.04604,4.046893 4.5476,6.3604 1.59153,2.729253 3.83715,5.151277 4.6455,8.211 1.92105,4.19125 2.23614,9.317479 2.3513,14.02987 0.53935,3.451565 0.27637,6.776525 -0.0881,10.275525 -0.0459,3.93103 -0.67019,7.72596 -1.1942,11.73655 -0.53338,2.85574 -1.79602,7.36305 -2.0462,8.7945 -0.006,-0.10547 -0.0103,0.0199 -0.02,-0.0663"
     id="path156" />
  <path
     style="fill:none;stroke:#000000;stroke-width:1.26923;stroke-linecap:round;stroke-linejoin:round;stroke-miterlimit:10;stroke-opacity:1"
     d="m 266.96136,5.165855 c 0.27063,-0.7674395 -0.21713,1.6521276 -0.231,2.62913 0.0697,-0.029122 0.10234,0.1677498 0.2185,0.1015"
     id="path158" />
  <path
     style="fill:none;stroke:#000000;stroke-width:1.26923;stroke-linecap:round;stroke-linejoin:round;stroke-miterlimit:10;stroke-opacity:1"
     d="m 268.71136,6.103355 c -0.68714,-0.1531879 0.16461,2.5590297 -0.4779,3.40243 -0.0174,0.4021201 -0.24478,0.87836 -0.0352,1.25396"
     id="path160" />
  <path
     style="fill:none;stroke:#000000;stroke-width:1.26923;stroke-linecap:round;stroke-linejoin:round;stroke-miterlimit:10;stroke-opacity:1"
     d="m 274.12151,9.517425 c 0.37156,-1.3235679 0.47167,2.631016 0.3455,3.34385 0.008,1.008867 -0.18753,4.296214 -0.083,1.93396 -0.0135,-2.298155 1.32836,-6.1848368 1.7798,-7.46012 0.22187,1.2567032 -0.0444,4.897385 1.0323,5.49575 1.23621,-1.924596 4.15653,-5.3321335 3.94949,-6.89763 0.006,0.3012755 0.13627,3.2799796 0.3919,4.41064 -0.022,1.093889 0.40629,4.465489 1.43789,4.06641 l 0.004,-0.082 -0.0391,-0.0937"
     id="path162" />
  <path
     style="fill:none;stroke:#000000;stroke-width:1.26923;stroke-linecap:round;stroke-linejoin:round;stroke-miterlimit:10;stroke-opacity:1"
     d="m 283.69182,12.150235 c 0.52269,-0.317262 2.82001,0.714688 3.37107,-1.53014 0.83121,-4.4529969 -6.25358,1.918457 -2.29398,3.57016 3.20525,4.181911 6.27244,-2.973389 6.30823,-4.0388 0.12711,0.914456 -0.0329,4.479876 0.3061,5.40173 0.85582,-1.302133 2.38807,-5.179204 2.952,-5.31231 -0.0152,1.455686 0.0803,4.727545 1.5705,5.04243 0.76088,-1.42038 0.48625,-4.705749 1.6878,-5.27735 0.98855,1.494333 0.93067,5.807013 3.48445,5.47215 0.17218,-0.160934 0.26175,-0.370539 0.45317,-0.53113"
     id="path164" />
  <path
     style="fill:none;stroke:#000000;stroke-width:1.26923;stroke-linecap:round;stroke-linejoin:round;stroke-miterlimit:10;stroke-opacity:1"
     d="m 304.50041,4.544765 c -0.23893,-2.4182763 -0.003,1.0069334 0.007,1.90192 0.45912,1.6703703 -0.2955,5.553098 0.5669,6.18779 0.39003,-1.207697 1.81459,-4.9918478 3.38246,-3.71439 0.53729,2.036701 0.98745,5.363954 -2.04649,5.67201 -1.14435,0.391823 -3.62363,0.32833 -1.71491,-0.6558 1.3275,-1.280528 4.24278,-1.897947 5.21165,-0.31179 1.18805,0.345737 0.73992,-2.147077 1.91726,-3.2575 0.37617,-1.411368 2.42672,-1.9739554 4.10109,-1.34021"
     id="path166" />
  <path
     style="fill:none;stroke:#000000;stroke-width:1.26923;stroke-linecap:round;stroke-linejoin:round;stroke-miterlimit:10;stroke-opacity:1"
     d="m 319.17619,10.911955 c -0.13495,-1.0414832 -1.30652,-2.4445531 -2.41828,-0.74719 -1.24494,1.153624 -1.04613,4.734129 0.8516,2.46886 0.96392,-0.273355 1.85628,-2.8904898 2.25402,-2.46434 -0.21809,1.630497 0.71011,5.230991 2.15309,2.49966 0.84185,-0.956342 2.42894,-5.1442575 2.2781,-4.56222 0.22016,1.336608 -0.44363,4.544312 0.3077,5.53075 0.83811,-0.812676 2.44589,-4.0016888 2.99595,-4.01595 -1.08586,3.340928 4.07795,5.996278 5.36683,2.00766 1.09406,-1.289207 1.22204,-4.0832557 -0.8515,-3.01508 -2.93899,1.804485 -1.17189,6.561849 2.47225,5.18785 1.2512,-0.402206 2.62444,-0.6128 3.6914,-1.4103"
     id="path168" />
  <path
     style="fill:none;stroke:#000000;stroke-width:1.26923;stroke-linecap:round;stroke-linejoin:round;stroke-miterlimit:10;stroke-opacity:1"
     d="m 341.00431,0.634615 c 0.12433,0.9613909 -0.94918,3.5807853 -0.4064,4.61334 0.17903,-0.5612885 0.7061,-1.0706606 1.00758,-1.6405"
     id="path170" />
  <path
     style="fill:none;stroke:#000000;stroke-width:1.26923;stroke-linecap:round;stroke-linejoin:round;stroke-miterlimit:10;stroke-opacity:1"
     d="m 342.75431,1.181485 c 0.41021,-0.80080046 -0.0315,2.1438343 0.5698,2.62498 0.0439,0.4532359 0.25982,0.894172 0.2614,1.33993"
     id="path172" />
  <path
     style="fill:none;stroke:#000000;stroke-width:1.26923;stroke-linecap:round;stroke-linejoin:round;stroke-miterlimit:10;stroke-opacity:1"
     d="m 266.4887,20.599445 c -1.0489,0.505195 -0.94512,-0.429732 -0.99662,0.028 7.05281,1.316701 14.72387,-0.10624 22.09012,-0.01923 8.45453,-1.016366 16.7038,-0.506694 25.18359,-1.27975 10.38512,-0.614058 21.71062,-1.336166 31.54303,-2.05256 -0.21694,0.0765 0.54973,-0.15988 0.3353,0.0749"
     id="path174" />
  <path
     style="fill:#000000;fill-opacity:1;fill-rule:nonzero;stroke:none"
     d="m 106.3247,104.32594 c -2.89561,-0.46252 -4.60319,-7.720901 -7.109327,-2.74974 4.505437,-4.685544 2.135197,4.36374 5.673337,2.00733 l 0.64698,0.84424"
     id="path176" />
  <path
     style="fill:none;stroke:#000000;stroke-width:0.634615;stroke-linecap:round;stroke-linejoin:round;stroke-miterlimit:10;stroke-opacity:1"
     d="m 80.625463,107.01741 c -0.902236,0.001 1.922918,0.12907 2.36368,0.0155 8.057865,-0.12675 16.762078,-0.46979 24.460087,-0.1399 -0.0849,0.0604 -0.161,0.03 -0.25367,0.0666"
     id="path178" />
  <path
     style="fill:none;stroke:#000000;stroke-width:0.634615;stroke-linecap:round;stroke-linejoin:round;stroke-miterlimit:10;stroke-opacity:1"
     d="m 73.801243,81.579905 c -0.03526,-0.369517 -2.561243,2.073794 -4.29962,3.01652"
     id="path180" />
  <path
     style="fill:#000000;fill-opacity:1;fill-rule:nonzero;stroke:none"
     d="m 84.430173,85.286875 c -3.348962,-2.615016 -16.927465,-4.7344 -4.26169,-1.19531 1.318647,0.231949 2.402051,1.452015 3.79687,1.33988"
     id="path182" />
  <path
     style="fill:none;stroke:#000000;stroke-width:0.634615;stroke-linecap:round;stroke-linejoin:round;stroke-miterlimit:10;stroke-opacity:1"
     d="m 73.844213,60.798655 c -0.03925,0.33446 -0.02852,-1.064085 0.0395,-1.7516 0.205342,-1.402049 0.04524,-4.125957 -0.2028,-4.4088 -0.116415,0.539075 -1.084651,2.500147 -1.061,2.32987 0.413467,-0.839037 0.783055,-3.512905 1,-3.2573 0.321586,0.83108 1.070565,3.257815 1.8914,2.897 0.0017,-0.01145 -0.03543,0.05545 -0.047,-0.0154"
     id="path184" />
  <path
     style="fill:none;stroke:#000000;stroke-width:0.634615;stroke-linecap:round;stroke-linejoin:round;stroke-miterlimit:10;stroke-opacity:1"
     d="m 83.898903,85.255685 c -0.0023,-0.09518 0.31657,0.261043 0.8341,0.2859 3.041986,1.066911 7.780689,2.407765 10.4082,3.5655 -0.651563,-0.361743 -2.785881,-2.22995 -2.6887,-2.4149 0.764111,0.704055 3.058787,2.536278 3.1853,2.5133 -1.484197,0.01073 -3.903306,0.156864 -4.89253,0.724"
     id="path186" />
  <path
     style="fill:none;stroke:#000000;stroke-width:0.634615;stroke-linecap:round;stroke-linejoin:round;stroke-miterlimit:10;stroke-opacity:1"
     d="m 70.406713,84.033035 c -1.838874,0.969537 -5.976698,3.54768 -8.977357,4.929 -1.177071,0.902796 -3.812928,2.190423 -3.8397,2.4699 0.202793,-0.54213 1.993301,-3.384743 1.55852,-2.5249 -0.511459,0.953082 -2.415539,2.367802 -2.55065,2.6451 1.170983,-0.229735 3.607743,-0.219814 4.187471,-0.0248"
     id="path188" />
  <path
     style="fill:none;stroke:#000000;stroke-width:0.634615;stroke-linecap:round;stroke-linejoin:round;stroke-miterlimit:10;stroke-opacity:1"
     d="m 75.840303,83.622875 c 0.881407,1.786731 2.86709,5.4291 3.6331,7.164 -0.0053,-0.01959 -0.02673,-0.04189 -0.016,-0.0624"
     id="path190" />
  <path
     style="fill:none;stroke:#000000;stroke-width:0.634615;stroke-linecap:round;stroke-linejoin:round;stroke-miterlimit:10;stroke-opacity:1"
     d="m 98.777803,89.204905 c -0.22814,1.048738 1.184101,2.451239 2.023797,0.7664 0.8488,-1.636613 -0.36398,1.076889 -0.173,1.6142 -0.23773,0.949232 -0.16004,2.028837 -0.4732,2.9184"
     id="path192" />
  <path
     style="fill:none;stroke:#000000;stroke-width:0.634615;stroke-linecap:round;stroke-linejoin:round;stroke-miterlimit:10;stroke-opacity:1"
     d="m 73.250463,45.822105 c 0.192675,-0.466925 2.080735,0.379997 0.84955,1.2291 -0.534877,1.153102 -2.15571,2.483127 0.4919,2.36219"
     id="path194" />
  <path
     style="fill:none;stroke:#000000;stroke-width:0.634615;stroke-linecap:round;stroke-linejoin:round;stroke-miterlimit:10;stroke-opacity:1"
     d="m 72.660623,47.568195 c 0.174753,-0.450203 1.898804,0.543255 2.54357,-0.2022"
     id="path196" />
  <path
     style="fill:none;stroke:#000000;stroke-width:0.634615;stroke-linecap:round;stroke-linejoin:round;stroke-miterlimit:10;stroke-opacity:1"
     d="m 50.53953,91.974435 c -0.926892,-0.774176 2.305066,0.609259 0.476673,1.1839 -1.043087,0.76631 -1.083258,0.33954 -0.03903,-0.1813 0.756994,-0.227873 2.275012,-1.709058 2.179655,-1.9484 -1.259754,0.937151 -0.910216,3.457313 0.937473,1.80891"
     id="path198" />
  <path
     style="fill:none;stroke:#000000;stroke-width:0.634615;stroke-linecap:round;stroke-linejoin:round;stroke-miterlimit:10;stroke-opacity:1"
     d="m 66.949683,85.908035 c 0.02086,0.948621 1.795994,2.215897 3.10818,2.1324 2.488556,0.574257 6.02712,0.299477 7.79826,-0.5724 0.0028,0.03479 -0.01104,0.0716 -0.0354,0.0963"
     id="path200" />
  <path
     style="fill:none;stroke:#000000;stroke-width:0.634615;stroke-linecap:round;stroke-linejoin:round;stroke-miterlimit:10;stroke-opacity:1"
     d="m 74.301243,99.720525 c -2.10493,-0.261367 -0.765142,6.571615 1.2241,3.355185 0.549417,-1.19394 -0.245857,-3.143464 -1.1132,-3.327145 -0.155729,0.04305 -0.104436,0.155062 0.0198,0.1771"
     id="path202" />
  <path
     style="fill:none;stroke:#000000;stroke-width:0.634615;stroke-linecap:round;stroke-linejoin:round;stroke-miterlimit:10;stroke-opacity:1"
     d="m 74.863743,98.365055 c -0.771235,0.847251 -0.181098,3.487825 -0.5089,4.902325 -0.05771,0.79159 -0.279223,3.08544 -0.1308,3.05782"
     id="path204" />
  <path
     style="fill:none;stroke:#000000;stroke-width:0.634615;stroke-linecap:round;stroke-linejoin:round;stroke-miterlimit:10;stroke-opacity:1"
     d="m 82.777803,102.34944 c -0.289843,-1.48575 -2.476699,2.0972 -0.3292,1.3898 0.859662,-0.35014 0.913339,-2.74187 0.506,-0.83191 -0.182964,1.04668 0.795868,1.69732 1.68084,1.1011"
     id="path206" />
  <path
     style="fill:none;stroke:#000000;stroke-width:0.634615;stroke-linecap:round;stroke-linejoin:round;stroke-miterlimit:10;stroke-opacity:1"
     d="m 85.055153,102.10725 c -0.204467,-0.53681 3.309797,-1.52395 1.82856,0.2239 -1.89592,1.6954 -1.394821,3.77691 1.46431,1.9848"
     id="path208" />
  <path
     style="fill:none;stroke:#000000;stroke-width:0.634615;stroke-linecap:round;stroke-linejoin:round;stroke-miterlimit:10;stroke-opacity:1"
     d="m 86.125463,102.93147 c -0.603387,-0.39436 3.69125,-1.14113 3.10147,0.83937 -0.125287,1.91154 1.15594,0.28228 1.3516,-0.47284"
     id="path210" />
  <path
     style="fill:none;stroke:#000000;stroke-width:0.634615;stroke-linecap:round;stroke-linejoin:round;stroke-miterlimit:10;stroke-opacity:1"
     d="m 89.508273,101.60335 c -0.450221,-0.0138 -1.202147,-0.92863 -0.3167,-0.4991 l 0.0469,0.0195"
     id="path212" />
  <path
     style="fill:none;stroke:#000000;stroke-width:0.634615;stroke-linecap:round;stroke-linejoin:round;stroke-miterlimit:10;stroke-opacity:1"
     d="m 90.449683,102.25569 c -0.05671,-0.89595 0.139624,2.03671 0.2577,2.4333 0.495184,0.0317 1.477255,-4.16514 1.6974,-1.85508 -0.291329,1.22201 0.301977,2.43417 1.2234,1.14129 0.79893,-0.35979 1.318123,-3.20157 0.8533,-1.16011 -0.142501,2.22437 1.589747,0.33008 1.7168,-0.76209 -0.574904,1.32113 0.889439,3.60001 1.97128,1.20233 0.217613,-0.4381 -0.137354,-1.18813 -0.5703,-1.31717"
     id="path214" />
  <path
     style="fill:none;stroke:#000000;stroke-width:0.634615;stroke-linecap:round;stroke-linejoin:round;stroke-miterlimit:10;stroke-opacity:1"
     d="m 100.38327,99.517405 c -1.747274,1.030775 -0.36729,7.461325 1.96005,3.756965 0.0453,-0.11657 0.0786,-0.238 0.0861,-0.36322"
     id="path216" />
  <path
     style="fill:none;stroke:#000000;stroke-width:0.634615;stroke-linecap:round;stroke-linejoin:round;stroke-miterlimit:10;stroke-opacity:1"
     d="m 84.309053,71.978345 c 0.168691,0.497405 -0.538026,-0.317504 0.5003,0.4506"
     id="path218" />
  <path
     style="fill:none;stroke:#000000;stroke-width:0.634615;stroke-linecap:round;stroke-linejoin:round;stroke-miterlimit:10;stroke-opacity:1"
     d="m 84.969213,76.568185 c 1.045089,-0.167222 0.02344,-0.08026 0.50468,0.8755"
     id="path220" />
  <path
     style="fill:none;stroke:#000000;stroke-width:0.634615;stroke-linecap:round;stroke-linejoin:round;stroke-miterlimit:10;stroke-opacity:1"
     d="m 85.711403,82.458815 c 0.528128,-0.487878 -0.162143,0.424035 0.012,0.0467 0.04803,0.05328 0.0961,-0.187856 0.1525,-0.0466"
     id="path222" />
  <path
     style="fill:none;stroke:#000000;stroke-width:0.634615;stroke-linecap:round;stroke-linejoin:round;stroke-miterlimit:10;stroke-opacity:1"
     d="m 73.785623,61.232255 c -0.194756,-0.546797 0.198254,2.865051 0.1278,3.85108 0.108993,4.455701 -0.806261,9.08104 -0.1963,13.48298 -0.276997,1.719259 -0.237516,5.567756 -0.1503,6.23053 -0.12803,-0.280619 -0.05863,-0.582893 -0.0555,-0.89834"
     id="path224" />
  <path
     style="fill:none;stroke:#000000;stroke-width:0.634615;stroke-linecap:round;stroke-linejoin:round;stroke-miterlimit:10;stroke-opacity:1"
     d="m 73.160623,64.130695 c -1.401837,0.126433 1.878314,-0.335188 2.36378,0.0689 2.131963,1.011763 3.66127,2.01634 4.965,4.1719 0.589284,0.380242 0.862194,2.301091 0.9499,1.69553"
     id="path226" />
  <path
     style="fill:none;stroke:#000000;stroke-width:0.634615;stroke-linecap:round;stroke-linejoin:round;stroke-miterlimit:10;stroke-opacity:1"
     d="m 118.76217,38.759605 c -1.03234,-0.872405 -3.39899,2.584393 -1.25504,1.98476 0.88131,-0.188959 1.48884,-2.291496 1.33798,-0.4253 0.60178,1.042537 1.51504,-2.104159 1.4603,-1.72612 -0.38644,1.099225 0.34333,3.385126 1.33518,1.50434 0.45344,-2.136774 0.65982,1.626289 1.6806,0.13377 0.52823,-0.531976 0.78012,-2.472196 0.8017,-0.70737 0.31851,1.122898 1.73848,5.425083 -0.4182,4.56177 -2.2669,-1.180615 -0.16103,-2.859907 1.3511,-3.2737 0.99922,-0.354644 2.59464,-3.280684 2.2052,-2.59996 0.18994,-0.362648 0.90907,-2.885551 0.8005,-3.01649 -0.7574,1.472376 -1.11828,4.990796 0.9488,5.23437 1.22627,-0.277325 2.42574,-3.111771 1.42964,-3.35496 -1.73699,1.862353 0.57665,4.040033 2.50865,2.35858 l 0.0898,-0.043 0.16407,-0.082"
     id="path228" />
  <path
     style="fill:none;stroke:#000000;stroke-width:0.634615;stroke-linecap:round;stroke-linejoin:round;stroke-miterlimit:10;stroke-opacity:1"
     d="m 126.54342,42.400225 c 0.19263,-0.03347 2.72854,-0.142399 3.5901,-0.2184 1.91936,-0.116228 5.14529,0.01513 6.47497,0.0296"
     id="path230" />
  <path
     style="fill:none;stroke:#000000;stroke-width:0.634615;stroke-linecap:round;stroke-linejoin:round;stroke-miterlimit:10;stroke-opacity:1"
     d="m 87.980933,36.990075 c -1.062457,0.407533 -1.88379,4.454091 -0.02,4.40239 1.680649,-1.191002 3.185768,-4.721268 1.1567,-5.99242 -0.814624,0.264444 -1.539062,0.826307 -2.08589,1.469"
     id="path232" />
  <path
     style="fill:none;stroke:#000000;stroke-width:0.634615;stroke-linecap:round;stroke-linejoin:round;stroke-miterlimit:10;stroke-opacity:1"
     d="m 85.254363,38.837725 c 2.238026,0.205254 5.491812,-0.09215 7.80076,-0.6003"
     id="path234" />
  <path
     style="fill:none;stroke:#000000;stroke-width:0.634615;stroke-linecap:round;stroke-linejoin:round;stroke-miterlimit:10;stroke-opacity:1"
     d="m 97.824673,40.353355 c 0.150798,0.999085 0.560567,3.515999 0.2369,3.69518 -0.04104,-0.120664 -0.04326,-0.252407 -0.0557,-0.379"
     id="path236" />
  <path
     style="fill:none;stroke:#000000;stroke-width:0.634615;stroke-linecap:round;stroke-linejoin:round;stroke-miterlimit:10;stroke-opacity:1"
     d="m 97.672333,39.255695 c -0.233574,-0.139953 3.292887,0.137762 1.61053,1.0915 -1.279004,0.330794 -1.755855,2.066602 0.0077,1.2341 0.720897,-0.09521 2.705077,-2.091077 1.971697,-0.4415 1.55019,1.475085 2.0915,-2.292199 0.0265,-1.4696 -1.28431,1.097817 1.68083,-0.184096 1.90187,-0.81237 0.75478,-0.315383 1.66839,-2.992678 1.21378,-0.81965 -1.07555,2.058431 1.34832,4.813027 2.69116,2.08492 0.68897,-2.057781 -1.9249,-0.188956 -0.9531,0.92606 0.9082,0.571548 2.03795,-2.749542 1.87905,-0.48786 0.66035,0.548119 1.35145,-1.909239 1.7295,-0.0668 0.7277,1.582443 0.044,-1.931967 1.65907,-1.61012 0.28845,-0.09588 0.62732,-0.262169 0.92978,-0.1407"
     id="path238" />
  <path
     style="fill:none;stroke:#000000;stroke-width:0.634615;stroke-linecap:round;stroke-linejoin:round;stroke-miterlimit:10;stroke-opacity:1"
     d="m 94.457493,43.392415 c -0.823558,-0.543406 2.47785,0.12417 2.18782,-0.1616"
     id="path240" />
  <path
     style="fill:none;stroke:#000000;stroke-width:0.634615;stroke-linecap:round;stroke-linejoin:round;stroke-miterlimit:10;stroke-opacity:1"
     d="m 99.773893,43.243975 c -0.331669,0.09015 1.900797,-0.203234 2.345597,-0.2241 4.94789,-0.520362 9.8797,-0.705184 14.82132,-0.665 0.96722,0.07852 1.99778,-0.21194 2.86645,0.0073"
     id="path242" />
  <path
     style="fill:none;stroke:#000000;stroke-width:0.634615;stroke-linecap:round;stroke-linejoin:round;stroke-miterlimit:10;stroke-opacity:1"
     d="m 90.402803,43.060385 c -0.42865,-0.28457 -1.03881,0.04545 0.141,0.092 1.663149,0.314893 3.318805,0.261071 4.5086,0.072 0.133302,-0.150932 0.150511,-0.208675 0.1054,-0.2111"
     id="path244" />
  <path
     style="fill:none;stroke:#000000;stroke-width:0.634615;stroke-linecap:round;stroke-linejoin:round;stroke-miterlimit:10;stroke-opacity:1"
     d="m 86.258273,43.173665 c -1.057186,0.353767 -0.193935,-0.04631 1.0102,-0.0176 1.739933,-0.177829 3.211758,0.112269 4.8286,-0.0893"
     id="path246" />
  <path
     style="fill:none;stroke:#000000;stroke-width:0.634615;stroke-linecap:round;stroke-linejoin:round;stroke-miterlimit:10;stroke-opacity:1"
     d="m 85.309053,43.349445 c -1.317526,3.829521 -2.890506,8.835363 -4.5286,13.03128 -0.706334,2.227474 -2.172874,5.345857 -2.4015,6.59342 -0.179037,0.587563 -0.188277,0.625976 -0.1082,0.37353"
     id="path248" />
  <path
     style="fill:none;stroke:#000000;stroke-width:0.634615;stroke-linecap:round;stroke-linejoin:round;stroke-miterlimit:10;stroke-opacity:1"
     d="m 74.269993,90.947095 c -0.121394,-1.252607 0.08614,1.262378 -0.0088,2.2613 0.03187,1.265879 -0.04991,3.937932 -0.0011,3.734 0.01957,-0.08791 0.03681,-0.178366 0.0593,-0.2695"
     id="path250" />
  <path
     style="fill:none;stroke:#000000;stroke-width:0.634615;stroke-linecap:round;stroke-linejoin:round;stroke-miterlimit:10;stroke-opacity:1"
     d="m 70.332493,106.90412 c -1.730665,0.62982 1.765,0.38495 1.9182,0.4782 0.208475,-0.0353 0.421074,0.1479 0.2583,-0.0365"
     id="path252" />
  <path
     style="fill:none;stroke:#000000;stroke-width:0.634615;stroke-linecap:round;stroke-linejoin:round;stroke-miterlimit:10;stroke-opacity:1"
     d="m 75.516083,106.96662 c -0.722242,-0.0964 0.721432,0.19263 1.3637,0.2332 1.650746,0.0207 2.921824,7e-4 4.3788,0.0437"
     id="path254" />
  <path
     style="fill:none;stroke:#000000;stroke-width:1.26923;stroke-linecap:round;stroke-linejoin:round;stroke-miterlimit:10;stroke-opacity:1"
     d="m 165.73091,47.349445 c -1.00613,0.301776 0.24623,-1.513435 -0.2421,-0.40989 0.44285,2.133402 -0.0344,4.566439 0.3028,6.49964"
     id="path256" />
  <path
     style="fill:none;stroke:#000000;stroke-width:1.26923;stroke-linecap:round;stroke-linejoin:round;stroke-miterlimit:10;stroke-opacity:1"
     d="m 163.4731,46.572105 c 1.04241,-2.292614 4.87949,-2.593271 7.06635,-1.85889 1.66896,2.514214 -2.54393,4.504262 -4.39488,5.47238 -0.27136,0.120597 -2.82722,1.316168 -1.742,0.48486"
     id="path258" />
  <path
     style="fill:none;stroke:#000000;stroke-width:1.26923;stroke-linecap:round;stroke-linejoin:round;stroke-miterlimit:10;stroke-opacity:1"
     d="m 172.29731,50.634595 c -0.62657,-2.807525 -4.06886,1.532656 -1.6606,2.78477 1.28054,1.554279 4.83874,-0.536616 2.69908,-1.74949 -1.08771,0.0016 -2.81746,0.20744 -0.98757,-0.59012 0.35308,-0.268608 0.72797,-0.496997 1.05468,-0.80082"
     id="path260" />
  <path
     style="fill:none;stroke:#000000;stroke-width:1.26923;stroke-linecap:round;stroke-linejoin:round;stroke-miterlimit:10;stroke-opacity:1"
     d="m 176.23872,47.642415 c 0.57419,-0.214126 2.30177,-3.184142 1.64065,-2.64835 -0.80858,2.397147 -1.57315,5.814775 -0.3404,8.12096 1.41586,-0.51249 5.02241,-1.773187 3.67132,-3.77759 -2.2364,0.323608 -2.89244,4.753319 -0.6444,4.87451 1.35286,-0.481558 4.01637,-3.610622 1.89828,-3.98387 -1.12065,1.00426 0.55357,5.068089 1.4453,2.01898 0.50968,-0.981081 0.17296,-2.926676 0.5584,-1.15235 0.42063,0.891962 2.24489,2.352866 2.80439,1.90983 -0.87125,-2.783018 1.43238,-4.330133 3.98764,-3.99588 0.31771,-0.01939 0.6197,-0.106324 0.92969,-0.1679"
     id="path262" />
  <path
     style="fill:none;stroke:#000000;stroke-width:1.26923;stroke-linecap:round;stroke-linejoin:round;stroke-miterlimit:10;stroke-opacity:1"
     d="m 202.51997,47.048665 c -0.52867,0.943154 -1.06175,3.976046 -2.00451,5.41061 -0.87571,1.064433 -0.471,2.852792 0.0272,0.87087 0.73713,-3.194169 2.71159,-8.529427 4.81946,-9.74202 0.0352,2.562865 -0.32615,5.948516 0.8248,8.04687"
     id="path264" />
  <path
     style="fill:none;stroke:#000000;stroke-width:1.26923;stroke-linecap:round;stroke-linejoin:round;stroke-miterlimit:10;stroke-opacity:1"
     d="m 201.48481,49.275225 c 0.15147,-0.369293 2.83387,0.0046 3.76531,-0.2742 1.15684,-0.511115 4.40073,-1.304788 4.68695,-1.81225 -0.99034,1.740996 -1.02634,6.882512 1.32006,2.40574 0.53338,-1.479672 1.42557,-1.655302 1.41397,-0.02326 0.2708,2.971512 3.92056,1.759543 4.33139,-0.55052 1.09516,-1.59574 -0.26113,-2.117746 -0.3213,-0.28127 -0.40651,2.169459 2.4124,6.323382 -0.48787,7.1445 -1.14332,-0.146192 -5.54478,-0.253432 -3.02338,-1.59407 4.50359,-1.893601 9.18386,-5.85863 9.67156,-10.64418 -0.27936,1.599469 -1.99411,5.434815 -0.5482,7.2619 2.62366,-0.07081 6.45701,-3.043449 5.41327,-5.70635 -2.16047,1.268641 -3.22255,6.85202 1.00402,5.4032 1.07271,-0.389671 2.14222,-0.823228 3.16797,-1.45702"
     id="path266" />
  <path
     style="fill:none;stroke:#000000;stroke-width:1.03877;stroke-linecap:round;stroke-linejoin:round;stroke-miterlimit:10;stroke-opacity:1"
     d="m 158.40669,109.29084 c -0.51429,-1.11975 -2.55117,1.29384 -2.4221,2.68329 -0.46255,2.93475 3.15765,5.05725 5.0663,2.46511 2.53364,-2.41158 1.98572,-7.69842 -0.87517,-9.17153 -1.59507,0.21887 -2.77564,1.51132 -3.32409,3.05854"
     id="path268" />
  <path
     style="fill:none;stroke:#000000;stroke-width:1.03877;stroke-linecap:round;stroke-linejoin:round;stroke-miterlimit:10;stroke-opacity:1"
     d="m 170.35982,106.10334 c -0.13793,-0.33179 0.41842,-0.23998 -0.7774,0.57217 -0.62427,1.1839 -3.96187,3.42122 -1.79188,4.14026 0.81299,0.99591 2.83741,1.86829 3.1886,2.25847"
     id="path270" />
  <path
     style="fill:none;stroke:#000000;stroke-width:1.03877;stroke-linecap:round;stroke-linejoin:round;stroke-miterlimit:10;stroke-opacity:1"
     d="m 167.40669,112.95491 c -1.34123,-0.0368 1.24468,1.77533 2.3277,2.58296"
     id="path272" />
  <path
     style="fill:none;stroke:#000000;stroke-width:1.03877;stroke-linecap:round;stroke-linejoin:round;stroke-miterlimit:10;stroke-opacity:1"
     d="m 185.05122,106.326 c -1.66471,-0.73989 -5.00386,2.61328 -4.3249,5.24159 -0.55013,2.83342 1.93217,5.8685 4.82846,4.56628 4.00614,-1.34695 6.20994,-8.93331 1.77038,-10.87873 -0.23315,-0.11749 -4.1443,-0.1802 -2.66032,0.1995"
     id="path274" />
  <path
     style="fill:none;stroke:#000000;stroke-width:1.03877;stroke-linecap:round;stroke-linejoin:round;stroke-miterlimit:10;stroke-opacity:1"
     d="m 186.73872,102.27913 c -0.12505,-0.68805 -0.52642,2.32195 -0.555,2.82318 0.21708,4.63785 -2.19595,9.56643 -1.1721,13.96461 l 0.0312,-0.0117 0.0273,0.004"
     id="path276" />
  <path
     style="fill:none;stroke:#000000;stroke-width:1.03877;stroke-linecap:round;stroke-linejoin:round;stroke-miterlimit:10;stroke-opacity:1"
     d="m 200.30122,105.59944 c -0.22716,-0.84528 -2.45839,1.67564 -3.30536,2.21828 -3.50102,1.56408 -0.50109,3.80733 1.62915,4.77756 0.19115,0.0177 0.46635,0.28387 0.4215,0.2466"
     id="path278" />
  <path
     style="fill:none;stroke:#000000;stroke-width:1.03877;stroke-linecap:round;stroke-linejoin:round;stroke-miterlimit:10;stroke-opacity:1"
     d="m 195.39887,112.25959 c -1.83794,0.31604 1.598,2.21239 2.1754,3.21387"
     id="path280" />
  <path
     style="fill:none;stroke:#000000;stroke-width:1.03877;stroke-linecap:round;stroke-linejoin:round;stroke-miterlimit:10;stroke-opacity:1"
     d="m 211.07465,106.48616 c -2.05651,0.59878 2.00633,-2.63826 3.1876,-0.7811 2.76437,1.097 -1.40621,3.64179 -1.27749,3.89733 1.96221,0.54243 5.3528,2.2278 3.45331,4.69087 -1.07181,0.96493 -4.85543,1.58466 -5.03912,0.15197 0.18244,-0.34557 0.5816,-0.40843 0.83204,-0.70305"
     id="path282" />
  <path
     style="fill:none;stroke:#000000;stroke-width:1.03877;stroke-linecap:round;stroke-linejoin:round;stroke-miterlimit:10;stroke-opacity:1"
     d="m 224.26605,104.31819 c 1.04645,-1.75661 -2.68368,1.76682 -2.429,2.77679 -1.73006,2.04697 -1.86707,9.23256 1.96897,6.95308 1.55592,-1.60612 -0.8164,-5.27683 -2.32417,-2.6515 -1.05169,0.55791 -1.65073,1.33183 -0.12079,0.777 3.06539,-1.95047 7.45798,-3.29929 9.56671,-5.97945 -2.79699,0.29918 -3.9832,5.11814 -3.07854,7.61076 3.35595,2.76732 6.79634,-3.59126 4.72607,-6.44522 -0.67578,-2.80087 -3.94142,-1.57004 -4.64435,-0.21457"
     id="path284" />
  <path
     style="fill:none;stroke:#000000;stroke-width:1.03877;stroke-linecap:round;stroke-linejoin:round;stroke-miterlimit:10;stroke-opacity:1"
     d="m 239.32465,100.8885 c -2.15556,-0.0984 -1.61618,5.13243 0.76174,2.61284 1.35426,-1.85502 -0.12111,-3.13005 -1.96152,-2.1949"
     id="path286" />
  <path
     style="fill:none;stroke:#000000;stroke-width:1.26923;stroke-linecap:round;stroke-linejoin:round;stroke-miterlimit:10;stroke-opacity:1"
     d="m 167.85591,93.704905 c -1.22625,0.266759 -0.36927,2.663105 -1.445,3.63686 -0.99126,1.889209 -0.31431,0.817395 0.3835,-0.28483 0.47977,-1.996228 2.54717,-6.310378 3.3858,-6.64886 0.14701,2.138321 0.88449,5.267556 0.9497,7.21086 -0.0361,-0.08372 -0.0386,-0.180602 -0.09,-0.2578"
     id="path288" />
  <path
     style="fill:none;stroke:#000000;stroke-width:1.26923;stroke-linecap:round;stroke-linejoin:round;stroke-miterlimit:10;stroke-opacity:1"
     d="m 166.24653,95.618965 c 0.82157,-1.708361 4.22473,-0.02381 5.69517,-0.7381"
     id="path290" />
  <path
     style="fill:none;stroke:#000000;stroke-width:1.26923;stroke-linecap:round;stroke-linejoin:round;stroke-miterlimit:10;stroke-opacity:1"
     d="m 174.88716,94.404125 c -1.31175,0.104169 2.11679,-0.505347 2.62884,-0.4061 3.0522,0.0074 -0.6364,2.824754 -1.64432,3.51196 -2.63606,1.251281 -0.29259,2.48308 1.61395,2.17903 0.93522,-0.09025 2.0598,0.211134 2.87493,-0.1562"
     id="path292" />
  <path
     style="fill:none;stroke:#000000;stroke-width:1.26923;stroke-linecap:round;stroke-linejoin:round;stroke-miterlimit:10;stroke-opacity:1"
     d="m 174.2856,96.829905 c 1.87532,-0.415484 5.16723,-1.626688 6.39035,-0.02413 -0.15388,0.975295 0.37099,2.550774 0.7733,2.85563"
     id="path294" />
  <path
     style="fill:none;stroke:#000000;stroke-width:1.26923;stroke-linecap:round;stroke-linejoin:round;stroke-miterlimit:10;stroke-opacity:1"
     d="m 180.78169,93.118965 c -0.78758,-0.874613 -0.12486,-0.534502 0.58245,-0.36267 l 0.043,0.043"
     id="path296" />
  <path
     style="fill:none;stroke:#000000;stroke-width:1.26923;stroke-linecap:round;stroke-linejoin:round;stroke-miterlimit:10;stroke-opacity:1"
     d="m 184.53169,94.126775 c -0.27914,0.976684 0.48881,3.529411 0.1031,4.81919 0.54778,-1.030497 2.08813,-4.287613 2.747,-3.73308 0.40265,1.009106 -0.0678,5.282745 1.7087,4.05828 1.21119,-0.807632 1.8052,-4.957571 1.94978,-4.67149 0.18637,0.804951 -0.19267,5.143527 1.5505,3.32005 0.76273,-0.520199 1.69512,-3.619926 1.5977,-3.22634 0.0512,1.075344 0.55378,3.760358 1.767,4.10953 1.25106,-0.750246 1.57084,-5.034831 1.4413,-4.66299 -0.0391,0.275764 -0.0113,0.0954 0.14,-0.58212 0.96464,-0.90608 0.0653,-0.108997 -0.2706,0.1804"
     id="path298" />
  <path
     style="fill:none;stroke:#000000;stroke-width:1.26923;stroke-linecap:round;stroke-linejoin:round;stroke-miterlimit:10;stroke-opacity:1"
     d="m 201.17622,90.099435 c 0.36619,0.04998 -0.96137,3.307846 -0.9754,4.34407 -0.40357,1.620949 -0.81804,6.936445 2.00822,4.4493 0.75133,-0.732935 1.68422,-1.37376 2.11319,-2.36322"
     id="path300" />
  <path
     style="fill:none;stroke:#000000;stroke-width:1.26923;stroke-linecap:round;stroke-linejoin:round;stroke-miterlimit:10;stroke-opacity:1"
     d="m 199.75043,93.669745 c -1.02165,0.246191 2.84321,0.04917 3.25013,-1.03845 0.4926,-0.369928 3.66984,-2.312709 2.99972,-1.47993 -1.49847,2.249405 -0.27015,5.406385 -0.4492,7.92925 1.04765,-1.267923 2.4737,-5.480982 4.40989,-4.58552 -0.0355,1.332474 -0.0482,7.320765 2.43339,4.30825"
     id="path302" />
  <path
     style="fill:none;stroke:#000000;stroke-width:0.634615;stroke-linecap:round;stroke-linejoin:round;stroke-miterlimit:10;stroke-opacity:1"
     d="m 149.56294,38.911945 c -0.28813,-1.857861 0.29698,1.446494 0.2674,1.96442 1.49255,8.951508 -0.0153,18.012709 0.3451,27.0311 0.56076,7.659527 1.57722,15.39314 0.2775,23.03511 -0.20336,7.163074 -1.20416,14.291435 -0.6411,21.472615 0.075,3.9839 0.84884,9.53145 0.6973,12.60459 -0.0527,-0.16113 -0.15395,-0.56074 -0.1365,-0.80844"
     id="path304" />
  <path
     style="fill:none;stroke:#000000;stroke-width:0.634615;stroke-linecap:round;stroke-linejoin:round;stroke-miterlimit:10;stroke-opacity:1"
     d="m 148.12544,39.978355 c -1.04467,-0.603265 1.02557,-0.550916 1.86319,0.1794 7.9923,0.05512 16.3465,-1.139786 24.47265,-1.0946 5.95069,-0.305362 11.89655,-1.104659 17.87109,-1.1874 7.53403,-0.126748 15.24804,-0.673362 22.68749,-1.70706 5.56468,0.29562 11.58881,-1.458607 16.74591,-1.3824 0.16013,0.143951 0.0512,0.450631 -0.2498,0.5547"
     id="path306" />
  <path
     style="fill:none;stroke:#000000;stroke-width:0.634615;stroke-linecap:round;stroke-linejoin:round;stroke-miterlimit:10;stroke-opacity:1"
     d="m 152.75435,126.59162 c -1.83467,-0.77296 -1.79812,-0.458 0.22302,-0.12442 9.07499,-0.0963 18.02897,-0.89205 27.08593,-0.31825 10.20153,-1.21657 20.52573,-1.61005 30.9414,-1.63692 7.22815,-1.00323 14.64473,-1.42429 21.76926,-2.01223 2.73493,0.43097 7.21755,-0.34484 8.80861,-1.1521 -0.14133,0.0189 -0.14563,-0.077 -0.0943,0.0114"
     id="path308" />
  <path
     style="fill:none;stroke:#000000;stroke-width:0.634615;stroke-linecap:round;stroke-linejoin:round;stroke-miterlimit:10;stroke-opacity:1"
     d="m 241.00824,33.271325 c -0.78016,-0.470293 0.65076,2.308445 0.2311,3.07408 0.44094,4.626344 0.73446,9.173247 0.0362,13.78504 0.74224,12.08213 -0.88174,24.230825 0.659,36.23437 0.592,6.527236 0.0292,13.152265 1.1339,19.613535 0.47831,4.1368 0.16123,8.74692 0.6642,12.61271 0.0532,0.86988 0.17543,2.6357 0.1142,2.73063 -0.24549,0.73239 0.47355,0.15011 -0.895,0.26485 -0.84365,-0.77824 -1.36094,-0.0254 -0.7935,-0.53678 l 0.043,-0.043"
     id="path310" />
  <path
     style="fill:none;stroke:#000000;stroke-width:0.634615;stroke-linecap:round;stroke-linejoin:round;stroke-miterlimit:10;stroke-opacity:1"
     d="m 230.24652,34.400225 c -0.5516,0.332672 1.06245,0.221471 1.9177,0.52581 2.51549,-0.595745 4.80983,0.169767 6.98425,-0.8634 0.31855,0.339244 2.19743,-0.24187 1.8394,0.03331 0.35766,0.03871 -0.17053,0.03621 1.4771,-0.017"
     id="path312" />
  <path
     style="fill:none;stroke:#000000;stroke-width:1.03877;stroke-linecap:round;stroke-linejoin:round;stroke-miterlimit:10;stroke-opacity:1"
     d="m 185.02387,62.310375 c -0.42714,-1.142556 -1.42999,2.388412 -1.6068,3.06178 -2.18159,3.534575 1.86112,12.815767 4.38579,5.48804 1.58261,-3.059086 1.41803,-7.308275 0.0588,-10.23808 -1.37624,-0.480693 -5.52091,2.196722 -3.29221,3.98383"
     id="path314" />
  <path
     style="fill:none;stroke:#000000;stroke-width:1.03877;stroke-linecap:round;stroke-linejoin:round;stroke-miterlimit:10;stroke-opacity:1"
     d="m 180.96138,67.579905 c -1.78404,-0.264924 2.31131,-0.339429 3.12854,0.0696 3.03446,0.848288 5.94594,-0.359102 8.71486,-1.3161 l 0.0664,0.0117 0.0508,0.0312"
     id="path316" />
  <path
     style="fill:none;stroke:#000000;stroke-width:1.03877;stroke-linecap:round;stroke-linejoin:round;stroke-miterlimit:10;stroke-opacity:1"
     d="m 175.07466,62.775225 c 0.362,0.151366 -1.81219,1.421704 -2.1758,2.0452 -1.2926,1.18915 -2.33615,1.459683 -0.1554,1.69147 0.99955,0.74215 2.49124,2.490921 2.8534,3.0002"
     id="path318" />
  <path
     style="fill:none;stroke:#000000;stroke-width:1.03877;stroke-linecap:round;stroke-linejoin:round;stroke-miterlimit:10;stroke-opacity:1"
     d="m 171.227,69.591625 c 0.21902,0.827585 -0.44782,-0.674736 -0.1577,0.1863 1.07208,0.833078 2.44,2.167002 3.08189,3.49668"
     id="path320" />
  <path
     style="fill:none;stroke:#000000;stroke-width:1.03877;stroke-linecap:round;stroke-linejoin:round;stroke-miterlimit:10;stroke-opacity:1"
     d="m 203.47309,63.220535 c 0.18487,-0.171037 -0.10132,-0.543099 0.3018,-0.83397 0.18417,-0.774518 -1.66791,2.121187 -2.38867,2.56163 -1.17739,1.475616 -4.24497,3.571708 -1.17922,2.167 1.40652,-0.287621 1.61477,2.817449 3.3019,3.13208 0.33961,0.161365 1.18687,0.105008 1.23436,0.1166"
     id="path322" />
  <path
     style="fill:none;stroke:#000000;stroke-width:1.03877;stroke-linecap:round;stroke-linejoin:round;stroke-miterlimit:10;stroke-opacity:1"
     d="m 199.42622,69.357255 c -1.51093,-1.752779 1.15175,4.458348 2.8159,3.28595"
     id="path324" />
  <path
     style="fill:none;stroke:#000000;stroke-width:1.03877;stroke-linecap:round;stroke-linejoin:round;stroke-miterlimit:10;stroke-opacity:1"
     d="m 215.50434,63.271315 c 1.78955,-1.562082 -2.78578,-2.604214 -2.93705,-0.23874 -1.0731,3.097187 3.20934,3.3976 3.85178,0.83242 0.60037,-1.528988 0.43948,-1.163284 0.1905,0.20291 -0.31579,3.433641 -1.5326,7.895282 -0.7344,10.76158 -0.0496,-0.296757 0.29777,-0.74348 0.5858,-0.9805"
     id="path326" />
  <path
     style="fill:none;stroke:#000000;stroke-width:1.03877;stroke-linecap:round;stroke-linejoin:round;stroke-miterlimit:10;stroke-opacity:1"
     d="m 222.03168,64.611155 c 0.28104,-1.424891 -2.43363,0.08493 -2.2305,1.31685 -0.71688,2.39098 -0.9309,6.575042 1.5931,7.69955 5.17438,-1.061928 3.94205,-15.173787 -1.7655,-9.45012 -0.17253,0.279523 0.13327,0.573318 0.3634,0.6406"
     id="path328" />
  <path
     style="fill:none;stroke:#000000;stroke-width:1.03877;stroke-linecap:round;stroke-linejoin:round;stroke-miterlimit:10;stroke-opacity:1"
     d="m 229.43012,59.529125 c -1.58999,-0.432738 -0.82288,3.776537 0.8544,1.84714 1.6681,-1.472084 0.18091,-3.747897 -1.70315,-2.22583"
     id="path330" />
  <path
     style="fill:none;stroke:#000000;stroke-width:1.03877;stroke-linecap:round;stroke-linejoin:round;stroke-miterlimit:10;stroke-opacity:1"
     d="m 164.23091,63.005695 c -1.14815,-1.04864 -4.16825,1.783136 -4.5123,3.70267 -0.40575,2.348224 1.91665,7.201316 4.24944,5.6593 2.21378,-2.4698 3.48756,-8.876651 -0.2386,-10.05889 -0.32577,0.285468 -0.52051,0.707321 -0.715,1.09761"
     id="path332" />
  <path
     style="fill:none;stroke:#000000;stroke-width:0.634615;stroke-linecap:round;stroke-linejoin:round;stroke-miterlimit:10;stroke-opacity:1"
     d="m 151.35982,83.298655 c -1.45413,-0.04194 -0.75574,0.856864 0.54775,0.3345 3.62102,-0.575461 7.16982,-0.746729 10.74601,-0.61353 5.18984,-0.3187 10.20818,-0.35877 15.3476,-0.6736 3.83273,0.630854 8.01097,-0.255473 11.76953,0.0084 5.32683,-1.471663 10.63314,0.03086 15.95317,-0.9955 4.7788,-0.589308 9.59321,-1.084549 14.33203,-0.83951 5.12707,-0.201396 9.62149,-1.338421 14.71812,-1.35243 1.95365,0.05391 4.00145,-0.0053 5.00544,-0.26859 0.51223,0.06284 0.54663,-0.01465 0.409,-0.1212"
     id="path334" />
  <path
     style="fill:none;stroke:#000000;stroke-width:1.26923;stroke-linecap:round;stroke-linejoin:round;stroke-miterlimit:10;stroke-opacity:1"
     d="m 37.961407,13.087735 c -0.526528,-0.952783 -0.619671,1.110863 -0.402339,1.97683 0.152012,0.07769 0.264158,0.261175 0.42187,0.3006"
     id="path336" />
  <path
     style="fill:none;stroke:#000000;stroke-width:1.26923;stroke-linecap:round;stroke-linejoin:round;stroke-miterlimit:10;stroke-opacity:1"
     d="m 39.320782,13.228355 c -0.299711,-1.726444 0.36268,2.291147 0.09765,3.19158 0.04462,0.347749 0.115765,0.666246 0.18359,0.99596"
     id="path338" />
  <path
     style="fill:none;stroke:#000000;stroke-width:1.26923;stroke-linecap:round;stroke-linejoin:round;stroke-miterlimit:10;stroke-opacity:1"
     d="m 43.750468,15.419765 c -0.246345,1.30886 0.662947,5.119129 1.07811,6.03821 -0.0836,-0.135471 -0.113279,-0.121215 -0.08593,-0.35157"
     id="path340" />
  <path
     style="fill:none;stroke:#000000;stroke-width:1.26923;stroke-linecap:round;stroke-linejoin:round;stroke-miterlimit:10;stroke-opacity:1"
     d="m 42.617656,15.634605 c -3.352558,-0.360401 4.044799,-2.26064 4.804681,-1.6375"
     id="path342" />
  <path
     style="fill:none;stroke:#000000;stroke-width:1.26923;stroke-linecap:round;stroke-linejoin:round;stroke-miterlimit:10;stroke-opacity:1"
     d="m 42.227031,18.872885 c 1.573373,-0.009 4.99596,0.06793 7.136752,-0.595"
     id="path344" />
  <path
     style="fill:none;stroke:#000000;stroke-width:1.26923;stroke-linecap:round;stroke-linejoin:round;stroke-miterlimit:10;stroke-opacity:1"
     d="m 49.457498,17.884605 c -0.771393,0.622924 0.567778,2.048259 0.660149,2.6286 0.188078,0.06185 0.247127,-0.118738 0.44923,-0.1095"
     id="path346" />
  <path
     style="fill:none;stroke:#000000;stroke-width:1.26923;stroke-linecap:round;stroke-linejoin:round;stroke-miterlimit:10;stroke-opacity:1"
     d="m 49.44578,13.193205 c -0.246289,-0.551427 -0.649192,-1.575688 0.675728,-0.33126"
     id="path348" />
  <path
     style="fill:none;stroke:#000000;stroke-width:1.26923;stroke-linecap:round;stroke-linejoin:round;stroke-miterlimit:10;stroke-opacity:1"
     d="m 53.062967,11.169765 c 0.431207,0.345475 -0.950902,-0.688274 -0.22267,0.8716 0.913944,2.455683 0.701535,7.067738 0.956944,8.62109 0.235909,-0.924696 2.147425,-4.575715 3.714875,-3.97294 2.087859,1.754682 -0.803172,6.412228 -2.894565,5.12804 1.229513,-1.869727 6.326042,-2.126965 6.265627,0.2067 -0.213675,-0.551267 1.227609,-4.432171 1.35927,-4.13211 1.652161,1.927882 5.557112,1.215715 5.43362,-1.72657 -1.322752,-1.845615 -3.760183,1.974096 -2.800768,3.22988 0.618386,3.524469 4.304749,1.039288 5.367123,-0.88278 1.289942,-1.360518 0.199621,-3.502356 2.08615,-2.28049 2.493951,0.936773 2.704534,5.397127 -0.65188,4.98418 -1.692731,-0.03116 -0.298041,-0.813232 0.49982,-1.0004"
     id="path350" />
  <path
     style="fill:none;stroke:#000000;stroke-width:1.26923;stroke-linecap:round;stroke-linejoin:round;stroke-miterlimit:10;stroke-opacity:1"
     d="m 78.109833,10.095545 c 0.02704,-0.01495 -0.459421,4.210338 0.5511,1.91012 0.78853,-1.079315 1.453928,-3.5047697 1.3678,-0.90987 0.05444,0.990552 0.237054,1.935821 0.8317,2.74989"
     id="path352" />
  <path
     style="fill:none;stroke:#000000;stroke-width:1.26923;stroke-linecap:round;stroke-linejoin:round;stroke-miterlimit:10;stroke-opacity:1"
     d="m 35.582501,26.306485 c -1.079512,-0.731095 -1.086534,-0.178888 0.941384,-0.0489 7.862849,-0.732491 15.765125,-2.022869 23.664058,-1.0385 6.524442,-1.67301 13.059921,-0.418637 19.65234,-1.37883 0.732965,0.35025 3.869525,-0.482723 2.64837,0.208"
     id="path354" />
</svg>
