<?xml version="1.0" encoding="UTF-8" standalone="no"?>
<!-- Created with Inkscape (http://www.inkscape.org/) -->

<svg
   version="1.1"
   id="svg2"
   xml:space="preserve"
   width="1511.6533"
   height="444.82666"
   viewBox="0 0 1511.6533 444.82666"
   sodipodi:docname="IMIO_Logo.svg"
   inkscape:version="1.1.2 (0a00cf5339, 2022-02-04)"
   xmlns:inkscape="http://www.inkscape.org/namespaces/inkscape"
   xmlns:sodipodi="http://sodipodi.sourceforge.net/DTD/sodipodi-0.dtd"
   xmlns="http://www.w3.org/2000/svg"
   xmlns:svg="http://www.w3.org/2000/svg"><defs
     id="defs6" /><sodipodi:namedview
     id="namedview4"
     pagecolor="#ffffff"
     bordercolor="#666666"
     borderopacity="1.0"
     inkscape:pageshadow="2"
     inkscape:pageopacity="0.0"
     inkscape:pagecheckerboard="0"
     showgrid="false"
     inkscape:zoom="0.90430787"
     inkscape:cx="758.59121"
     inkscape:cy="223.37525"
     inkscape:window-width="2560"
     inkscape:window-height="1376"
     inkscape:window-x="1920"
     inkscape:window-y="27"
     inkscape:window-maximized="1"
     inkscape:current-layer="g10" /><g
     id="g8"
     inkscape:groupmode="layer"
     inkscape:label="ink_ext_XXXXXX"
     transform="matrix(1.3333333,0,0,-1.3333333,0,444.82667)"><g
       id="g10"
       transform="scale(0.1)"><path
         d="m 4516.33,3087.18 c 15.2,86.18 -42.33,168.35 -128.53,183.53 -86.15,15.2 -168.32,-42.32 -183.52,-128.51 -15.19,-86.17 42.35,-168.34 128.52,-183.54 86.16,-15.21 168.34,42.35 183.53,128.52"
         style="fill:#393536;fill-opacity:1;fill-rule:nonzero;stroke:none"
         id="path12" /><path
         d="m 8858.62,3087.18 c 15.16,86.18 -42.35,168.35 -128.51,183.53 -86.2,15.2 -168.36,-42.32 -183.59,-128.51 -15.17,-86.17 42.36,-168.34 128.54,-183.54 86.19,-15.21 168.38,42.35 183.56,128.52"
         style="fill:#393536;fill-opacity:1;fill-rule:nonzero;stroke:none"
         id="path14" /><path
         d="M 4509.46,2232.44 V 450.211 c 0,-99.492 -49.32,-149.223 -148.01,-149.223 -98.73,0 -148.05,49.731 -148.05,149.223 V 2232.44 c 0,98.14 49.32,147.17 148.05,147.17 98.69,0 148.01,-49.03 148.01,-147.17"
         style="fill:#393536;fill-opacity:1;fill-rule:nonzero;stroke:none"
         id="path16" /><path
         d="m 8172.55,443.898 c 0,-95.269 -51.35,-142.91 -153.86,-142.91 -77.94,0 -125.12,38.731 -141.49,116.121 L 7383.78,2637.53 6686.02,1009.57 c -32.65,-77.66 -81.64,-116.398 -146.98,-116.398 -65.36,0 -114.31,38.738 -147.05,116.398 L 5692.85,2640.85 5198.84,417.559 c -16.28,-77.739 -63.08,-116.571 -140.5,-116.571 -101.88,0 -152.79,47.641 -152.79,142.91 0,12.274 2.07,24.543 6.12,36.77 l 588.05,2646.292 c 20.44,95.25 70.92,142.92 151.44,142.92 64.16,0 112.62,-38.02 145.34,-114.03 l 742.58,-1732.57 742.53,1732.53 c 32.74,76.05 81.16,114.07 145.29,114.07 80.52,0 131.64,-47.67 153.49,-142.92 L 8168.42,480.668 c 2.75,-12.227 4.13,-24.496 4.13,-36.77"
         style="fill:#606060;fill-opacity:1;fill-rule:nonzero;stroke:none"
         id="path18" /><path
         d="M 8862.67,2232.44 V 450.211 c 0,-99.492 -49.36,-149.223 -148.02,-149.223 -98.75,0 -148.02,49.731 -148.02,149.223 V 2232.44 c 0,98.14 49.27,147.17 148.02,147.17 98.66,0 148.02,-49.03 148.02,-147.17"
         style="fill:#393536;fill-opacity:1;fill-rule:nonzero;stroke:none"
         id="path20" /><path
         d="m 11041.3,1341.36 c 0,203.1 -72.7,377.5 -218.1,523.38 -145.3,145.91 -320.4,218.83 -525.1,218.83 -204.8,0 -379.85,-72.92 -525.22,-218.83 -145.4,-145.88 -218.05,-320.28 -218.05,-523.38 0,-204.5 72.65,-379.641 218.05,-525.54 145.37,-145.84 320.42,-218.769 525.22,-218.769 204.7,0 379.8,72.929 525.1,218.769 145.4,145.899 218.1,321.04 218.1,525.54 m 296.1,0 c 0,-287.53 -101.8,-532.809 -305.2,-735.829 -203.6,-203.043 -448.3,-304.543 -734.1,-304.543 -285.9,0 -530.58,101.5 -734.1,304.543 -203.5,203.02 -305.28,448.299 -305.28,735.829 0,286.08 101.78,530.66 305.28,733.73 203.52,203.02 448.2,304.52 734.1,304.52 285.8,0 530.5,-101.5 734.1,-304.52 203.4,-203.07 305.2,-447.65 305.2,-733.73"
         style="fill:#393536;fill-opacity:1;fill-rule:nonzero;stroke:none"
         id="path22" /><path
         d="m 1981.01,1514.84 c 80.08,0 145.04,64.97 145.04,145.06 0,80.12 -64.96,145.06 -145.04,145.06 -80.13,0 -145.08,-64.94 -145.08,-145.06 0,-80.09 64.95,-145.06 145.08,-145.06"
         style="fill:#606060;fill-opacity:1;fill-rule:nonzero;stroke:none"
         id="path24" /><path
         d="m 2482.08,1541.21 c 65.55,0 118.67,53.14 118.67,118.69 0,65.55 -53.12,118.68 -118.67,118.68 -65.54,0 -118.68,-53.13 -118.68,-118.68 0,-65.55 53.14,-118.69 118.68,-118.69"
         style="fill:#606060;fill-opacity:1;fill-rule:nonzero;stroke:none"
         id="path26" /><path
         d="m 2950.19,1582.65 c 42.68,0 77.27,34.58 77.27,77.25 0,42.66 -34.59,77.26 -77.27,77.26 -42.66,0 -77.26,-34.6 -77.26,-77.26 0,-42.67 34.6,-77.25 77.26,-77.25"
         style="fill:#606060;fill-opacity:1;fill-rule:nonzero;stroke:none"
         id="path28" /><path
         d="m 2193.16,1966.45 c 61.34,51.47 69.36,142.95 17.86,204.32 -51.48,61.39 -142.97,69.4 -204.35,17.89 -61.36,-51.49 -69.35,-142.99 -17.87,-204.35 51.49,-61.37 143,-69.37 204.36,-17.86"
         style="fill:#393536;fill-opacity:1;fill-rule:nonzero;stroke:none"
         id="path30" /><path
         d="m 2560.03,2308.73 c 50.22,42.13 56.79,117 14.62,167.2 -42.11,50.2 -116.96,56.73 -167.15,14.61 -50.23,-42.12 -56.78,-116.99 -14.65,-167.2 42.15,-50.19 116.98,-56.75 167.18,-14.61"
         style="fill:#393536;fill-opacity:1;fill-rule:nonzero;stroke:none"
         id="path32" /><path
         d="m 2892.03,2641.33 c 32.69,27.44 36.94,76.18 9.49,108.85 -27.42,32.71 -76.14,36.97 -108.82,9.54 -32.68,-27.44 -36.95,-76.16 -9.52,-108.86 27.43,-32.68 76.13,-36.94 108.85,-9.53"
         style="fill:#393536;fill-opacity:1;fill-rule:nonzero;stroke:none"
         id="path34" /><path
         d="m 1863.38,2279.21 c 13.91,78.88 -38.77,154.11 -117.65,168.02 -78.89,13.91 -154.13,-38.76 -168.05,-117.65 -13.92,-78.89 38.76,-154.11 117.66,-168.04 78.89,-13.89 154.12,38.78 168.04,117.67"
         style="fill:#393536;fill-opacity:1;fill-rule:nonzero;stroke:none"
         id="path36" /><path
         d="m 1924.4,2777.27 c 11.39,64.57 -31.68,126.09 -96.24,137.47 -64.57,11.4 -126.1,-31.71 -137.5,-96.27 -11.38,-64.54 31.73,-126.09 96.26,-137.47 64.57,-11.4 126.12,31.69 137.48,96.27"
         style="fill:#393536;fill-opacity:1;fill-rule:nonzero;stroke:none"
         id="path38" /><path
         d="m 1964.92,3245.46 c 7.42,42.01 -20.66,82.09 -62.65,89.51 -42.05,7.41 -82.12,-20.65 -89.54,-62.66 -7.42,-42.01 20.66,-82.11 62.68,-89.54 42.03,-7.38 82.09,20.66 89.51,62.69"
         style="fill:#393536;fill-opacity:1;fill-rule:nonzero;stroke:none"
         id="path40" /><path
         d="m 1409.71,2306.84 c -40.06,69.37 -128.79,93.14 -198.14,53.08 -69.38,-40.03 -93.14,-128.77 -53.11,-198.14 40.07,-69.38 128.77,-93.14 198.17,-53.08 69.35,40.04 93.13,128.76 53.08,198.14"
         style="fill:#393536;fill-opacity:1;fill-rule:nonzero;stroke:none"
         id="path42" /><path
         d="m 1136.32,2727.61 c -32.76,56.75 -105.35,76.19 -162.101,43.43 -56.778,-32.77 -76.215,-105.33 -43.461,-162.11 32.773,-56.78 105.352,-76.22 162.112,-43.45 56.78,32.77 76.23,105.35 43.45,162.13"
         style="fill:#393536;fill-opacity:1;fill-rule:nonzero;stroke:none"
         id="path44" /><path
         d="m 866.418,3112.29 c -21.355,36.97 -68.605,49.64 -105.543,28.28 -36.988,-21.35 -49.66,-68.61 -28.301,-105.54 21.328,-36.95 68.582,-49.63 105.528,-28.25 36.961,21.31 49.632,68.56 28.316,105.51"
         style="fill:#393536;fill-opacity:1;fill-rule:nonzero;stroke:none"
         id="path46" /><path
         d="m 1044.4,2036.38 c -75.263,27.4 -158.505,-11.39 -185.908,-86.69 -27.394,-75.29 11.414,-158.51 86.711,-185.92 75.267,-27.39 158.497,11.42 185.877,86.7 27.44,75.26 -11.38,158.49 -86.68,185.91"
         style="fill:#393536;fill-opacity:1;fill-rule:nonzero;stroke:none"
         id="path48" /><path
         d="m 564.527,2182.98 c -61.589,22.42 -129.679,-9.32 -152.109,-70.91 -22.414,-61.6 9.328,-129.72 70.937,-152.14 61.59,-22.42 129.696,9.34 152.11,70.92 22.426,61.62 -9.328,129.7 -70.938,152.13"
         style="fill:#393536;fill-opacity:1;fill-rule:nonzero;stroke:none"
         id="path50" /><path
         d="m 110.473,2304.18 c -40.1019,14.57 -84.43,-6.09 -99.0277,-46.19 -14.59374,-40.09 6.0938,-84.43 46.1758,-99.04 40.0937,-14.58 84.4339,6.08 99.0389,46.17 14.594,40.09 -6.086,84.48 -46.187,99.06"
         style="fill:#393536;fill-opacity:1;fill-rule:nonzero;stroke:none"
         id="path52" /><path
         d="M 938.441,1594.43 C 863.152,1567 824.352,1483.77 851.738,1408.48 c 27.407,-75.27 110.621,-114.09 185.902,-86.69 75.28,27.42 114.11,110.65 86.7,185.92 -27.4,75.28 -110.62,114.11 -185.899,86.72"
         style="fill:#393536;fill-opacity:1;fill-rule:nonzero;stroke:none"
         id="path54" /><path
         d="m 476.566,1398.24 c -61.566,-22.42 -93.324,-90.51 -70.914,-152.07 22.418,-61.63 90.516,-93.39 152.121,-70.97 61.598,22.42 93.34,90.51 70.95,152.11 -22.438,61.57 -90.539,93.35 -152.157,70.93"
         style="fill:#393536;fill-opacity:1;fill-rule:nonzero;stroke:none"
         id="path56" /><path
         d="M 50.8672,1199.22 C 10.7734,1184.64 -9.90625,1140.29 4.67188,1100.2 19.2813,1060.11 63.6172,1039.41 103.73,1054.01 c 40.071,14.58 60.75,58.9 46.165,99.03 -14.586,40.11 -58.9419,60.77 -99.0278,46.18"
         style="fill:#393536;fill-opacity:1;fill-rule:nonzero;stroke:none"
         id="path58" /><path
         d="m 1141.35,1187.68 c -40.08,-69.33 -16.29,-158.06 53.09,-198.121 69.37,-40.039 158.08,-16.27 198.13,53.101 40.08,69.38 16.28,158.1 -53.1,198.14 -69.36,40.04 -158.07,16.3 -198.12,-53.12"
         style="fill:#393536;fill-opacity:1;fill-rule:nonzero;stroke:none"
         id="path60" /><path
         d="m 913.617,740.539 c -32.75,-56.73 -13.336,-129.309 43.457,-162.09 56.776,-32.789 129.366,-13.328 162.126,43.449 32.75,56.743 13.34,129.321 -43.43,162.122 -56.79,32.769 -129.379,13.3 -162.153,-43.481"
         style="fill:#393536;fill-opacity:1;fill-rule:nonzero;stroke:none"
         id="path62" /><path
         d="m 715.438,314.469 c -21.321,-36.938 -8.668,-84.207 28.277,-105.571 36.953,-21.328 84.211,-8.66 105.555,28.282 21.332,36.961 8.683,84.218 -28.286,105.57 -36.925,21.32 -84.222,8.621 -105.546,-28.281"
         style="fill:#393536;fill-opacity:1;fill-rule:nonzero;stroke:none"
         id="path64" /><path
         d="m 1558.19,1006.59 c 13.92,-78.899 89.15,-131.578 168.06,-117.668 78.89,13.91 131.55,89.148 117.64,168.018 -13.89,78.89 -89.14,131.58 -168.02,117.68 -78.91,-13.94 -131.62,-89.14 -117.68,-168.03"
         style="fill:#393536;fill-opacity:1;fill-rule:nonzero;stroke:none"
         id="path66" /><path
         d="m 1671.18,517.68 c 11.36,-64.551 72.92,-107.668 137.46,-96.25 64.55,11.34 107.66,72.898 96.3,137.492 -11.39,64.527 -72.95,107.629 -137.49,96.269 -64.55,-11.382 -107.64,-72.972 -96.27,-137.511"
         style="fill:#393536;fill-opacity:1;fill-rule:nonzero;stroke:none"
         id="path68" /><path
         d="m 1793.24,63.8594 c 7.41,-42.0196 47.51,-70.09768 89.53,-62.66799 42.02,7.41797 70.07,47.50779 62.68,89.51949 -7.42,42.0271 -47.49,70.0701 -89.52,62.6801 -42.01,-7.411 -70.09,-47.481 -62.69,-89.5316"
         style="fill:#393536;fill-opacity:1;fill-rule:nonzero;stroke:none"
         id="path70" /><path
         d="m 1993.97,1135.74 c 61.35,-51.46 152.86,-43.46 204.37,17.92 51.46,61.38 43.45,152.85 -17.9,204.36 -61.37,51.49 -152.89,43.46 -204.37,-17.89 -51.47,-61.36 -43.48,-152.86 17.9,-204.39"
         style="fill:#393536;fill-opacity:1;fill-rule:nonzero;stroke:none"
         id="path72" /><path
         d="m 2394.77,833.891 c 50.21,-42.141 125.05,-35.563 167.17,14.609 42.18,50.219 35.63,125.07 -14.61,167.23 -50.21,42.13 -125.07,35.59 -167.18,-14.61 -42.16,-50.249 -35.61,-125.1 14.62,-167.229"
         style="fill:#393536;fill-opacity:1;fill-rule:nonzero;stroke:none"
         id="path74" /><path
         d="m 2779.97,564.699 c 32.71,-27.41 81.45,-23.148 108.84,9.531 27.44,32.7 23.19,81.411 -9.52,108.879 -32.63,27.422 -81.38,23.161 -108.81,-9.558 -27.44,-32.66 -23.19,-81.422 9.49,-108.852"
         style="fill:#393536;fill-opacity:1;fill-rule:nonzero;stroke:none"
         id="path76" /><path
         d="m 1776.68,1659.9 c 0,84.8 51.67,157.47 125.22,188.41 -63.67,104.48 -178.64,174.22 -309.9,174.22 -200.28,0 -362.62,-162.35 -362.62,-362.63 0,-200.26 162.34,-362.63 362.62,-362.63 131.26,0 246.23,69.78 309.88,174.23 -73.53,30.91 -125.2,103.61 -125.2,188.4"
         style="fill:#606060;fill-opacity:1;fill-rule:nonzero;stroke:none"
         id="path78" /></g></g></svg>
