<?xml version="1.0" encoding="UTF-8" standalone="no"?>
<!-- Created with Inkscape (http://www.inkscape.org/) -->

<svg
   width="80mm"
   height="80mm"
   viewBox="0 0 80 80"
   version="1.1"
   id="svg1"
   inkscape:version="1.4.2 (ebf0e940d0, 2025-05-08)"
   sodipodi:docname="logo_mono.svg"
   inkscape:export-filename="logo_mono.png"
   inkscape:export-xdpi="40.639999"
   inkscape:export-ydpi="40.639999"
   xmlns:inkscape="http://www.inkscape.org/namespaces/inkscape"
   xmlns:sodipodi="http://sodipodi.sourceforge.net/DTD/sodipodi-0.dtd"
   xmlns="http://www.w3.org/2000/svg"
   xmlns:svg="http://www.w3.org/2000/svg">
  <sodipodi:namedview
     id="namedview1"
     pagecolor="#2a2a2a"
     bordercolor="#000000"
     borderopacity="0.25"
     inkscape:showpageshadow="2"
     inkscape:pageopacity="0.0"
     inkscape:pagecheckerboard="0"
     inkscape:deskcolor="#d1d1d1"
     inkscape:document-units="mm"
     inkscape:zoom="2.066779"
     inkscape:cx="221.11701"
     inkscape:cy="72.5767"
     inkscape:window-width="2560"
     inkscape:window-height="1375"
     inkscape:window-x="2240"
     inkscape:window-y="0"
     inkscape:window-maximized="1"
     inkscape:current-layer="g13"
     showgrid="false" />
  <defs
     id="defs1" />
  <g
     inkscape:label="Layer 1"
     inkscape:groupmode="layer"
     id="layer1"
     transform="translate(-9.6812675,-8.2321348)">
    <g
       id="g13"
       transform="matrix(1.0648635,0,0,1.0648635,-30.219781,-15.390836)">
      <circle
         style="fill:#8fd6b7;fill-opacity:0.429913;stroke:none;stroke-width:2.99769;stroke-linecap:round;stroke-linejoin:round;opacity:0.5"
         id="path3"
         cx="75.034073"
         cy="59.747536"
         r="36.723434" />
      <path
         style="baseline-shift:baseline;display:inline;overflow:visible;opacity:1;vector-effect:none;fill:#4db286;stroke-linecap:round;stroke-linejoin:round;enable-background:accumulate;stop-color:#000000;stop-opacity:1;fill-opacity:1;stroke:none"
         d="m 79.289062,31.376953 c -4.299836,0.22688 -8.658173,1.221079 -12.673828,2.914063 -1.91123,0.805965 -2.807456,3.008497 -2.001953,4.919921 0.805965,1.911231 1.205206,0.763728 3.116631,-0.04178 6.270925,-2.643797 16.04285,-2.59087 21.130775,-0.424731 3.529556,1.502677 4.580482,3.717452 5.563141,5.376664 0.982659,1.659211 1.392532,3.754095 0.492188,7.074218 -0.543483,2.002619 0.63978,4.066552 2.642578,4.609375 2.002619,0.543484 4.066556,-0.63978 4.609376,-2.642578 1.30741,-4.821217 0.80012,-9.354763 -1.28125,-12.86914 -2.081372,-3.514377 -5.490194,-5.846177 -9.273439,-7.22461 -3.783245,-1.378433 -8.024382,-1.918286 -12.324219,-1.691406 z"
         id="path7"
         sodipodi:nodetypes="scccsscccssss" />
      <circle
         style="fill:#8fd6b7;stroke:none;stroke-width:1.878175;stroke-linecap:round;stroke-linejoin:round;stroke-dasharray:none"
         id="path1"
         cx="66.150742"
         cy="38.092819"
         r="8.8833303" />
      <path
         id="path2"
         style="baseline-shift:baseline;display:inline;overflow:visible;vector-effect:none;fill:#4db286;fill-opacity:1;stroke-linecap:round;stroke-linejoin:round;enable-background:accumulate;stop-color:#000000;stroke:none"
         d="m 97.436509,50.375324 c -0.02542,0.0018 -0.05082,0.0039 -0.07619,0.0063 -0.07865,0.0036 -0.157154,0.0099 -0.235364,0.01893 -0.06852,0.007 -0.13682,0.01603 -0.204791,0.02718 -0.02949,0.0035 -0.05893,0.0074 -0.08832,0.01165 -0.04881,0.01202 -0.09736,0.02512 -0.145586,0.03931 -0.06471,0.01525 -0.12896,0.0324 -0.192659,0.05144 -0.07532,0.02391 -0.149775,0.05045 -0.223232,0.07959 -0.0652,0.02485 -0.12961,0.05172 -0.193144,0.08056 -0.0681,0.03205 -0.135104,0.06636 -0.200909,0.102881 -0.06459,0.03465 -0.128033,0.07139 -0.190232,0.11016 -0.05982,0.03858 -0.118409,0.07904 -0.175674,0.121322 -0.06291,0.04511 -0.124258,0.09238 -0.183924,0.141704 -0.05355,0.0456 -0.105663,0.09285 -0.156262,0.141703 -0.05498,0.05143 -0.108234,0.104676 -0.15966,0.15966 -0.04868,0.0538 -0.09562,0.109148 -0.140733,0.165968 -0.03099,0.03496 -0.06124,0.07055 -0.09075,0.106763 -2.140993,2.887474 -3.834938,4.447921 -5.214893,5.308554 -0.669532,0.345647 -1.319818,0.56237 -1.966868,0.710945 -2.135427,0.490336 -4.673041,0.07484 -7.833986,-0.408612 -3.160946,-0.483456 -6.99533,-0.970111 -11.107247,0.474611 -4.111917,1.444721 -8.121383,4.745926 -11.982705,10.695724 -1.016507,1.565132 -5.079473,5.341081 -3.513874,6.356869 3.407841,0.538694 10.05896,3.541183 12.324743,0.70357 4.16734,-6.178015 7.34293,-9.028161 9.609167,-10.25023 2.266237,-1.222068 3.717466,-1.142732 5.904485,-0.884678 2.187019,0.258054 5.113695,0.937852 8.579873,-0.06066 1.384342,-0.398791 2.764894,-1.054203 4.16085,-2.017338 2.252172,-1.439554 4.434534,-3.601794 6.459166,-6.59602 0.002,-0.0031 0.005,-0.0047 0.007,-0.0078 0.0213,-0.02846 0.0422,-0.05726 0.0626,-0.08638 0.0112,-0.01666 0.0223,-0.03327 0.0335,-0.04998 0.0455,-0.07244 0.0882,-0.146578 0.12812,-0.222261 0.0299,-0.04876 0.0585,-0.09828 0.0859,-0.148498 0.0513,-0.106557 0.097,-0.215735 0.13685,-0.327083 0.026,-0.07005 0.0496,-0.14094 0.0708,-0.212556 0.0334,-0.105637 0.0616,-0.212853 0.0844,-0.32126 0.009,-0.05497 0.0159,-0.110151 0.0218,-0.165483 0.0156,-0.09668 0.0269,-0.193992 0.034,-0.291657 0.002,-0.05984 0.002,-0.119715 0,-0.179556 0.002,-0.09241 -4.2e-4,-0.184858 -0.006,-0.277099 -0.007,-0.06526 -0.0153,-0.130321 -0.0257,-0.195086 -0.0108,-0.08608 -0.0249,-0.171718 -0.0422,-0.256716 -0.0151,-0.06389 -0.0321,-0.127331 -0.051,-0.190233 -0.0232,-0.08594 -0.0497,-0.170932 -0.0796,-0.254776 -0.0229,-0.05989 -0.0475,-0.119122 -0.0738,-0.177615 -0.0344,-0.08053 -0.072,-0.159693 -0.11258,-0.237305 -0.0313,-0.05838 -0.0643,-0.115834 -0.099,-0.172277 -0.0458,-0.07548 -0.0945,-0.14914 -0.14607,-0.220805 -0.0371,-0.05138 -0.0756,-0.101709 -0.1155,-0.150924 -0.0571,-0.07016 -0.117012,-0.137989 -0.179562,-0.203336 -0.0431,-0.04555 -0.0874,-0.08989 -0.13297,-0.132968 -0.0662,-0.06145 -0.13485,-0.120214 -0.20576,-0.176159 -0.0292,-0.02591 -0.0588,-0.05131 -0.0888,-0.07619 -0.0212,-0.01399 -0.0426,-0.02774 -0.064,-0.04125 -0.0234,-0.01843 -0.047,-0.03655 -0.0709,-0.05435 -0.0439,-0.02673 -0.0884,-0.05246 -0.13345,-0.07716 -0.055,-0.03395 -0.11102,-0.06632 -0.16791,-0.09706 -0.0742,-0.03838 -0.14979,-0.07399 -0.22663,-0.106763 -0.0588,-0.02645 -0.11836,-0.05121 -0.17858,-0.07425 -0.0751,-0.02712 -0.15122,-0.05156 -0.22809,-0.07328 -0.0654,-0.01979 -0.13147,-0.0376 -0.198,-0.05338 -0.0773,-0.0168 -0.15514,-0.03088 -0.23342,-0.04222 -0.0665,-0.0109 -0.13336,-0.0198 -0.20042,-0.02669 -0.0806,-0.0068 -0.16133,-0.01066 -0.24216,-0.01165 -0.0412,-0.0027 -0.08247,-0.0046 -0.123748,-0.0058 z"
         sodipodi:nodetypes="ccccccccccccccccccssscccsssccccccccccccccccccccccccccccccccccccccc" />
      <rect
         style="fill:#ffffff;fill-opacity:1;stroke:none;stroke-width:1.87818;stroke-linecap:round;stroke-linejoin:round;stroke-dasharray:none"
         id="rect2"
         width="27.597542"
         height="17.938314"
         x="48.381241"
         y="65.075417"
         ry="4.1657362" />
      <rect
         style="fill:#ffffff;fill-opacity:1;stroke:none;stroke-width:1.40863;stroke-linecap:round;stroke-linejoin:round;stroke-dasharray:none"
         id="rect2-6"
         width="20.474316"
         height="16.125141"
         x="87.753311"
         y="46.187359"
         ry="5.8320312" />
    </g>
  </g>
</svg>
