<svg width="1966" height="1806" xmlns="http://www.w3.org/2000/svg" overflow="hidden"><g fill="#d2dce3" fill-rule="evenodd"><path d="M294.97 5h24.95l36.02 8.319 24.94 16.639 16.63 19.412 13.85 33.278 2.78 30.505-5.55 27.731-13.85 27.732-16.63 19.412 19.4 27.731 16.63 33.278 11.08 49.917 2.77 24.958 27.71-22.185 49.88-27.731 8.32-8.32h5.54l5.54-11.092 11.09-19.413 2.77-13.865-13.86-13.866-8.31-13.866-2.77-22.185 8.31-24.958 11.09-13.866 22.17-11.093h27.71l22.17 11.093 16.62 22.185 2.78 8.319v22.185l-8.32 22.186-16.63 16.639-19.39 5.546h-11.09l-5.54 30.504 49.88-13.865 24.94-13.866 22.17-22.185 13.86-27.732 16.62-47.143-2.77-11.093-8.31-19.412V85.421l8.31-16.639 13.86-13.865 22.17-8.32 27.71 5.547 13.86 11.092 8.31 13.866 2.77 27.731-11.08 22.186-16.63 13.865-5.54 2.773h-24.94l-11.09 44.371-2.77 36.051 36.03 2.773h58.19l36.03-13.866 16.62-5.546-2.77-16.639 5.54-19.412 13.86-16.639 19.4-8.319h19.4l22.17 11.092 13.85 22.185v24.959l-11.08 22.185-13.86 11.092-5.54 2.774h-30.48l-11.09-5.547-16.63 2.773-38.79 19.412-27.71 8.32h-38.8l-36.03-5.547H677.4l-27.71 16.64-30.49 11.092-69.28 11.093-41.56 16.639-30.49 19.412-33.25 30.505-22.17 27.731-19.4 38.824-8.31 24.958-8.32 52.69v58.236l8.32 38.824 13.85 33.278 22.17 30.509 52.66 52.69 24.94 30.5 16.62 24.96 5.55 16.64 22.16-41.6 8.32-36.05 11.08-16.64 13.86-11.09h19.4l2.77 5.54v19.42l-11.09 22.18-16.62 24.96-8.32 33.28-13.85 24.96-13.86 19.41-5.54 24.96-5.54 72.1v30.5l22.17 38.83 11.08 27.73 22.17 91.51 2.77 5.55 16.63-80.42 38.8-166.39 19.39-94.29 11.09-69.33 8.31-74.873-77.59 8.32h-69.28l-30.48-11.093-22.17-16.639-22.17-24.958-16.63-30.505-11.09-36.05v-55.464l2.72-10.174v15.382h5.54l2.77-11.092 8.31-16.639 13.86-13.866 16.63-2.773 19.39 8.319 16.63 24.959 8.32 27.731v30.505l-2.78 11.093-11.08 22.185 5.54 2.773 24.94-22.185 11.09-24.959V478.87l-2.77-8.319-11.09-22.186-13.85-16.638-22.17-13.866-27.72-5.546-13.85 2.773-14.15 12.135 14.21-28.436 24.94-27.731 27.71-16.639 27.71-11.093 27.71-2.773 526.53 11.093 116.39 2.773 13.86 2.773-16.63-19.412-30.48-24.958-27.72-27.732-22.17-36.051-5.54-11.093-49.88-2.773-30.48-11.092-24.94-19.412-19.4-30.505-5.54-19.412v-47.144l11.08-33.277 19.4-27.732 22.17-16.639 24.94-8.319 13.86-2.773h30.48l36.02 11.092 24.94 19.412 19.4 27.732 8.32 19.412 2.77 13.865v47.144l-11.09 27.731-24.94 27.732-13.85 11.093 24.94 36.05 22.17 19.412 47.11 33.279 8.31 8.319 19.4-52.69 8.31-13.865-5.54-16.64V207.44l8.31-16.639 16.63-11.093 8.31-2.773h19.4l16.63 8.319 11.08 13.866 2.77 8.32v27.731l-11.08 19.413-19.4 11.092-19.4 2.773-11.08 30.505v38.824l5.54 22.185h69.28l36.03 11.093 33.25 22.185 16.63 13.866 19.4 22.185 5.54-38.824 16.63-38.824 13.85-22.186 2.77-11.092v-22.185l-24.94-16.64-16.63-22.185-8.31-22.185-2.77-24.958 5.54-27.732 11.09-22.185 16.62-19.412 24.95-13.865 16.62-5.547h38.8l27.71 11.093 22.17 19.412 16.63 33.277 2.77 16.639v22.186l-8.32 27.732-16.62 24.958-22.17 16.639-22.17 8.319h-30.48l-2.78 44.371-16.62 41.597-5.54 30.504v97.06l13.85 61.01 5.54 41.597V737.11l38.8-27.73 36.03-30.5 22.16-27.736 19.4-38.825 13.86-44.37 2.77-13.865v-19.412l-19.4-22.186-13.85-19.412-11.09-44.37-13.85-8.319-11.09-13.866-2.77-22.186 11.08-19.412 22.17-11.092 22.17 2.773 13.86 11.093 8.31 16.638-2.77 24.959-11.08 13.866-5.55 2.773 2.78 16.639 13.85 24.958 19.4 11.092 13.86-2.773 27.71-24.958-5.54-27.731v-22.186l8.31-33.277 19.4-30.505 30.48-22.185 24.94-8.32h33.26l22.16 5.547 22.17 13.866 19.4 22.185 13.86 33.277v44.371l-11.09 27.731-19.39 22.185-22.17 16.639-36.03 11.093h-27.71l-24.94-8.32-22.17-13.865-11.09 2.773-22.17 22.185-16.62 33.278-22.17 88.741h63.73l77.6 11.092 5.54-16.639 19.4-22.185 24.94-11.093h24.94l22.17 11.093 16.63 19.412 8.31 24.958v19.411l-11.08 24.96-13.86 13.87-22.17 11.09h-36.03l-22.16-13.87-13.86-16.64-2.77-16.64h-44.34l-41.57-2.77h-44.34l-33.25 11.09-27.71 33.28-19.4 22.19-33.26 30.5-33.25 24.96-16.63 19.41-8.31 22.19-30.48 130.33-5.55 5.55v-8.32l-11.08-5.54-16.63-11.1 11.09-55.46-13.86-5.55-24.94-8.32 5.54-5.54 30.48-5.55h11.09l2.77-24.96 11.09-74.87 2.77-27.73V628.958l-5.55-52.689-27.71-8.32-8.31-5.546 19.4-5.546h11.08l-13.85-44.371-22.17-44.37-22.17-30.505-22.17-16.639-27.71-13.865-24.95-5.547-471.1-11.092-227.23-5.547h-49.89l24.95 24.959 19.39 27.731 22.17 41.597 13.86 44.371 13.85 88.74 5.55 5.547 24.94 5.546 8.31 5.546-22.17 11.093-13.85 2.773-2.78 72.106-11.08 85.96-13.86 77.65 22.17-19.41v8.32l-16.62 27.73-13.86 13.87-16.63 72.1-24.94 133.11-11.08 83.19v80.43l2.77 16.63 24.94-8.32 5.54 2.78-24.94 22.18-2.77 5.55 2.77 36.05 16.63 80.42 16.63 55.46 22.17 47.15 19.39 24.96 24.94 19.41 24.95 8.32h33.25l19.4-8.32 19.4-16.64 8.31-19.41v-24.96l-24.94 33.28-16.63 8.32-22.17-2.78-16.62-13.86-11.09-24.96v-38.83l8.31-22.18 22.17-22.19 36.03-13.86 60.96-2.77h205.07l69.28 22.18 22.17 5.55v2.77l-285.43 8.32h-13.86l5.55 11.09h5.54l16.63 27.73 8.31 19.42 2.77 13.86v30.51l-11.08 30.5-19.4 24.96v2.77l27.71-11.09 30.48-19.41h8.32l-13.86 19.41 27.71-13.87 16.63-13.86 5.54 2.77-13.85 22.19 30.48-22.19h5.54l-5.54 11.09-5.54 8.32 13.85-5.54 27.71-16.64-5.54 13.86-8.31 11.1h44.34l124.7-2.78-85.91-16.64-5.54-5.54h44.34l133.02 8.32 38.79 2.77h52.66l36.02-2.77 30.48-11.09 5.55 2.77-5.55 5.54 19.4-5.54 33.26-22.19h8.31l-11.08 16.64 33.25-16.64 16.63-22.18 11.08-36.05 2.77-22.19v-47.14l33.26-11.09 30.48-19.42 16.63-24.95 5.54-5.55 8.31 24.96 30.49-36.05 24.94-36.05 30.48-52.69 16.63-24.96 11.08-41.6 11.09-16.64 24.94-22.18 19.4-8.32h33.25l8.31 8.32v19.41l-11.08 22.18-22.17 24.96-27.71 16.64-16.63 8.32-30.48 63.78 38.79-11.09 13.86-8.32 11.09-2.77h27.71l22.17 11.09 5.54 5.55v11.09l-22.17 11.09-22.17 5.55-44.34 2.77-47.11 22.19-16.63 22.18-22.17 33.28-24.94 27.73-27.71 24.96-11.08 8.32h-5.55l-2.77 16.64-22.17 44.37-19.4 22.18-16.62 13.87h-5.54v5.54l27.71 2.78 47.11 13.86 27.71 16.64 33.25 30.51 24.94 19.41 13.86 5.55 60.97 5.54 36.02 13.87 36.03 27.73 13.85 11.09 44.34 11.09 22.17 13.87v2.77h-55.42l-36.03-5.54-16.62-11.1-16.63-13.86-19.4-5.55h-60.97l24.94 16.64 30.49 13.87-5.54 5.54-11.09 2.78h-36.02l-44.34-11.1-27.72-16.64-30.48-36.05-24.94-16.64-27.71-8.31-55.42-5.55-11.09-2.77 16.63 27.73 24.94 22.18 22.17 11.1 36.02 13.86 24.94 19.41 16.63 22.19H1639l-30.48-13.87-72.05-11.09-24.94-8.32-22.17-16.64-30.49-38.82-19.4-16.64-27.71-11.09h-11.08l11.08 16.63 13.86 33.28 13.85 24.96v8.32l-22.16-5.55-22.17-13.86-19.4-24.96-11.09-16.64-24.94-16.64-30.48-5.54h-44.34l19.4 22.18 27.71 27.73 11.08 13.87 22.17 11.09 30.49 11.09 16.62 11.1 19.4 22.18v5.55l-19.4-2.78-36.02-11.09-55.42-11.09-44.34-19.41-16.63-11.1v16.64l19.4 22.19 16.62 11.09-11.08 5.55h-22.17l-27.71-11.1-19.4-16.63-8.31-16.64-11.09-36.05-16.63-22.19-27.71-16.64-27.71-8.32-22.17 2.78-24.94 16.63-22.17 24.96-5.54 13.87v19.41l13.86 13.87 38.79 22.18 13.86 8.32-11.09 5.55h-44.34l-36.02-11.1-24.94-11.09-30.49 2.78-2.77-5.55 8.32-52.69 13.85-33.28-63.73 36.05-24.95 22.19-19.39 22.18-19.4 11.1-5.54-2.78 5.54-11.09-27.71 16.64-41.57 13.86-11.09 2.78-49.88 5.54-33.25 5.55 5.54-11.09 30.48-19.41 30.49-16.64 16.62-19.42 16.63-27.73 16.63-19.41-41.57 8.32-33.25 13.87-24.94 22.18-16.63 19.41-24.94 13.87-8.32 2.77h-36.02l5.54-11.09 19.4-19.41 22.17-55.47 19.4-22.18 8.31-11.09-30.48 8.32-33.26 11.09-16.62 13.86-27.72 41.6-22.17 24.96-22.16 11.09-74.83 22.19h-27.71l8.31-13.87 19.4-16.64 30.49-13.86 27.71-13.87 13.85-16.64 13.86-27.73-33.25 11.09-44.34 24.96-27.72 19.41-30.48 11.1-41.57 5.54-30.48 16.64-11.08 2.78h-19.4l-11.09-2.78 2.77-8.32 24.95-16.64L331 1729.9l-52.65-2.77-30.49 11.09-30.48 19.41-16.63 5.55h-63.73l5.54-5.55 33.25-16.64 19.4-19.41 27.71-19.41 33.26-16.64 22.17-5.55h58.19l41.57 2.77 19.4-8.31 8.31-5.55-33.25-24.96-19.4-27.73-16.63-41.6-13.85-16.64-30.49-22.18-30.48-24.96-22.17-27.73-11.08-19.41v-11.1l27.71 5.55 27.71 13.87 36.03 27.73 27.71 24.96 5.54 2.77-13.86-30.51-11.08-36.05 2.77-8.32 24.94 13.87 16.63 22.18 19.4 41.6 8.31 52.69 11.08 22.19 16.63 11.09 22.17 5.55h27.71l63.74-22.19 19.4-16.64 16.63-36.05-16.63-2.77-24.94-11.1-24.94-16.63-16.63-22.19-13.86-27.73-24.94-74.88-19.4-44.37-22.16-27.73-27.72-16.64-22.17-5.54h-66.5l-30.49-2.78-13.85 2.78h-33.26l-27.71-13.87-5.54-13.86 13.85-13.87 22.17-8.32 27.72 2.77 27.71 11.1h60.96l-24.94-30.51-24.94-33.28-8.31-16.63h-24.94l-24.94-5.55-24.94-16.64-16.63-19.41-8.31-19.41-2.78-13.87v-27.73l11.09-30.51 19.4-22.18 22.17-13.87 22.17-5.54 36.02 2.77 22.17 11.09 13.86 11.09 16.62 27.74 5.55 16.64v41.59l-13.86 27.73-11.08 13.87-13.86 5.55 19.4 30.5 19.4 19.41 38.79 27.73 8.32 2.78v-38.83l8.31-69.33 8.31-19.41h11.09l8.31 11.1 5.54 22.18v22.19l-5.54 30.5v41.6l11.09 22.18 27.71 22.19 22.17 16.64 19.4 24.96 13.85 36.05 11.09 41.59 13.85 24.96 2.77 8.32 44.34 22.19 22.17 2.77-24.94-119.25-8.31-41.59-2.77-36.05-27.71-27.74-19.4-27.73-22.17-41.59-16.63-52.69-13.85-58.24-13.86-33.28-16.63-19.41-27.71-13.87-36.03-13.86-22.16-16.64-27.72-24.96-27.71-13.86-27.71-8.32-24.94-2.78-55.42-2.77-33.26-5.55-19.4 24.96-22.17 8.32h-24.94l-22.17-11.09-16.62-19.41-5.55-24.96 5.55-24.96 19.39-22.19 19.4-8.31h22.17l22.17 11.09 16.63 19.41 5.54 13.87 11.09 2.77h66.5l41.57 2.77 19.4 2.77-36.02-58.23-22.17-27.73-27.72-19.41-47.11-27.74-22.17-19.41-19.39-30.5-8.32-16.64-5.54 2.77H76.05l-24.94-11.09-22.17-16.64-16.626-24.958L4 609.546v-44.37l11.085-27.731 24.945-27.732 33.25-16.639 36.02-2.773 30.49 8.319 22.17 16.639 19.4 22.186 11.08 27.731 2.77 33.278-5.54 24.958-16.63 27.732-13.85 13.865 2.77 11.091 19.4 22.19 27.71 22.18 38.79 19.41v-24.95l2.78-13.87-11.09-5.55-8.31-16.63 5.54-16.644 11.08-11.092 19.4-2.773 22.17 11.092 5.54 8.317-2.77 24.96-11.08 11.09h-5.54l5.54 36.05 13.85 27.74 38.8 58.23 27.71 38.83 24.94 27.73 30.49 19.41L466.79 934V831.4l-11.09-33.28-19.4-27.73-22.16-24.96-8.32-5.55v-5.54l-11.08-5.55-27.71-36.05-22.17-44.369L331 606.773l-13.86-69.328-13.85-27.732-19.4-22.185-44.34-22.185-24.94-16.639-19.4-22.185-13.85-19.412v-5.547l-16.63 2.773h-38.8l-22.17-11.092-22.17-24.958-5.54-13.866v-38.824l13.86-27.732 22.17-16.638 16.62-5.547h33.26l27.71 13.865 16.63 22.186 8.31 22.185v24.959l-8.31 24.958v11.092l19.39 22.186 30.49 19.412 44.34 19.412L331 473.662v8.32h5.54l2.77-22.185 33.26-94.287 5.54-24.959v-33.278l-8.31-49.917-13.86-36.05-8.31-13.866v-5.547l-19.4 5.547H292.2l-27.71-8.32-27.71-19.412-19.4-27.731-8.31-24.958V85.421l11.08-30.504 16.63-22.185 30.48-19.413L294.97 5z"/><path d="M453 427l-5.36 10.435L439 469v-20.762l8.58-16.714L453 427zM1252.07 901h63.63l44.27 11.08 24.9 13.86 13.83 16.62 8.3 22.17v166.24l-11.07 22.16-11.06 13.86-16.6 11.08-24.9 5.54-146.64 2.77-27.66 11.08-27.67 24.94-11.07 27.71-2.76 83.12-2.77 2.77H1075l-30.43-8.31-19.37-13.86-19.37-30.47-8.3-22.17-5.53-33.25v-55.41l8.3-44.33 16.6-33.25 22.13-22.17 27.67-13.85 13.83-2.77 204.74 2.77v-19.4h-132.8l-2.77-2.77v-72.03l11.07-22.17 22.13-19.39 22.13-11.09 27.67-8.31 19.37-2.77zm-54.32 48.03l-16.6 13.86v24.93l2.77 5.55 13.83 8.31 19.37-2.77 11.07-13.86v-19.39l-11.07-13.85-19.37-2.78z"/><path d="M1424.01 1045h38.82l27.72 8.33 22.18 13.88 16.64 22.2 11.08 27.76 5.55 41.63v47.19l-5.55 38.86-8.31 27.75-19.41 27.76-24.95 16.65-19.41 5.55h-191.29v16.66l130.3 2.77v72.17l-13.86 27.76-19.41 16.65-33.27 13.88-33.27 5.55h-63.76l-41.59-8.33-27.72-13.88-13.86-11.1-13.87-22.2-2.77-8.33v-166.54l13.86-24.98 22.18-16.65 27.73-8.33 146.93-2.78 27.73-11.1 22.18-19.43 13.86-27.75 2.77-13.88 2.77-77.72zm-92.62 320.79l-5.55 2.78-8.31 13.88v16.65l2.77 5.55 13.86 11.11h19.41l11.09-13.88-2.77-24.98-13.87-11.11h-16.63zM1649.47 711.14h36l27.69 13.87 16.62 22.18 5.54 11.09 2.76 27.74-5.53 24.95-16.62 22.19-19.38 13.86-16.62 5.55h-19.38l-5.54 27.73-24.93 52.69-19.38 30.5 41.54-5.55 41.54-2.77 36-11.09 19.38-5.55V910.8l13.85-22.18 19.38-11.09 24.93-2.78 19.38 11.1 11.08 13.86 5.54 24.96-8.31 27.73-22.16 16.64-8.3 2.77h-22.16l-16.61-8.32-16.62 5.55-38.77 19.41-11.07 2.77-63.7 2.77-30.46 11.1-19.38 22.18-11.08 22.18-13.85 49.92-5.53 2.77-19.39-38.82-16.62-19.41 2.77-38.82v-27.73l-22.15-72.1-16.61-30.51v-30.5l8.3-19.41 8.31-5.55h16.62l11.07 13.87 5.54 13.86v49.92l24.92 63.78 2.77 2.77 16.62-24.96 33.23-44.37 19.38-38.82 2.77-13.86-13.84-5.55-16.62-22.18-5.54-13.87V766.6l8.31-22.18 19.39-22.19 13.84-8.31zM754.26 634.131h429.6l8.32 8.307v16.616l-8.32 11.076H751.49l-8.31-8.307v-16.615zM732.51 461.103h77.75l213.81 2.75 8.33 8.25 2.77 11-5.55 11H740.84l-13.89-5.5-2.78-19.25zM926.32 981.18l11.11 5.54 2.77 19.39-5.55 8.31-119.39 2.76H687.53l-8.33-8.3v-16.62l8.33-8.31zM860.49 808.16h66.6l11.1 11.07-2.77 16.62-5.55 5.54-199.8 2.77-13.88-8.31v-16.62l5.55-8.3zM757.07 546.116h188.99l11.12 8.25v19.25l-5.56 5.5h-200.1l-8.34-13.75 8.34-16.5zM1098.55 722.15h207.91l2.77 5.63v19.73l-5.54 5.64h-207.91l-5.55-5.64V730.6zM1072.63 463.104l191.28 2.75 8.32 8.25-2.77 19.25-5.55 2.75h-110.89l-94.25-2.75-5.54-8.25v-13.75l5.54-5.5zM906.5 722.14h149.4l8.3 8.25-2.77 19.25-8.3 5.5H906.5l-8.3-11 2.77-16.5zM836.76 896.17l13.88 5.54 5.55 13.85-5.55 11.07-5.55 2.77-113.81 2.77h-24.99l-8.32-5.54-2.78-13.84 8.33-13.85zM1168.52 549.117h129.68l11.04 8.25v16.5l-8.28 8.25h-113.13l-24.83-2.75-2.76-5.5v-16.5zM680 1066.2h105.1l11.07 11.07-2.77 19.39-11.06 5.54H674.46l-8.29-8.31 2.76-19.38zM743.34 722.14h108.88l11.17 5.5 2.79 13.75-8.38 13.75H740.55l-8.37-8.25 2.79-19.25zM986.99 808.16h99.2l8.27 5.54 2.75 16.61-13.77 13.85h-96.45l-11.02-5.54-2.76-16.62zM1008.26 546.116h104.91l11.05 8.25v19.25l-5.53 5.5h-115.95l-5.52-5.5v-19.25zM890.52 896.17h105.36l8.32 8.25v16.5l-8.32 8.25H890.52l-8.32-8.25v-16.5zM837.29 1066.2h91.58l8.32 5.67v19.83l-8.32 8.5h-97.13l-5.55-8.5 2.78-19.83zM1224.56 634.131h77.6l11.09 8.307v19.385l-8.31 8.307h-83.15l-5.54-8.307v-19.385zM1128.48 808.16h82.5l8.25 11-2.75 16.5-8.25 5.5h-82.5l-5.5-8.25v-16.5zM789.27 1157.21h77.6l8.31 8.25v16.5l-5.54 5.5-63.74 2.75-22.17-2.75-5.55-16.5 5.55-11zM671.71 1160.21h74.91l5.54 5.45v16.37l-8.32 8.18h-72.13l-5.55-8.18 2.78-19.09zM1039.56 896.17h61.11l5.55 5.5v19.25l-5.55 8.25h-61.11l-8.34-13.75 2.78-13.75zM976.06 981.18h47.08l8.3 5.5 2.77 13.75-5.54 11-5.53 2.75h-52.62l-8.31-8.25 2.77-19.25z"/></g></svg>