<?xml version="1.0" encoding="UTF-8" standalone="no"?>
<svg
   xmlns:sketch="http://www.bohemiancoding.com/sketch/ns"
   xmlns:dc="http://purl.org/dc/elements/1.1/"
   xmlns:cc="http://creativecommons.org/ns#"
   xmlns:rdf="http://www.w3.org/1999/02/22-rdf-syntax-ns#"
   xmlns:svg="http://www.w3.org/2000/svg"
   xmlns="http://www.w3.org/2000/svg"
   xmlns:sodipodi="http://sodipodi.sourceforge.net/DTD/sodipodi-0.dtd"
   xmlns:inkscape="http://www.inkscape.org/namespaces/inkscape"
   inkscape:export-ydpi="200"
   inkscape:export-xdpi="200"
   inkscape:export-filename="/Users/jneveu/ownCloud2/Documents/Enseignements/UPSUD/MethNum/scripts/figures/jupyter_logo_saclay.png"
   height="150.2142"
   width="198.88017"
   inkscape:version="1.0 (4035a4f, 2020-05-01)"
   sodipodi:docname="jupyter_logo_saclay.svg"
   xml:space="preserve"
   enable-background="new -336 437 351 151"
   viewBox="-336 437 198.88017 150.2142"
   y="0px"
   x="0px"
   id="Layer_1"
   version="1.1"><metadata
   id="metadata920"><rdf:RDF><cc:Work
       rdf:about=""><dc:format>image/svg+xml</dc:format><dc:type
         rdf:resource="http://purl.org/dc/dcmitype/StillImage" /><dc:title>Group Copy 2</dc:title></cc:Work></rdf:RDF></metadata><defs
   id="defs918" /><sodipodi:namedview
   fit-margin-bottom="0"
   fit-margin-right="0"
   fit-margin-left="0"
   fit-margin-top="0"
   inkscape:current-layer="Group-Copy-_x2B_-hub"
   inkscape:window-maximized="0"
   inkscape:window-y="63"
   inkscape:window-x="79"
   inkscape:cy="93.056661"
   inkscape:cx="67.100635"
   inkscape:zoom="1.8504991"
   showgrid="false"
   id="namedview916"
   inkscape:window-height="814"
   inkscape:window-width="1440"
   inkscape:pageshadow="2"
   inkscape:pageopacity="0"
   guidetolerance="10"
   gridtolerance="10"
   objecttolerance="10"
   borderopacity="1"
   bordercolor="#666666"
   pagecolor="#ffffff" />
<title
   id="title872">Group Copy 2</title>
<desc
   id="desc874">Created with Sketch.</desc>
<g
   transform="translate(-84.099708,-0.29281474)"
   sketch:type="MSPage"
   id="Page-1">
	<g
   sketch:type="MSArtboardGroup"
   transform="translate(-144,-2506)"
   id="Home---Desktop-Copy-2">
		<g
   sketch:type="MSLayerGroup"
   transform="translate(97,2493)"
   id="Group">
			<g
   transform="translate(0,13)"
   id="Group-Copy-2">
				
					<linearGradient
   gradientTransform="matrix(348.2257,0,0,-87.3639,217017.59,89569.312)"
   y2="1019.5301"
   x2="-624.03589"
   y1="1019.4888"
   x1="-623.03589"
   gradientUnits="userSpaceOnUse"
   id="Oval-7-Copy-2_1_">
					<stop
   id="stop876"
   style="stop-color:#979797"
   offset="0" />
					<stop
   id="stop878"
   style="stop-color:#F1F1F1"
   offset="0.2293" />
					<stop
   id="stop880"
   style="stop-color:#FFFFFF"
   offset="0.5129" />
					<stop
   id="stop882"
   style="stop-color:#979797"
   offset="1" />
				</linearGradient>
				
				
					<linearGradient
   gradientTransform="matrix(197.93087,0,0,-65.395427,123311.34,67182.249)"
   y2="1019.5301"
   x2="-624.03589"
   y1="1019.4888"
   x1="-623.03589"
   gradientUnits="userSpaceOnUse"
   id="Oval-7-Copy-3_1_">
					<stop
   id="stop886"
   style="stop-color:#979797"
   offset="0" />
					<stop
   id="stop888"
   style="stop-color:#F1F1F1"
   offset="0.1977" />
					<stop
   id="stop890"
   style="stop-color:#FFFFFF"
   offset="0.567" />
					<stop
   id="stop892"
   style="stop-color:#979797"
   offset="1" />
				</linearGradient>
				<path
   style="stroke:url(#Oval-7-Copy-3_1_)"
   d="m -97.900508,531.73457 c 54.509389,-13.9977 95.2635406,-34.58257 91.1142333,-46.03524 -4.2061463,-11.45267 -51.7242373,-9.43161 -106.2336253,4.5661 -54.50939,13.9977 -95.26354,34.58257 -91.11424,46.03524 4.14931,11.45267 51.72424,9.43161 106.233632,-4.5661 z"
   stroke-width="0.955587"
   stroke="url(#Oval-7-Copy-3_1_)"
   fill="none"
   id="Oval-7-Copy-3" />
				<path
   d="m -105.46021,555.9 c -24.6,0 -46,-8.8 -57.2,-21.9 8.4,23.4 30.9,40.2 57.2,40.2 26.300003,0 48.700003,-16.8 57.200003,-40.2 -11.2,13.1 -32.6,21.9 -57.200003,21.9"
   fill="#e46e2e"
   id="Fill-9" />
				<path
   d="m -105.46021,470.6 c 24.600003,0 46.000003,8.8 57.200003,21.9 -8.4,-23.4 -30.9,-40.2 -57.200003,-40.2 -26.3,0 -48.7,16.8 -57.2,40.2 11.2,-13.1 32.6,-21.9 57.2,-21.9"
   fill="#e46e2e"
   id="Fill-10" />
				<path
   d="m -150.1,587.5 c -5.3,0.2 -9.7,-3.9 -10,-9.1 -0.2,-5.3 3.9,-9.7 9.1,-10 5.3,-0.2 9.7,3.9 10,9.1 0.2,5.3 -3.9,9.8 -9.1,10 z"
   fill="#767474"
   id="Fill-11" />
				<path
   d="m -157.5,463 c -3.3,0.1 -6.1,-2.4 -6.2,-5.7 -0.1,-3.3 2.4,-6.1 5.7,-6.2 3.3,-0.1 6.1,2.4 6.2,5.7 0.1,3.3 -2.4,6 -5.7,6.2 z"
   fill="#767474"
   id="Fill-12" />
				<path
   d="m -62.6,455.9 c -5.1,0.2 -9.4,-3.8 -9.7,-8.9 -0.2,-5.1 3.8,-9.5 8.9,-9.7 5.1,-0.2 9.4,3.8 9.7,8.9 0.2,5.1 -3.8,9.5 -8.9,9.7 z"
   fill="#767474"
   id="Fill-8" />
				<g
   transform="translate(0,50)"
   id="Group-Copy-_x2B_-hub">
					<g
   transform="matrix(0.56038157,0,0,0.56038157,-21.963353,196.92523)"
   id="Group-Copy">
						<path
   d="m -218.3,464.2 c 0,5.5 -0.4,7.3 -1.6,8.6 -1,1.1 -2.7,1.6 -4.6,1.8 l 0.4,3.3 c 2.2,0 5.3,-0.8 7.2,-2.6 2.1,-2.1 2.8,-5 2.8,-9.4 V 445 h -4.2 v 19.2"
   fill="#313940"
   id="Fill-1" />
						<path
   d="m -186.9,461.7 c 0,2.4 0,4.5 0.2,6.3 h -3.7 l -0.2,-3.8 h -0.1 c -1.1,1.9 -3.5,4.3 -7.7,4.3 -3.6,0 -8,-2 -8,-10.1 V 445 h 4.2 v 12.7 c 0,4.4 1.3,7.3 5.2,7.3 2.8,0 4.8,-1.9 5.5,-3.8 0.2,-0.6 0.4,-1.4 0.4,-2.1 V 445 h 4.2 v 16.7"
   fill="#313940"
   id="Fill-2" />
						<path
   d="m -178.9,452.5 c 0,-2.9 -0.1,-5.3 -0.2,-7.5 h 3.8 l 0.2,3.9 h 0.1 c 1.7,-2.8 4.4,-4.5 8.2,-4.5 5.6,0 9.8,4.7 9.8,11.7 0,8.3 -5.1,12.3 -10.5,12.3 -3.1,0 -5.7,-1.3 -7.1,-3.6 h -0.1 v 12.5 h -4.2 z m 4.1,6.1 c 0,0.6 0.1,1.2 0.2,1.7 0.8,2.9 3.3,4.9 6.3,4.9 4.4,0 7,-3.6 7,-8.9 0,-4.6 -2.4,-8.5 -6.9,-8.5 -2.9,0 -5.5,2 -6.4,5.2 -0.1,0.5 -0.3,1.1 -0.3,1.7 v 3.9 z"
   fill="#313940"
   id="Fill-3" />
						<path
   d="m -149.5,445 5.1,13.6 c 0.5,1.5 1.1,3.3 1.5,4.7 h 0.1 c 0.4,-1.4 0.9,-3.1 1.5,-4.8 l 4.6,-13.5 h 4.4 l -6.3,16.4 c -3,7.9 -5.1,11.9 -7.9,14.4 -2.1,1.8 -4.1,2.5 -5.2,2.7 l -1.1,-3.5 c 1.1,-0.3 2.4,-1 3.7,-2 1.1,-0.9 2.6,-2.5 3.5,-4.7 0.2,-0.4 0.3,-0.8 0.3,-1 0,-0.2 -0.1,-0.6 -0.3,-1.1 l -8.6,-21.2 h 4.7"
   fill="#313940"
   id="Fill-4" />
						<path
   d="m -121.3,438.4 v 6.6 h 6 v 3.2 h -6 v 12.4 c 0,2.8 0.8,4.5 3.2,4.5 1.1,0 1.9,-0.1 2.4,-0.3 l 0.2,3.1 c -0.8,0.3 -2.1,0.6 -3.7,0.6 -2,0 -3.5,-0.6 -4.5,-1.8 -1.2,-1.2 -1.6,-3.3 -1.6,-6 v -12.5 h -3.6 V 445 h 3.6 v -5.5 l 4,-1.1"
   fill="#313940"
   id="Fill-5" />
						<path
   d="m -107.5,457.3 c 0.1,5.7 3.7,8 7.9,8 3,0 4.8,-0.5 6.4,-1.2 l 0.7,3 c -1.5,0.7 -4,1.4 -7.7,1.4 -7.1,0 -11.4,-4.7 -11.4,-11.6 0,-6.9 4.1,-12.4 10.9,-12.4 7.6,0 9.6,6.6 9.6,10.8 0,0.9 -0.1,1.5 -0.1,1.9 h -16.3 z m 12.3,-3 c 0,-2.7 -1.1,-6.8 -5.8,-6.8 -4.3,0 -6.1,3.9 -6.5,6.8 z"
   fill="#313940"
   id="Fill-6" />
						<path
   d="m -84.9,452.2 c 0,-2.7 0,-5 -0.2,-7.2 h 3.7 l 0.1,4.5 h 0.2 c 1.1,-3.1 3.6,-5 6.4,-5 0.5,0 0.8,0 1.2,0.1 v 3.9 c -0.4,-0.1 -0.9,-0.1 -1.4,-0.1 -3,0 -5.1,2.2 -5.6,5.4 -0.1,0.6 -0.2,1.2 -0.2,1.9 V 468 h -4.2 v -15.8"
   fill="#313940"
   id="Fill-7" />
					</g>
					
				<text
   xml:space="preserve"
   style="font-size:12.8341px;line-height:1.25;font-family:Symbol;-inkscape-font-specification:Symbol;letter-spacing:0.0462289px;word-spacing:0px;fill:#5d0632;fill-opacity:1;stroke-width:0.802134"
   x="-167.19676"
   y="473.858"
   id="text2070"
   transform="scale(0.99088289,1.009201)"><tspan
     sodipodi:role="line"
     id="tspan2068"
     x="-167.19676"
     y="473.858"
     style="font-style:normal;font-variant:normal;font-weight:bold;font-stretch:normal;font-size:12.8341px;font-family:sans-serif;-inkscape-font-specification:'sans-serif, Bold';font-variant-ligatures:normal;font-variant-caps:normal;font-variant-numeric:normal;font-variant-east-asian:normal;fill:#5d0632;fill-opacity:1;stroke-width:0.802134">@PARIS-SACLAY</tspan></text></g>
			</g>
		</g>
	</g>
</g>
</svg>
